<svg width="1280" height="720" viewBox="0 0 3840 2160" fill="none" xmlns="http://www.w3.org/2000/svg">
  <g clip-path="url(#clip0)">
    <path d="M1707.87 865.01l3.54 3.54-3.54-3.54zm-86.26 196.25l3.41 3.66-3.41-3.66zM1920 772a304.76 304.76 0 00-215.67 89.48l7.08 7.07A294.73 294.73 0 011920 782v-10zm-215.67 89.48c-48.98 49.06-77.96 116.26-85.8 184.22l9.94 1.15c7.61-66.03 35.75-131.04 82.94-178.3l-7.08-7.07zm-85.8 184.22a8.62 8.62 0 01-1.14 2.91c-.77 1.39-1.89 3-3.31 4.76a106.17 106.17 0 01-10.58 11 202.73 202.73 0 01-17.26 14.24l5.55 8.33c1.77-1.18 10.27-7.64 18.49-15.22a117.9 117.9 0 0011.59-12.08 45.14 45.14 0 004.27-6.18 18.46 18.46 0 002.33-6.61l-9.94-1.15zm-32.29 32.91a9.2 9.2 0 00-1.67 1.38c-.27.3-.81.93-1.16 1.88a5.16 5.16 0 003.1 6.64c.6.23 1.14.31 1.45.34.62.07 1.23.05 1.62.03.8-.04 1.88-.16 2.65-.24.89-.08 1.65-.14 2.27-.14v-10c-1.13 0-2.31.1-3.24.19-1.05.1-1.69.18-2.2.2-.26.02-.21 0 0 .02a4.75 4.75 0 013.31 2.19c.97 1.57.8 3.2.44 4.2-.31.83-.76 1.33-.88 1.47-.28.3-.44.37-.14.17l-5.55-8.33zm8.26 9.89c1.19 0 2.18-.38 2.65-.58.59-.24 1.15-.55 1.66-.85 1.01-.6 2.15-1.39 3.31-2.26 2.35-1.76 5.19-4.1 8.05-6.56a550.45 550.45 0 0014.85-13.33l-6.81-7.33a537.96 537.96 0 01-14.55 13.07 157.41 157.41 0 01-7.52 6.14 31.09 31.09 0 01-2.75 1.85l-.1.05s.09-.04.25-.08c.14-.04.49-.12.96-.12v10zm34-31.59v-10.63h-10v10.63h10zm-3.48 8.01a10.9 10.9 0 003.48-8.01h-10c0 .29-.11.52-.29.68l6.81 7.33z" fill="#55B1EB"/>
    <path d="M1707.87 865.01l3.54 3.54-3.54-3.54zm-86.26 196.25l3.41 3.66-3.41-3.66zM1920 772a304.76 304.76 0 00-215.67 89.48l7.08 7.07A294.73 294.73 0 011920 782v-10zm-215.67 89.48c-48.98 49.06-77.96 116.26-85.8 184.22l9.94 1.15c7.61-66.03 35.75-131.04 82.94-178.3l-7.08-7.07zm-85.8 184.22a8.62 8.62 0 01-1.14 2.91c-.77 1.39-1.89 3-3.31 4.76a106.17 106.17 0 01-10.58 11 202.73 202.73 0 01-17.26 14.24l5.55 8.33c1.77-1.18 10.27-7.64 18.49-15.22a117.9 117.9 0 0011.59-12.08 45.14 45.14 0 004.27-6.18 18.46 18.46 0 002.33-6.61l-9.94-1.15zm-32.29 32.91a9.2 9.2 0 00-1.67 1.38c-.27.3-.81.93-1.16 1.88a5.16 5.16 0 003.1 6.64c.6.23 1.14.31 1.45.34.62.07 1.23.05 1.62.03.8-.04 1.88-.16 2.65-.24.89-.08 1.65-.14 2.27-.14v-10c-1.13 0-2.31.1-3.24.19-1.05.1-1.69.18-2.2.2-.26.02-.21 0 0 .02a4.75 4.75 0 013.31 2.19c.97 1.57.8 3.2.44 4.2-.31.83-.76 1.33-.88 1.47-.28.3-.44.37-.14.17l-5.55-8.33zm8.26 9.89c1.19 0 2.18-.38 2.65-.58.59-.24 1.15-.55 1.66-.85 1.01-.6 2.15-1.39 3.31-2.26 2.35-1.76 5.19-4.1 8.05-6.56a550.45 550.45 0 0014.85-13.33l-6.81-7.33a537.96 537.96 0 01-14.55 13.07 157.41 157.41 0 01-7.52 6.14 31.09 31.09 0 01-2.75 1.85l-.1.05s.09-.04.25-.08c.14-.04.49-.12.96-.12v10zm34-31.59v-10.63h-10v10.63h10zm-3.48 8.01a10.9 10.9 0 003.48-8.01h-10c0 .29-.11.52-.29.68l6.81 7.33z" fill="#FFDFA9"/>
    <path d="M1920 701c-101.58 0-199 39.98-270.82 111.15C1577.35 883.32 1539 978 1508 1017s-174.87 44.47 66 71.73c185.55 21 285.55 20.77 346 20.77" stroke="#55B1EB" stroke-width="8"/>
    <path d="M1920 701c-101.58 0-199 39.98-270.82 111.15C1577.35 883.32 1539 978 1508 1017s-174.87 44.47 66 71.73c185.55 21 285.55 20.77 346 20.77" stroke="#FFDFA9" stroke-opacity=".8" stroke-width="8"/>
    <path d="M1920 673c-112.12 0-219.64 43.36-298.92 120.54-79.27 77.18-114.08 176.96-149.68 213.95-35.6 36.99-201.35 56.17 64.5 85.74C1740.7 1116 1853.28 1116 1920 1116" stroke="#55B1EB" stroke-width="7"/>
    <path d="M1920 673c-112.12 0-219.64 43.36-298.92 120.54-79.27 77.18-114.08 176.96-149.68 213.95-35.6 36.99-201.35 56.17 64.5 85.74C1740.7 1116 1853.28 1116 1920 1116" stroke="#FFDFA9" stroke-opacity=".6" stroke-width="7"/>
    <path d="M1920 643c-121.21 0-237.46 46.88-323.17 130.34C1511.12 856.79 1479 944 1436.5 989c-42.5 45-318.5 72 51.5 110 221.41 24.62 359.87 23 432 23" stroke="#55B1EB" stroke-width="6"/>
    <path d="M1920 643c-121.21 0-237.46 46.88-323.17 130.34C1511.12 856.79 1479 944 1436.5 989c-42.5 45-318.5 72 51.5 110 221.41 24.62 359.87 23 432 23" stroke="#FFDFA9" stroke-opacity=".4" stroke-width="6"/>
    <path d="M1920 598c-133.65 0-261.82 51.97-356.33 144.49C1469.17 834.99 1419 913 1406.5 929.5s-49.5 59-143.5 83.5c-105 27.37-261 66.35 187 94 243 15 390.47 22 470 22" stroke="#55B1EB" stroke-width="5"/>
    <path d="M1920 598c-133.65 0-261.82 51.97-356.33 144.49C1469.17 834.99 1419 913 1406.5 929.5s-49.5 59-143.5 83.5c-105 27.37-261 66.35 187 94 243 15 390.47 22 470 22" stroke="#FFDFA9" stroke-opacity=".4" stroke-width="5"/>
    <path d="M1920 542c-153.32 0-300.36 58.24-408.77 161.9-108.42 103.66-84.97 94.4-171.73 184.6-75.13 78.11-225.5 106.5-329 130s-12.78 65.07 370.32 93.85c278.49 20.92 447.94 24.65 539.18 24.65" stroke="#55B1EB" stroke-width="4"/>
    <path d="M1920 542c-153.32 0-300.36 58.24-408.77 161.9-108.42 103.66-84.97 94.4-171.73 184.6-75.13 78.11-225.5 106.5-329 130s-12.78 65.07 370.32 93.85c278.49 20.92 447.94 24.65 539.18 24.65" stroke="#FFDFA9" stroke-opacity=".2" stroke-width="4"/>
    <path d="M1920 474c-174.94 0-342.71 65.97-466.41 183.4-123.7 117.42-78.6 98.42-177.59 200.6-85.72 88.48-268.91 118.38-387 145-67.14 15.13-94.82 39.05 0 64 71.96 18.93 227.21 39.01 415.8 53.08 317.76 23.69 511.09 27.92 615.2 27.92" stroke="#55B1EB" stroke-width="3"/>
    <path d="M1920 474c-174.94 0-342.71 65.97-466.41 183.4-123.7 117.42-78.6 98.42-177.59 200.6-85.72 88.48-268.91 118.38-387 145-67.14 15.13-94.82 39.05 0 64 71.96 18.93 227.21 39.01 415.8 53.08 317.76 23.69 511.09 27.92 615.2 27.92" stroke="#FFDFA9" stroke-opacity=".2" stroke-width="3"/>
    <path d="M1920 356c-225.74 0-442.23 81.43-601.86 226.39-159.62 144.95-191.99 248.89-334.94 307.1-142.95 58.23-355.3 85.75-439.42 113.27-50.96 16.67-78.71 59.46 58.66 92.09 89.43 21.24 287.69 41.84 523.71 58.68 410.02 29.25 659.51 34.47 793.85 34.47" stroke="#55B1EB" stroke-width="2"/>
    <mask id="a" maskUnits="userSpaceOnUse" x="623" y="1254" width="1298" height="436">
      <path d="M1920 1261c-176.81 0-348.03-2.28-510.62-6.56C-427 1254.44 1471 1679 1920 1690v-429z" fill="#C4C4C4"/>
    </mask>
    <g mask="url(#a)">
      <path d="M1920 1359.5a299.76 299.76 0 01-212.13-88.01 300.76 300.76 0 01-85.89-177.99c-1.31-11.4-22.98-28.5-34.48-36.5" stroke="#55B1EB" stroke-width="10"/>
      <path d="M1920 1359.5a299.76 299.76 0 01-212.13-88.01 300.76 300.76 0 01-85.89-177.99c-1.31-11.4-22.98-28.5-34.48-36.5" stroke="#FFDFA9" stroke-width="10"/>
      <path d="M1920 1605c-82.46 0-166.88-20.03-238.41-63.04-43.41-26.11-87.19-59.88-122.59-99.96-45.15-48.58-72.01-108.99-92.07-170-18.22-55.44-27.52-114.25-30.5-173.27-2.19-21.46-38.28-53.67-57.43-68.73" stroke="#55B1EB" stroke-width="4"/>
      <path d="M1920 1605c-82.46 0-166.88-20.03-238.41-63.04-43.41-26.11-87.19-59.88-122.59-99.96-45.15-48.58-72.01-108.99-92.07-170-18.22-55.44-27.52-114.25-30.5-173.27-2.19-21.46-38.28-53.67-57.43-68.73" stroke="#FFDFA9" stroke-opacity=".2" stroke-width="4"/>
      <path d="M1920 1648c-89.63 0-181.38-22.78-259.12-71.71-47.19-29.69-94.77-68.09-133.24-113.68-49.07-55.26-78.27-123.97-100.07-193.36-19.8-63.05-29.91-129.95-33.15-197.07-2.38-24.41-41.6-61.05-62.42-78.18" stroke="#55B1EB" stroke-width="3"/>
      <path d="M1920 1648c-89.63 0-181.38-22.78-259.12-71.71-47.19-29.69-94.77-68.09-133.24-113.68-49.07-55.26-78.27-123.97-100.07-193.36-19.8-63.05-29.91-129.95-33.15-197.07-2.38-24.41-41.6-61.05-62.42-78.18" stroke="#fff" stroke-opacity=".2" stroke-width="3"/>
      <path d="M1920 1684c-96.34 0-194.95-23.2-278.51-73.02-50.72-30.24-101.86-69.35-143.21-115.78-52.75-56.26-84.13-126.24-107.56-196.9-21.28-64.21-32.14-132.33-35.63-200.69-2.55-24.86-44.71-62.16-67.09-79.61" stroke="#55B1EB" stroke-width="2"/>
      <path d="M1920 1562c-74.23 0-150.22-17.31-214.61-54.49-39.08-22.57-78.49-51.75-110.36-86.4-40.64-41.99-64.82-94.21-82.87-146.94-16.41-47.91-24.78-98.75-27.46-149.76-1.97-18.55-34.46-46.39-51.7-59.41" stroke="#55B1EB" stroke-width="5"/>
      <path d="M1920 1562c-74.23 0-150.22-17.31-214.61-54.49-39.08-22.57-78.49-51.75-110.36-86.4-40.64-41.99-64.82-94.21-82.87-146.94-16.41-47.91-24.78-98.75-27.46-149.76-1.97-18.55-34.46-46.39-51.7-59.41" stroke="#FFDFA9" stroke-opacity=".4" stroke-width="5"/>
      <path d="M1920 1521c-68.59 0-138.81-15.36-198.31-48.35-36.11-20.03-72.53-45.92-101.97-76.66-37.55-37.26-59.9-83.6-76.58-130.39-15.15-42.51-22.89-87.62-25.37-132.88-1.82-16.46-31.84-41.17-47.77-52.72" stroke="#55B1EB" stroke-width="6"/>
      <path d="M1920 1521c-68.59 0-138.81-15.36-198.31-48.35-36.11-20.03-72.53-45.92-101.97-76.66-37.55-37.26-59.9-83.6-76.58-130.39-15.15-42.51-22.89-87.62-25.37-132.88-1.82-16.46-31.84-41.17-47.77-52.72" stroke="#FFDFA9" stroke-opacity=".4" stroke-width="6"/>
      <path d="M1920 1488c-63.26 0-128.01-13.62-182.88-42.87-33.3-17.75-66.89-40.71-94.04-67.97-34.64-33.03-55.24-74.11-70.63-115.6-13.97-37.7-21.11-77.69-23.39-117.82-1.68-14.59-29.37-36.5-44.06-46.74" stroke="#55B1EB" stroke-width="7"/>
      <path d="M1920 1488c-63.26 0-128.01-13.62-182.88-42.87-33.3-17.75-66.89-40.71-94.04-67.97-34.64-33.03-55.24-74.11-70.63-115.6-13.97-37.7-21.11-77.69-23.39-117.82-1.68-14.59-29.37-36.5-44.06-46.74" stroke="#FFDFA9" stroke-opacity=".6" stroke-width="7"/>
      <path d="M1920 1465c-60.51 0-122.46-13.62-174.95-42.87-31.86-17.75-63.99-40.71-89.96-67.97-33.13-33.03-52.85-74.11-67.56-115.6-13.37-37.7-20.2-77.69-22.38-117.82-1.61-14.59-28.09-36.5-42.15-46.74" stroke="#55B1EB" stroke-width="8"/>
      <path d="M1920 1465c-60.51 0-122.46-13.62-174.95-42.87-31.86-17.75-63.99-40.71-89.96-67.97-33.13-33.03-52.85-74.11-67.56-115.6-13.37-37.7-20.2-77.69-22.38-117.82-1.61-14.59-28.09-36.5-42.15-46.74" stroke="#FFDFA9" stroke-opacity=".8" stroke-width="8"/>
    </g>
  </g>
  <g clip-path="url(#clip1)">
    <path d="M2132.13 865.01l-3.54 3.54 3.54-3.54zm86.26 196.25l-3.41 3.66 3.41-3.66zM1920 772a304.76 304.76 0 01215.67 89.48l-7.08 7.07A294.73 294.73 0 001920 782v-10zm215.67 89.48c48.98 49.06 77.96 116.26 85.8 184.22l-9.94 1.15c-7.61-66.03-35.75-131.04-82.94-178.3l7.08-7.07zm85.8 184.22c.06.52.34 1.47 1.14 2.91.77 1.39 1.89 3 3.31 4.76 2.84 3.53 6.62 7.36 10.58 11a202.73 202.73 0 0017.26 14.24l-5.55 8.33c-1.77-1.18-10.27-7.64-18.49-15.22a117.9 117.9 0 01-11.59-12.08 45.14 45.14 0 01-4.27-6.18 18.46 18.46 0 01-2.33-6.61l9.94-1.15zm32.29 32.91c.45.3 1.11.77 1.67 1.38.27.3.81.93 1.16 1.88a5.16 5.16 0 01-3.1 6.64c-.6.23-1.14.31-1.45.34-.62.07-1.23.05-1.62.03-.8-.04-1.88-.16-2.65-.24-.89-.08-1.65-.14-2.27-.14v-10c1.13 0 2.31.1 3.24.19 1.05.1 1.69.18 2.2.2.26.02.21 0 0 .02a4.75 4.75 0 00-3.31 2.19 4.88 4.88 0 00-.44 4.2c.31.83.76 1.33.88 1.47.28.3.44.37.14.17l5.55-8.33zm-8.26 9.89a6.86 6.86 0 01-2.65-.58c-.59-.24-1.15-.55-1.66-.85a38.61 38.61 0 01-3.31-2.26c-2.35-1.76-5.19-4.1-8.05-6.56a550.45 550.45 0 01-14.85-13.33l6.81-7.33c2.97 2.76 8.96 8.27 14.55 13.07 2.81 2.41 5.45 4.59 7.52 6.14a31.09 31.09 0 002.75 1.85l.1.05s-.09-.04-.25-.08a3.65 3.65 0 00-.96-.12v10zm-34-31.59v-10.63h10v10.63h-10zm3.48 8.01a10.9 10.9 0 01-3.48-8.01h10c0 .29.11.52.29.68l-6.81 7.33z" fill="#55B1EB"/>
    <path d="M2132.13 865.01l-3.54 3.54 3.54-3.54zm86.26 196.25l-3.41 3.66 3.41-3.66zM1920 772a304.76 304.76 0 01215.67 89.48l-7.08 7.07A294.73 294.73 0 001920 782v-10zm215.67 89.48c48.98 49.06 77.96 116.26 85.8 184.22l-9.94 1.15c-7.61-66.03-35.75-131.04-82.94-178.3l7.08-7.07zm85.8 184.22c.06.52.34 1.47 1.14 2.91.77 1.39 1.89 3 3.31 4.76 2.84 3.53 6.62 7.36 10.58 11a202.73 202.73 0 0017.26 14.24l-5.55 8.33c-1.77-1.18-10.27-7.64-18.49-15.22a117.9 117.9 0 01-11.59-12.08 45.14 45.14 0 01-4.27-6.18 18.46 18.46 0 01-2.33-6.61l9.94-1.15zm32.29 32.91c.45.3 1.11.77 1.67 1.38.27.3.81.93 1.16 1.88a5.16 5.16 0 01-3.1 6.64c-.6.23-1.14.31-1.45.34-.62.07-1.23.05-1.62.03-.8-.04-1.88-.16-2.65-.24-.89-.08-1.65-.14-2.27-.14v-10c1.13 0 2.31.1 3.24.19 1.05.1 1.69.18 2.2.2.26.02.21 0 0 .02a4.75 4.75 0 00-3.31 2.19 4.88 4.88 0 00-.44 4.2c.31.83.76 1.33.88 1.47.28.3.44.37.14.17l5.55-8.33zm-8.26 9.89a6.86 6.86 0 01-2.65-.58c-.59-.24-1.15-.55-1.66-.85a38.61 38.61 0 01-3.31-2.26c-2.35-1.76-5.19-4.1-8.05-6.56a550.45 550.45 0 01-14.85-13.33l6.81-7.33c2.97 2.76 8.96 8.27 14.55 13.07 2.81 2.41 5.45 4.59 7.52 6.14a31.09 31.09 0 002.75 1.85l.1.05s-.09-.04-.25-.08a3.65 3.65 0 00-.96-.12v10zm-34-31.59v-10.63h10v10.63h-10zm3.48 8.01a10.9 10.9 0 01-3.48-8.01h10c0 .29.11.52.29.68l-6.81 7.33z" fill="#FFDFA9"/>
    <path d="M1920 701c101.58 0 199 39.98 270.82 111.15C2262.65 883.32 2301 978 2332 1017s174.87 44.47-66 71.73c-185.55 21-285.55 20.77-346 20.77" stroke="#55B1EB" stroke-width="8"/>
    <path d="M1920 701c101.58 0 199 39.98 270.82 111.15C2262.65 883.32 2301 978 2332 1017s174.87 44.47-66 71.73c-185.55 21-285.55 20.77-346 20.77" stroke="#FFDFA9" stroke-opacity=".8" stroke-width="8"/>
    <path d="M1920 673c112.12 0 219.64 43.36 298.92 120.54 79.27 77.18 114.08 176.96 149.68 213.95 35.6 36.99 201.35 56.17-64.5 85.74C2099.3 1116 1986.72 1116 1920 1116" stroke="#55B1EB" stroke-width="7"/>
    <path d="M1920 673c112.12 0 219.64 43.36 298.92 120.54 79.27 77.18 114.08 176.96 149.68 213.95 35.6 36.99 201.35 56.17-64.5 85.74C2099.3 1116 1986.72 1116 1920 1116" stroke="#FFDFA9" stroke-opacity=".6" stroke-width="7"/>
    <path d="M1920 643c121.21 0 237.46 46.88 323.17 130.34C2328.88 856.79 2361 944 2403.5 989c42.5 45 318.5 72-51.5 110-221.41 24.62-359.87 23-432 23" stroke="#55B1EB" stroke-width="6"/>
    <path d="M1920 643c121.21 0 237.46 46.88 323.17 130.34C2328.88 856.79 2361 944 2403.5 989c42.5 45 318.5 72-51.5 110-221.41 24.62-359.87 23-432 23" stroke="#FFDFA9" stroke-opacity=".4" stroke-width="6"/>
    <path d="M1920 598c133.65 0 261.82 51.97 356.33 144.49C2370.83 834.99 2421 913 2433.5 929.5s49.5 59 143.5 83.5c105 27.37 261 66.35-187 94-243 15-390.47 22-470 22" stroke="#55B1EB" stroke-width="5"/>
    <path d="M1920 598c133.65 0 261.82 51.97 356.33 144.49C2370.83 834.99 2421 913 2433.5 929.5s49.5 59 143.5 83.5c105 27.37 261 66.35-187 94-243 15-390.47 22-470 22" stroke="#FFDFA9" stroke-opacity=".4" stroke-width="5"/>
    <path d="M1920 542c153.32 0 300.36 58.24 408.77 161.9 108.42 103.66 84.97 94.4 171.73 184.6 75.13 78.11 225.5 106.5 329 130s12.78 65.07-370.32 93.85C2180.69 1133.27 2011.24 1137 1920 1137" stroke="#55B1EB" stroke-width="4"/>
    <path d="M1920 542c153.32 0 300.36 58.24 408.77 161.9 108.42 103.66 84.97 94.4 171.73 184.6 75.13 78.11 225.5 106.5 329 130s12.78 65.07-370.32 93.85C2180.69 1133.27 2011.24 1137 1920 1137" stroke="#FFDFA9" stroke-opacity=".2" stroke-width="4"/>
    <path d="M1920 474c174.94 0 342.71 65.97 466.41 183.4 123.7 117.42 78.6 98.42 177.59 200.6 85.72 88.48 268.91 118.38 387 145 67.14 15.13 94.82 39.05 0 64-71.96 18.93-227.21 39.01-415.8 53.08-317.76 23.69-511.09 27.92-615.2 27.92" stroke="#55B1EB" stroke-width="3"/>
    <path d="M1920 474c174.94 0 342.71 65.97 466.41 183.4 123.7 117.42 78.6 98.42 177.59 200.6 85.72 88.48 268.91 118.38 387 145 67.14 15.13 94.82 39.05 0 64-71.96 18.93-227.21 39.01-415.8 53.08-317.76 23.69-511.09 27.92-615.2 27.92" stroke="#FFDFA9" stroke-opacity=".2" stroke-width="3"/>
    <path d="M1920 356c225.74 0 442.23 81.43 601.86 226.39 159.62 144.95 191.99 248.89 334.94 307.1 142.95 58.23 355.3 85.75 439.42 113.27 50.96 16.67 78.71 59.46-58.66 92.09-89.43 21.24-287.69 41.84-523.71 58.68-410.02 29.25-659.51 34.47-793.85 34.47" stroke="#55B1EB" stroke-width="2"/>
    <mask id="b" maskUnits="userSpaceOnUse" x="1919" y="1254" width="1298" height="436">
      <path d="M1920 1261c176.81 0 348.03-2.28 510.62-6.56C4267 1254.44 2369 1679 1920 1690v-429z" fill="#C4C4C4"/>
    </mask>
    <g mask="url(#b)">
      <path d="M1920 1359.5a299.76 299.76 0 00212.13-88.01 300.76 300.76 0 0085.89-177.99c1.31-11.4 22.98-28.5 34.48-36.5" stroke="#55B1EB" stroke-width="10"/>
      <path d="M1920 1359.5a299.76 299.76 0 00212.13-88.01 300.76 300.76 0 0085.89-177.99c1.31-11.4 22.98-28.5 34.48-36.5" stroke="#FFDFA9" stroke-width="10"/>
      <path d="M1920 1605c82.46 0 166.88-20.03 238.41-63.04 43.41-26.11 87.19-59.88 122.59-99.96 45.15-48.58 72.01-108.99 92.07-170 18.22-55.44 27.52-114.25 30.5-173.27 2.19-21.46 38.28-53.67 57.43-68.73" stroke="#55B1EB" stroke-width="4"/>
      <path d="M1920 1605c82.46 0 166.88-20.03 238.41-63.04 43.41-26.11 87.19-59.88 122.59-99.96 45.15-48.58 72.01-108.99 92.07-170 18.22-55.44 27.52-114.25 30.5-173.27 2.19-21.46 38.28-53.67 57.43-68.73" stroke="#FFDFA9" stroke-opacity=".2" stroke-width="4"/>
      <path d="M1920 1648c89.63 0 181.38-22.78 259.12-71.71 47.19-29.69 94.77-68.09 133.24-113.68 49.07-55.26 78.27-123.97 100.07-193.36 19.8-63.05 29.91-129.95 33.15-197.07 2.38-24.41 41.6-61.05 62.42-78.18" stroke="#55B1EB" stroke-width="3"/>
      <path d="M1920 1648c89.63 0 181.38-22.78 259.12-71.71 47.19-29.69 94.77-68.09 133.24-113.68 49.07-55.26 78.27-123.97 100.07-193.36 19.8-63.05 29.91-129.95 33.15-197.07 2.38-24.41 41.6-61.05 62.42-78.18" stroke="#fff" stroke-opacity=".2" stroke-width="3"/>
      <path d="M1920 1684c96.34 0 194.95-23.2 278.51-73.02 50.72-30.24 101.86-69.35 143.21-115.78 52.75-56.26 84.13-126.24 107.56-196.9 21.28-64.21 32.14-132.33 35.63-200.69 2.55-24.86 44.71-62.16 67.09-79.61" stroke="#55B1EB" stroke-width="2"/>
      <path d="M1920 1562c74.23 0 150.22-17.31 214.61-54.49 39.08-22.57 78.49-51.75 110.36-86.4 40.64-41.99 64.82-94.21 82.87-146.94 16.41-47.91 24.78-98.75 27.46-149.76 1.97-18.55 34.46-46.39 51.7-59.41" stroke="#55B1EB" stroke-width="5"/>
      <path d="M1920 1562c74.23 0 150.22-17.31 214.61-54.49 39.08-22.57 78.49-51.75 110.36-86.4 40.64-41.99 64.82-94.21 82.87-146.94 16.41-47.91 24.78-98.75 27.46-149.76 1.97-18.55 34.46-46.39 51.7-59.41" stroke="#FFDFA9" stroke-opacity=".4" stroke-width="5"/>
      <path d="M1920 1521c68.59 0 138.81-15.36 198.31-48.35 36.11-20.03 72.53-45.92 101.97-76.66 37.55-37.26 59.9-83.6 76.58-130.39 15.15-42.51 22.89-87.62 25.37-132.88 1.82-16.46 31.84-41.17 47.77-52.72" stroke="#55B1EB" stroke-width="6"/>
      <path d="M1920 1521c68.59 0 138.81-15.36 198.31-48.35 36.11-20.03 72.53-45.92 101.97-76.66 37.55-37.26 59.9-83.6 76.58-130.39 15.15-42.51 22.89-87.62 25.37-132.88 1.82-16.46 31.84-41.17 47.77-52.72" stroke="#FFDFA9" stroke-opacity=".4" stroke-width="6"/>
      <path d="M1920 1488c63.26 0 128.01-13.62 182.88-42.87 33.31-17.75 66.89-40.71 94.04-67.97 34.64-33.03 55.24-74.11 70.63-115.6 13.97-37.7 21.11-77.69 23.39-117.82 1.68-14.59 29.37-36.5 44.06-46.74" stroke="#55B1EB" stroke-width="7"/>
      <path d="M1920 1488c63.26 0 128.01-13.62 182.88-42.87 33.31-17.75 66.89-40.71 94.04-67.97 34.64-33.03 55.24-74.11 70.63-115.6 13.97-37.7 21.11-77.69 23.39-117.82 1.68-14.59 29.37-36.5 44.06-46.74" stroke="#FFDFA9" stroke-opacity=".6" stroke-width="7"/>
      <path d="M1920 1465c60.51 0 122.46-13.62 174.95-42.87 31.86-17.75 63.99-40.71 89.96-67.97 33.13-33.03 52.85-74.11 67.56-115.6 13.37-37.7 20.2-77.69 22.38-117.82 1.61-14.59 28.09-36.5 42.15-46.74" stroke="#55B1EB" stroke-width="8"/>
      <path d="M1920 1465c60.51 0 122.46-13.62 174.95-42.87 31.86-17.75 63.99-40.71 89.96-67.97 33.13-33.03 52.85-74.11 67.56-115.6 13.37-37.7 20.2-77.69 22.38-117.82 1.61-14.59 28.09-36.5 42.15-46.74" stroke="#FFDFA9" stroke-opacity=".8" stroke-width="8"/>
    </g>
  </g>
  <defs>
    <clipPath id="clip0">
      <path d="M0 0h1920v2160H0V0z" fill="#fff"/>
    </clipPath>
    <clipPath id="clip1">
      <path d="M3840 0H1920v2160h1920V0z" fill="#fff"/>
    </clipPath>
  </defs>
</svg>
