<svg width="1050" height="650" xmlns="http://www.w3.org/2000/svg" xmlns:xlink="http://www.w3.org/1999/xlink"><path fill="#FFF" d="M0 0h1050v650H0z"/><defs><path id="d" stroke-width=".222" stroke="currentColor" d="M-1-1h2v2h-2z"/><path id="b" stroke-width=".222" stroke="currentColor" d="M0-1.33l-1.33 2h2.66z"/><path id="f" stroke-width=".222" stroke="currentColor" d="M0 1.33L1.265.411.782-1.067l-1.564-.009-.483 1.487z"/><use xlink:href="#b" id="c" stroke="currentColor" transform="rotate(180)"/><use xlink:href="#d" id="e" stroke="currentColor" transform="rotate(45)"/><circle id="a" stroke-width=".222" stroke="currentColor" cx="0" cy="0" r="1"/></defs><path fill="#C6C7C7" d="M348.52 177.55l-3.37 4.23-5.69-11.45 12.43 3-3.37 4.22z" shape-rendering="crispEdges"/><path stroke="#C6C7C7" d="M348.52 177.55l-3.37 4.23-5.69-11.45 12.43 3-3.37 4.22zM522.9 316.61L348.52 177.55"/><path fill="#C6C7C7" d="M522.9 93.59h-5.4L522.9 82l5.4 11.59h-5.4z" shape-rendering="crispEdges"/><path stroke="#C6C7C7" d="M522.9 93.59h-5.4L522.9 82l5.4 11.59h-5.4zM522.9 316.61V93.59"/><path fill="#C6C7C7" d="M697.27 177.55l-3.37-4.22 12.43-3-5.69 11.45-3.37-4.23z" shape-rendering="crispEdges"/><path stroke="#C6C7C7" d="M697.27 177.55l-3.37-4.22 12.43-3-5.69 11.45-3.37-4.23zM522.9 316.61l174.37-139.06"/><path fill="#C6C7C7" d="M740.33 366.25l1.21-5.27 10.09 7.84-12.5 2.69 1.2-5.26z" shape-rendering="crispEdges"/><path stroke="#C6C7C7" d="M740.33 366.25l1.21-5.27 10.09 7.84-12.5 2.69 1.2-5.26zM522.9 316.61l217.43 49.64"/><path fill="#C6C7C7" d="M619.67 517.56l4.87-2.34.15 12.78-9.89-8.09 4.87-2.35z" shape-rendering="crispEdges"/><path stroke="#C6C7C7" d="M619.67 517.56l4.87-2.34.15 12.78-9.89-8.09 4.87-2.35zM522.9 316.61l96.77 200.95"/><path fill="#C6C7C7" d="M426.12 517.56l4.87 2.35-9.89 8.09.15-12.78 4.87 2.34z" shape-rendering="crispEdges"/><path stroke="#C6C7C7" d="M426.12 517.56l4.87 2.35-9.89 8.09.15-12.78 4.87 2.34zM522.9 316.61l-96.78 200.95"/><path fill="#C6C7C7" d="M305.46 366.25l1.2 5.26-12.5-2.69 10.09-7.84 1.21 5.27z" shape-rendering="crispEdges"/><path stroke="#C6C7C7" d="M305.46 366.25l1.2 5.26-12.5-2.69 10.09-7.84 1.21 5.27zM522.9 316.61l-217.44 49.64"/><g><g fill="#383A42" color="#000" stroke="none" stroke-width="2" font-family="Arial" font-size="12" text-anchor="middle"><text transform="translate(536.19 64.57)"><tspan>Fine-grained control</tspan></text><text transform="translate(744.33 160.93)"><tspan>Initial ease of use</tspan></text><text transform="translate(785.72 377.47)"><tspan>Syntax simplicity</tspan></text><text transform="translate(629.2 551.12)"><tspan>Editor Support</tspan></text><text transform="translate(392.63 551.12)"><tspan>Integrations</tspan></text><text transform="translate(254.15 377.47)"><tspan>Ease-of-referencing</tspan></text><text transform="translate(318.04 160.93)"><tspan>Versatility</tspan></text><text transform="translate(536.19 64.57)"><tspan>Fine-grained control</tspan></text></g></g><g><text transform="translate(160.6 635.9)" stroke="none" fill="#383A42" font-family="Arial" font-size="12" text-anchor="end" color="#000" stroke-width="2"><tspan>Word</tspan></text><g fill="none" color="#000" stroke="currentColor" stroke-width="2"><path fill="#E45649" fill-opacity=".2" d="M168.99 636.5h42.56v-9h-42.56z" stroke="none" shape-rendering="crispEdges"/><path stroke="#E45649" d="M168.99 636.5h42.56v-9h-42.56v9z"/></g><g fill="none" color="#000" stroke="currentColor" stroke-width="2"><path fill="#E45649" fill-opacity=".2" d="M522.9 209.97l166.75-26.34 41.19 180.45-161.67 48.62-115.68 48.04-34.57-120.39 20.6-90.23 83.38-40.15z" stroke="none" shape-rendering="crispEdges"/><path stroke="#E45649" d="M522.9 209.97l166.75-26.34 41.19 180.45-161.67 48.62-115.68 48.04-34.57-120.39 20.6-90.23 83.38-40.15"/></g></g><g><text transform="translate(362.57 635.9)" stroke="none" fill="#383A42" font-family="Arial" font-size="12" text-anchor="end" color="#000" stroke-width="2"><tspan>LaTeX</tspan></text><g fill="none" color="#000" stroke="currentColor" stroke-width="2"><path fill="#4078F2" fill-opacity=".2" d="M370.96 636.5h42.56v-9h-42.56z" stroke="none" shape-rendering="crispEdges"/><path stroke="#4078F2" d="M370.96 636.5h42.56v-9h-42.56v9z"/></g><g fill="none" color="#000" stroke="currentColor" stroke-width="2"><path fill="#4078F2" fill-opacity=".2" d="M522.9 103.33l41.68 180.04 10.3 45.11 17.42 132.26-115.68-48.04-161.67-48.62 82.88-147.2L522.9 103.33z" stroke="none" shape-rendering="crispEdges"/><path stroke="#4078F2" d="M522.9 103.33l41.68 180.04 10.3 45.11 17.42 132.26-115.68-48.04-161.67-48.62 82.88-147.2L522.9 103.33"/></g></g><g><text transform="translate(564.54 635.9)" stroke="none" fill="#383A42" font-family="Arial" font-size="12" text-anchor="end" color="#000" stroke-width="2"><tspan>Org Mode</tspan></text><g fill="none" color="#000" stroke="currentColor" stroke-width="2"><path fill="#50A14F" fill-opacity=".2" d="M572.93 636.5h42.56v-9h-42.56z" stroke="none" shape-rendering="crispEdges"/><path stroke="#50A14F" d="M572.93 636.5h42.56v-9h-42.56v9z"/></g><g fill="none" color="#000" stroke="currentColor" stroke-width="2"><path fill="#50A14F" fill-opacity=".2" d="M522.9 103.33l83.37 146.79 98.57 108.02-158.81 6.52-115.68 144.12-115.4-144.7 41.19-180.45 166.76-80.3z" stroke="none" shape-rendering="crispEdges"/><path stroke="#50A14F" d="M522.9 103.33l83.37 146.79 98.57 108.02-158.81 6.52-115.68 144.12-115.4-144.7 41.19-180.45 166.76-80.3"/></g></g><g><text transform="translate(766.51 635.9)" stroke="none" fill="#383A42" font-family="Arial" font-size="12" text-anchor="end" color="#000" stroke-width="2"><tspan>Markdown</tspan></text><g fill="none" color="#000" stroke="currentColor" stroke-width="2"><path fill="#A626A4" fill-opacity=".2" d="M774.9 636.5h42.56v-9H774.9z" stroke="none" shape-rendering="crispEdges"/><path stroke="#A626A4" d="M774.9 636.5h42.56v-9H774.9v9z"/></g><g fill="none" color="#000" stroke="currentColor" stroke-width="2"><path fill="#A626A4" fill-opacity=".2" d="M522.9 263.29l125.06-46.41 30.89 135.33-63.41 156.57-161.95-48.04-86.55-108.53 114.27-68.84 41.69-20.08z" stroke="none" shape-rendering="crispEdges"/><path stroke="#A626A4" d="M522.9 263.29l125.06-46.41 30.89 135.33-63.41 156.57-161.95-48.04-86.55-108.53 114.27-68.84 41.69-20.08"/></g></g><g><text transform="translate(968.48 635.9)" stroke="none" fill="#383A42" font-family="Arial" font-size="12" text-anchor="end" color="#000" stroke-width="2"><tspan>Markdown + Pandoc</tspan></text><g fill="none" color="#000" stroke="currentColor" stroke-width="2"><path fill="#DA8548" fill-opacity=".2" d="M976.87 636.5h42.56v-9h-42.56z" stroke="none" shape-rendering="crispEdges"/><path stroke="#DA8548" d="M976.87 636.5h42.56v-9h-42.56v9z"/></g><g fill="none" color="#000" stroke="currentColor" stroke-width="2"><path fill="#DA8548" fill-opacity=".2" d="M522.9 183.31l104.22 50.19 25.74 112.78-60.56 114.46H453.49l-86.55-108.53 72.58-102.09 83.38-66.81z" stroke="none" shape-rendering="crispEdges"/><path stroke="#DA8548" d="M522.9 183.31l104.22 50.19 25.74 112.78-60.56 114.46H453.49l-86.55-108.53 72.58-102.09 83.38-66.81"/></g></g><g><path stroke="#C6C7C7" stroke-dasharray="1.2,2.0" d="M522.9 103.33l166.75 80.3 41.19 180.45-115.4 144.7H430.35l-115.4-144.7 41.19-180.45 166.76-80.3m0 106.64l83.37 40.15 20.6 90.23-57.7 72.35h-92.55l-57.7-72.35 20.6-90.23 83.38-40.15" fill="none" color="#FAFAFA" stroke-width=".5"/></g><g><g fill="#C6C7C7" color="#000" stroke="none" stroke-width="2" font-family="Arial" font-size="8" text-anchor="middle"><text transform="translate(544.22 105.93)"><tspan>4</tspan></text><text transform="translate(544.22 105.93)"><tspan>4</tspan></text><text transform="translate(544.22 105.93)"><tspan>4</tspan></text><text transform="translate(544.22 105.93)"><tspan>4</tspan></text><text transform="translate(544.22 105.93)"><tspan>4</tspan></text><text transform="translate(544.22 105.93)"><tspan>4</tspan></text><text transform="translate(544.22 105.93)"><tspan>4</tspan></text><text transform="translate(544.22 212.57)"><tspan>2</tspan></text><text transform="translate(544.22 212.57)"><tspan>2</tspan></text><text transform="translate(544.22 212.57)"><tspan>2</tspan></text><text transform="translate(544.22 212.57)"><tspan>2</tspan></text><text transform="translate(544.22 212.57)"><tspan>2</tspan></text><text transform="translate(544.22 212.57)"><tspan>2</tspan></text><text transform="translate(544.22 212.57)"><tspan>2</tspan></text></g></g></svg>
