<svg width="1050" height="650" xmlns="http://www.w3.org/2000/svg" xmlns:xlink="http://www.w3.org/1999/xlink"><path fill="#FFF" d="M0 0h1050v650H0z"/><defs><path id="d" stroke-width=".222" stroke="currentColor" d="M-1-1h2v2h-2z"/><path id="b" stroke-width=".222" stroke="currentColor" d="M0-1.33l-1.33 2h2.66z"/><path id="f" stroke-width=".222" stroke="currentColor" d="M0 1.33L1.265.411.782-1.067l-1.564-.009-.483 1.487z"/><use xlink:href="#b" id="c" stroke="currentColor" transform="rotate(180)"/><use xlink:href="#d" id="e" stroke="currentColor" transform="rotate(45)"/><circle id="a" stroke-width=".222" stroke="currentColor" cx="0" cy="0" r="1"/></defs><path fill="#C6C7C7" d="M329.74 205.1l-2.7 4.68-7.33-10.47 12.74 1.11-2.71 4.68z" shape-rendering="crispEdges"/><path stroke="#C6C7C7" d="M329.74 205.1l-2.7 4.68-7.33-10.47 12.74 1.11-2.71 4.68zM522.9 316.61L329.74 205.1"/><path fill="#C6C7C7" d="M522.9 93.59h-5.4L522.9 82l5.4 11.59h-5.4z" shape-rendering="crispEdges"/><path stroke="#C6C7C7" d="M522.9 93.59h-5.4L522.9 82l5.4 11.59h-5.4zM522.9 316.61V93.59"/><path fill="#C6C7C7" d="M716.05 205.1l-2.71-4.68 12.74-1.11-7.33 10.47-2.7-4.68z" shape-rendering="crispEdges"/><path stroke="#C6C7C7" d="M716.05 205.1l-2.71-4.68 12.74-1.11-7.33 10.47-2.7-4.68zM522.9 316.61L716.05 205.1"/><path fill="#C6C7C7" d="M716.05 428.13l2.7-4.68 7.33 10.47-12.74-1.11 2.71-4.68z" shape-rendering="crispEdges"/><path stroke="#C6C7C7" d="M716.05 428.13l2.7-4.68 7.33 10.47-12.74-1.11 2.71-4.68zM522.9 316.61l193.15 111.52"/><path fill="#C6C7C7" d="M522.9 539.64h5.4l-5.4 11.59-5.4-11.59h5.4z" shape-rendering="crispEdges"/><path stroke="#C6C7C7" d="M522.9 539.64h5.4l-5.4 11.59-5.4-11.59h5.4zM522.9 316.61v223.03"/><path fill="#C6C7C7" d="M329.74 428.13l2.71 4.68-12.74 1.11 7.33-10.47 2.7 4.68z" shape-rendering="crispEdges"/><path stroke="#C6C7C7" d="M329.74 428.13l2.71 4.68-12.74 1.11 7.33-10.47 2.7 4.68zM522.9 316.61L329.74 428.13"/><g><g fill="#383A42" color="#000" stroke="none" stroke-width="2" font-family="Arial" font-size="12" text-anchor="middle"><text transform="translate(533.56 64.57)"><tspan>Extensibility</tspan></text><text transform="translate(765.88 192.54)"><tspan>Ecosystem</tspan></text><text transform="translate(755.22 448.49)"><tspan>Ease of Use</tspan></text><text transform="translate(512.23 576.46)"><tspan>Comfort</tspan></text><text transform="translate(279.91 448.49)"><tspan>Completion</tspan></text><text transform="translate(290.57 192.54)"><tspan>Performance</tspan></text><text transform="translate(533.56 64.57)"><tspan>Extensibility</tspan></text></g></g><g><text transform="translate(236.11 635.9)" stroke="none" fill="#383A42" font-family="Arial" font-size="12" text-anchor="end" color="#000" stroke-width="2"><tspan>IDLE</tspan></text><g fill="none" color="#000" stroke="currentColor" stroke-width="2"><path fill="#E45649" fill-opacity=".2" d="M244.5 636.5h42.56v-9H244.5z" stroke="none" shape-rendering="crispEdges"/><path stroke="#E45649" d="M244.5 636.5h42.56v-9H244.5v9z"/></g><g fill="none" color="#000" stroke="currentColor" stroke-width="2"><path fill="#E45649" fill-opacity=".2" d="M522.9 263.29l46.17 26.66 92.36 106.65-138.53-26.66-46.18-26.66-46.18-79.99h92.36z" stroke="none" shape-rendering="crispEdges"/><path stroke="#E45649" d="M522.9 263.29l46.17 26.66 92.36 106.65-138.53-26.66-46.18-26.66-46.18-79.99h92.36"/></g></g><g><text transform="translate(387.74 635.9)" stroke="none" fill="#383A42" font-family="Arial" font-size="12" text-anchor="end" color="#000" stroke-width="2"><tspan>VSCode</tspan></text><g fill="none" color="#000" stroke="currentColor" stroke-width="2"><path fill="#4078F2" fill-opacity=".2" d="M396.13 636.5h42.56v-9h-42.56z" stroke="none" shape-rendering="crispEdges"/><path stroke="#4078F2" d="M396.13 636.5h42.56v-9h-42.56v9z"/></g><g fill="none" color="#000" stroke="currentColor" stroke-width="2"><path fill="#4078F2" fill-opacity=".2" d="M522.9 156.65l138.53 79.98 46.18 186.63-184.71 79.98-184.72-79.98 46.18-186.63 138.54-79.98z" stroke="none" shape-rendering="crispEdges"/><path stroke="#4078F2" d="M522.9 156.65l138.53 79.98 46.18 186.63-184.71 79.98-184.72-79.98 46.18-186.63 138.54-79.98"/></g></g><g><text transform="translate(539.37 635.9)" stroke="none" fill="#383A42" font-family="Arial" font-size="12" text-anchor="end" color="#000" stroke-width="2"><tspan>Brackets</tspan></text><g fill="none" color="#000" stroke="currentColor" stroke-width="2"><path fill="#50A14F" fill-opacity=".2" d="M547.76 636.5h42.56v-9h-42.56z" stroke="none" shape-rendering="crispEdges"/><path stroke="#50A14F" d="M547.76 636.5h42.56v-9h-42.56v9z"/></g><g fill="none" color="#000" stroke="currentColor" stroke-width="2"><path fill="#50A14F" fill-opacity=".2" d="M522.9 183.31l92.35 79.98 46.18 133.31-138.53 79.98-115.45-93.31 23.09-119.98 92.36-79.98z" stroke="none" shape-rendering="crispEdges"/><path stroke="#50A14F" d="M522.9 183.31l92.35 79.98 46.18 133.31-138.53 79.98-115.45-93.31 23.09-119.98 92.36-79.98"/></g></g><g><text transform="translate(691 635.9)" stroke="none" fill="#383A42" font-family="Arial" font-size="12" text-anchor="end" color="#000" stroke-width="2"><tspan>Emacs</tspan></text><g fill="none" color="#000" stroke="currentColor" stroke-width="2"><path fill="#A626A4" fill-opacity=".2" d="M699.39 636.5h42.56v-9h-42.56z" stroke="none" shape-rendering="crispEdges"/><path stroke="#A626A4" d="M699.39 636.5h42.56v-9h-42.56v9z"/></g><g fill="none" color="#000" stroke="currentColor" stroke-width="2"><path fill="#A626A4" fill-opacity=".2" d="M522.9 103.33l184.71 106.64-92.36 159.97L522.9 529.9 361.27 409.93l23.09-173.3 138.54-133.3z" stroke="none" shape-rendering="crispEdges"/><path stroke="#A626A4" d="M522.9 103.33l184.71 106.64-92.36 159.97L522.9 529.9 361.27 409.93l23.09-173.3 138.54-133.3"/></g></g><g><text transform="translate(842.63 635.9)" stroke="none" fill="#383A42" font-family="Arial" font-size="12" text-anchor="end" color="#000" stroke-width="2"><tspan>Komodo Edit</tspan></text><g fill="none" color="#000" stroke="currentColor" stroke-width="2"><path fill="#DA8548" fill-opacity=".2" d="M851.02 636.5h42.56v-9h-42.56z" stroke="none" shape-rendering="crispEdges"/><path stroke="#DA8548" d="M851.02 636.5h42.56v-9h-42.56v9z"/></g><g fill="none" color="#000" stroke="currentColor" stroke-width="2"><path fill="#DA8548" fill-opacity=".2" d="M522.9 209.97l46.17 79.98 92.36 106.65-138.53 26.66-92.36-53.32V263.29l92.36-53.32z" stroke="none" shape-rendering="crispEdges"/><path stroke="#DA8548" d="M522.9 209.97l46.17 79.98 92.36 106.65-138.53 26.66-92.36-53.32V263.29l92.36-53.32"/></g></g><g><path stroke="#C6C7C7" stroke-dasharray="1.2,2.0" d="M522.9 103.33l184.71 106.64v213.29L522.9 529.9 338.18 423.26V209.97L522.9 103.33m0 53.32l138.53 79.98V396.6L522.9 476.58 384.36 396.6V236.63l138.54-79.98m0 53.32l92.35 53.32v106.65l-92.35 53.32-92.36-53.32V263.29l92.36-53.32m0 53.32l46.17 26.66v53.33l-46.17 26.66-46.18-26.66v-53.33l46.18-26.66" fill="none" color="#FFF" stroke-width=".5"/></g><g><g fill="#C6C7C7" color="#000" stroke="none" stroke-width="2" font-family="Arial" font-size="8" text-anchor="middle"><text transform="translate(544.22 105.93)"><tspan>4</tspan></text><text transform="translate(544.22 105.93)"><tspan>4</tspan></text><text transform="translate(544.22 105.93)"><tspan>4</tspan></text><text transform="translate(544.22 105.93)"><tspan>4</tspan></text><text transform="translate(544.22 105.93)"><tspan>4</tspan></text><text transform="translate(544.22 105.93)"><tspan>4</tspan></text><text transform="translate(544.22 159.25)"><tspan>3</tspan></text><text transform="translate(544.22 159.25)"><tspan>3</tspan></text><text transform="translate(544.22 159.25)"><tspan>3</tspan></text><text transform="translate(544.22 159.25)"><tspan>3</tspan></text><text transform="translate(544.22 159.25)"><tspan>3</tspan></text><text transform="translate(544.22 159.25)"><tspan>3</tspan></text><text transform="translate(544.22 212.57)"><tspan>2</tspan></text><text transform="translate(544.22 212.57)"><tspan>2</tspan></text><text transform="translate(544.22 212.57)"><tspan>2</tspan></text><text transform="translate(544.22 212.57)"><tspan>2</tspan></text><text transform="translate(544.22 212.57)"><tspan>2</tspan></text><text transform="translate(544.22 212.57)"><tspan>2</tspan></text><text transform="translate(544.22 265.89)"><tspan>1</tspan></text><text transform="translate(544.22 265.89)"><tspan>1</tspan></text><text transform="translate(544.22 265.89)"><tspan>1</tspan></text><text transform="translate(544.22 265.89)"><tspan>1</tspan></text><text transform="translate(544.22 265.89)"><tspan>1</tspan></text><text transform="translate(544.22 265.89)"><tspan>1</tspan></text></g></g></svg>
