<?xml version="1.0" encoding="UTF-8" standalone="no"?>
<!DOCTYPE svg PUBLIC "-//W3C//DTD SVG 1.1//EN"
 "http://www.w3.org/Graphics/SVG/1.1/DTD/svg11.dtd">
<!-- Generated by graphviz version 2.42.3 (0)
 -->
<!-- Title: %3 Pages: 1 -->
<svg width="374pt" height="260pt"
 viewBox="0.00 0.00 374.00 260.00" xmlns="http://www.w3.org/2000/svg" xmlns:xlink="http://www.w3.org/1999/xlink">
<g id="graph0" class="graph" transform="scale(1 1) rotate(0) translate(4 256)">
<title>%3</title>
<!-- file:*.svg -->
<g id="node1" class="node">
<title>file:*.svg</title>
<polygon fill="#efefef" stroke="transparent" stroke-width="2" points="94,-252 0,-252 0,-216 94,-216 94,-252"/>
<polyline fill="none" stroke="#2ec27e" stroke-width="2" points="0,-216 94,-216 "/>
<text text-anchor="middle" x="47" y="-230.3" font-family="overpass" font-size="14.00" fill="#000000">file:*.svg</text>
</g>
<!-- svg -->
<g id="node6" class="node">
<title>svg</title>
<polygon fill="#efefef" stroke="transparent" stroke-width="2" points="224,-252 130,-252 130,-216 224,-216 224,-252"/>
<polyline fill="none" stroke="#f5c211" stroke-width="2" points="130,-216 224,-216 "/>
<text text-anchor="middle" x="177" y="-230.3" font-family="overpass" font-size="14.00" fill="#000000">svg</text>
</g>
<!-- file:*.svg&#45;&gt;svg -->
<g id="edge1" class="edge">
<title>file:*.svg&#45;&gt;svg</title>
<path fill="none" stroke="#aaaaaa" stroke-width="1.2" d="M94.21,-234C102.46,-234 111.13,-234 119.63,-234"/>
<polygon fill="#aaaaaa" stroke="#aaaaaa" stroke-width="1.2" points="119.86,-237.5 129.86,-234 119.86,-230.5 119.86,-237.5"/>
</g>
<!-- file:*.jpeg -->
<g id="node2" class="node">
<title>file:*.jpeg</title>
<polygon fill="#efefef" stroke="transparent" stroke-width="2" points="94,-198 0,-198 0,-162 94,-162 94,-198"/>
<polyline fill="none" stroke="#2ec27e" stroke-width="2" points="0,-162 94,-162 "/>
<text text-anchor="middle" x="47" y="-176.3" font-family="overpass" font-size="14.00" fill="#000000">file:*.jpeg</text>
</g>
<!-- image -->
<g id="node7" class="node">
<title>image</title>
<polygon fill="#efefef" stroke="transparent" stroke-width="2" points="224,-144 130,-144 130,-108 224,-108 224,-144"/>
<polyline fill="none" stroke="#f5c211" stroke-width="2" points="130,-108 224,-108 "/>
<text text-anchor="middle" x="177" y="-122.3" font-family="overpass" font-size="14.00" fill="#000000">image</text>
</g>
<!-- file:*.jpeg&#45;&gt;image -->
<g id="edge3" class="edge">
<title>file:*.jpeg&#45;&gt;image</title>
<path fill="none" stroke="#aaaaaa" stroke-width="1.2" d="M90.98,-161.87C101.43,-157.46 112.72,-152.7 123.55,-148.13"/>
<polygon fill="#aaaaaa" stroke="#aaaaaa" stroke-width="1.2" points="125.06,-151.29 132.92,-144.18 122.34,-144.84 125.06,-151.29"/>
</g>
<!-- file:*.png -->
<g id="node3" class="node">
<title>file:*.png</title>
<polygon fill="#efefef" stroke="transparent" stroke-width="2" points="94,-144 0,-144 0,-108 94,-108 94,-144"/>
<polyline fill="none" stroke="#2ec27e" stroke-width="2" points="0,-108 94,-108 "/>
<text text-anchor="middle" x="47" y="-122.3" font-family="overpass" font-size="14.00" fill="#000000">file:*.png</text>
</g>
<!-- file:*.png&#45;&gt;image -->
<g id="edge5" class="edge">
<title>file:*.png&#45;&gt;image</title>
<path fill="none" stroke="#aaaaaa" stroke-width="1.2" d="M94.21,-126C102.46,-126 111.13,-126 119.63,-126"/>
<polygon fill="#aaaaaa" stroke="#aaaaaa" stroke-width="1.2" points="119.86,-129.5 129.86,-126 119.86,-122.5 119.86,-129.5"/>
</g>
<!-- #+caption -->
<g id="node4" class="node">
<title>#+caption</title>
<polygon fill="#efefef" stroke="transparent" stroke-width="2" points="94,-36 0,-36 0,0 94,0 94,-36"/>
<polyline fill="none" stroke="#2ec27e" stroke-width="2" points="0,0 94,0 "/>
<text text-anchor="middle" x="47" y="-14.3" font-family="overpass" font-size="14.00" fill="#000000">#+caption</text>
</g>
<!-- caption -->
<g id="node8" class="node">
<title>caption</title>
<polygon fill="#efefef" stroke="transparent" stroke-width="2" points="224,-63 130,-63 130,-27 224,-27 224,-63"/>
<polyline fill="none" stroke="#f5c211" stroke-width="2" points="130,-27 224,-27 "/>
<text text-anchor="middle" x="177" y="-41.3" font-family="overpass" font-size="14.00" fill="#000000">caption</text>
</g>
<!-- #+caption&#45;&gt;caption -->
<g id="edge7" class="edge">
<title>#+caption&#45;&gt;caption</title>
<path fill="none" stroke="#aaaaaa" stroke-width="1.2" d="M94.21,-27.75C102.55,-29.51 111.32,-31.36 119.91,-33.17"/>
<polygon fill="#aaaaaa" stroke="#aaaaaa" stroke-width="1.2" points="119.35,-36.63 129.86,-35.27 120.79,-29.78 119.35,-36.63"/>
</g>
<!-- xkcd:* -->
<g id="node5" class="node">
<title>xkcd:*</title>
<polygon fill="#efefef" stroke="transparent" stroke-width="2" points="94,-90 0,-90 0,-54 94,-54 94,-90"/>
<polyline fill="none" stroke="#2ec27e" stroke-width="2" points="0,-54 94,-54 "/>
<text text-anchor="middle" x="47" y="-68.3" font-family="overpass" font-size="14.00" fill="#000000">xkcd:*</text>
</g>
<!-- xkcd:*&#45;&gt;image -->
<g id="edge9" class="edge">
<title>xkcd:*&#45;&gt;image</title>
<path fill="none" stroke="#aaaaaa" stroke-width="1.2" d="M90.98,-90.13C101.43,-94.54 112.72,-99.3 123.55,-103.87"/>
<polygon fill="#aaaaaa" stroke="#aaaaaa" stroke-width="1.2" points="122.34,-107.16 132.92,-107.82 125.06,-100.71 122.34,-107.16"/>
</g>
<!-- xkcd:*&#45;&gt;caption -->
<g id="edge10" class="edge">
<title>xkcd:*&#45;&gt;caption</title>
<path fill="none" stroke="#aaaaaa" stroke-width="1.2" d="M94.21,-62.25C102.55,-60.49 111.32,-58.64 119.91,-56.83"/>
<polygon fill="#aaaaaa" stroke="#aaaaaa" stroke-width="1.2" points="120.79,-60.22 129.86,-54.73 119.35,-53.37 120.79,-60.22"/>
</g>
<!-- (TeX) svg -->
<g id="node9" class="node">
<title>(TeX) svg</title>
<polygon fill="#efefef" stroke="transparent" stroke-width="2" points="360,-252 266,-252 266,-216 360,-216 360,-252"/>
<polyline fill="none" stroke="#813d9c" stroke-width="2" points="266,-216 360,-216 "/>
<text text-anchor="middle" x="313" y="-230.3" font-family="overpass" font-size="14.00" fill="#000000">(TeX) svg</text>
</g>
<!-- svg&#45;&gt;(TeX) svg -->
<g id="edge2" class="edge">
<title>svg&#45;&gt;(TeX) svg</title>
<path fill="none" stroke="#aaaaaa" stroke-width="1.2" d="M224.12,-234C234.22,-234 245.03,-234 255.49,-234"/>
<polygon fill="#aaaaaa" stroke="#aaaaaa" stroke-width="1.2" points="255.8,-237.5 265.8,-234 255.8,-230.5 255.8,-237.5"/>
</g>
<!-- (TeX) graphicx -->
<g id="node10" class="node">
<title>(TeX) graphicx</title>
<polygon fill="#efefef" stroke="transparent" stroke-width="2" points="366,-144 260,-144 260,-108 366,-108 366,-144"/>
<polyline fill="none" stroke="#813d9c" stroke-width="2" points="260,-108 366,-108 "/>
<text text-anchor="middle" x="313" y="-122.3" font-family="overpass" font-size="14.00" fill="#000000">(TeX) graphicx</text>
</g>
<!-- image&#45;&gt;(TeX) graphicx -->
<g id="edge4" class="edge">
<title>image&#45;&gt;(TeX) graphicx</title>
<path fill="none" stroke="#aaaaaa" stroke-width="1.2" d="M224.12,-126C232.39,-126 241.13,-126 249.77,-126"/>
<polygon fill="#aaaaaa" stroke="#aaaaaa" stroke-width="1.2" points="249.82,-129.5 259.82,-126 249.82,-122.5 249.82,-129.5"/>
</g>
<!-- (TeX) caption -->
<g id="node11" class="node">
<title>(TeX) caption</title>
<polygon fill="#efefef" stroke="transparent" stroke-width="2" points="362,-63 264,-63 264,-27 362,-27 362,-63"/>
<polyline fill="none" stroke="#813d9c" stroke-width="2" points="264,-27 362,-27 "/>
<text text-anchor="middle" x="313" y="-41.3" font-family="overpass" font-size="14.00" fill="#000000">(TeX) caption</text>
</g>
<!-- caption&#45;&gt;(TeX) caption -->
<g id="edge8" class="edge">
<title>caption&#45;&gt;(TeX) caption</title>
<path fill="none" stroke="#aaaaaa" stroke-width="1.2" d="M224.12,-45C233.67,-45 243.85,-45 253.77,-45"/>
<polygon fill="#aaaaaa" stroke="#aaaaaa" stroke-width="1.2" points="253.97,-48.5 263.97,-45 253.97,-41.5 253.97,-48.5"/>
</g>
<!-- (TeX) svg&#45;&gt;(TeX) graphicx -->
<g id="edge6" class="edge">
<title>(TeX) svg:s&#45;&gt;(TeX) graphicx:n</title>
<path fill="none" stroke="#aaaaaa" stroke-width="1.2" d="M313,-154.02C313,-178.12 313,-187.62 313,-216"/>
<polygon fill="#aaaaaa" stroke="#aaaaaa" stroke-width="1.2" points="316.5,-154 313,-144 309.5,-154 316.5,-154"/>
</g>
</g>
</svg>
