<?xml version="1.0" encoding="UTF-8" standalone="no"?>
<!DOCTYPE svg PUBLIC "-//W3C//DTD SVG 1.1//EN"
 "http://www.w3.org/Graphics/SVG/1.1/DTD/svg11.dtd">
<!-- Generated by graphviz version 2.42.3 (0)
 -->
<!-- Title: %3 Pages: 1 -->
<svg width="365pt" height="152pt"
 viewBox="0.00 0.00 365.00 152.00" xmlns="http://www.w3.org/2000/svg" xmlns:xlink="http://www.w3.org/1999/xlink">
<g id="graph0" class="graph" transform="scale(1 1) rotate(0) translate(4 148)">
<title>%3</title>
<!-- Checkboxes -->
<g id="node1" class="node">
<title>Checkboxes</title>
<polygon fill="#efefef" stroke="transparent" stroke-width="2" points="95.5,-90 1.5,-90 1.5,-54 95.5,-54 95.5,-90"/>
<polyline fill="none" stroke="#2ec27e" stroke-width="2" points="1.5,-54 95.5,-54 "/>
<text text-anchor="middle" x="48.5" y="-68.3" font-family="overpass" font-size="14.00" fill="#000000">Checkboxes</text>
</g>
<!-- Dingbats -->
<g id="node4" class="node">
<title>Dingbats</title>
<polygon fill="#efefef" stroke="transparent" stroke-width="2" points="227,-63 133,-63 133,-27 227,-27 227,-63"/>
<polyline fill="none" stroke="#f5c211" stroke-width="2" points="133,-27 227,-27 "/>
<text text-anchor="middle" x="180" y="-41.3" font-family="overpass" font-size="14.00" fill="#000000">Dingbats</text>
</g>
<!-- Checkboxes&#45;&gt;Dingbats -->
<g id="edge1" class="edge">
<title>Checkboxes&#45;&gt;Dingbats</title>
<path fill="none" stroke="#aaaaaa" stroke-width="1.2" d="M95.52,-62.4C107.59,-59.89 120.61,-57.17 132.69,-54.66"/>
</g>
<!-- Fancy blocks -->
<g id="node2" class="node">
<title>Fancy blocks</title>
<polygon fill="#efefef" stroke="transparent" stroke-width="2" points="97,-36 0,-36 0,0 97,0 97,-36"/>
<polyline fill="none" stroke="#2ec27e" stroke-width="2" points="0,0 97,0 "/>
<text text-anchor="middle" x="48.5" y="-14.3" font-family="overpass" font-size="14.00" fill="#000000">Fancy blocks</text>
</g>
<!-- Fancy blocks&#45;&gt;Dingbats -->
<g id="edge3" class="edge">
<title>Fancy blocks&#45;&gt;Dingbats</title>
<path fill="none" stroke="#aaaaaa" stroke-width="1.2" d="M97.35,-27.98C108.88,-30.38 121.18,-32.94 132.64,-35.33"/>
</g>
<!-- Images -->
<g id="node3" class="node">
<title>Images</title>
<polygon fill="#efefef" stroke="transparent" stroke-width="2" points="95.5,-144 1.5,-144 1.5,-108 95.5,-108 95.5,-144"/>
<polyline fill="none" stroke="#2ec27e" stroke-width="2" points="1.5,-108 95.5,-108 "/>
<text text-anchor="middle" x="48.5" y="-122.3" font-family="overpass" font-size="14.00" fill="#000000">Images</text>
</g>
<!-- Graphics -->
<g id="node5" class="node">
<title>Graphics</title>
<polygon fill="#efefef" stroke="transparent" stroke-width="2" points="227,-144 133,-144 133,-108 227,-108 227,-144"/>
<polyline fill="none" stroke="#f5c211" stroke-width="2" points="133,-108 227,-108 "/>
<text text-anchor="middle" x="180" y="-122.3" font-family="overpass" font-size="14.00" fill="#000000">Graphics</text>
</g>
<!-- Images&#45;&gt;Graphics -->
<g id="edge4" class="edge">
<title>Images&#45;&gt;Graphics</title>
<path fill="none" stroke="#aaaaaa" stroke-width="1.2" d="M95.52,-126C107.59,-126 120.61,-126 132.69,-126"/>
</g>
<!-- pifont -->
<g id="node6" class="node">
<title>pifont</title>
<polygon fill="#efefef" stroke="transparent" stroke-width="2" points="357,-63 263,-63 263,-27 357,-27 357,-63"/>
<polyline fill="none" stroke="#813d9c" stroke-width="2" points="263,-27 357,-27 "/>
<text text-anchor="middle" x="310" y="-41.3" font-family="overpass" font-size="14.00" fill="#000000">pifont</text>
</g>
<!-- Dingbats&#45;&gt;pifont -->
<g id="edge2" class="edge">
<title>Dingbats&#45;&gt;pifont</title>
<path fill="none" stroke="#aaaaaa" stroke-width="1.2" d="M227.21,-45C238.81,-45 251.26,-45 262.86,-45"/>
</g>
<!-- graphicx -->
<g id="node7" class="node">
<title>graphicx</title>
<polygon fill="#efefef" stroke="transparent" stroke-width="2" points="357,-144 263,-144 263,-108 357,-108 357,-144"/>
<polyline fill="none" stroke="#813d9c" stroke-width="2" points="263,-108 357,-108 "/>
<text text-anchor="middle" x="310" y="-122.3" font-family="overpass" font-size="14.00" fill="#000000">graphicx</text>
</g>
<!-- Graphics&#45;&gt;graphicx -->
<g id="edge5" class="edge">
<title>Graphics&#45;&gt;graphicx</title>
<path fill="none" stroke="#aaaaaa" stroke-width="1.2" d="M227.21,-126C238.81,-126 251.26,-126 262.86,-126"/>
</g>
</g>
</svg>
