<?xml version="1.0" encoding="utf-8"?>
<svg width="38%" height="$height" fill="none" version="1.1" viewBox="0 0 2838 1330" xmlns="http://www.w3.org/2000/svg">
  <g transform="translate(-501 -355)" clip-path="url(#d)">
    <path d="m1707.9 865.01 3.54 3.54zm-86.26 196.25 3.41 3.66zm298.39-289.26a304.76 304.76 0 0 0-215.67 89.48l7.08 7.07a294.73 294.73 0 0 1 208.59-86.55zm-215.67 89.48c-48.98 49.06-77.96 116.26-85.8 184.22l9.94 1.15c7.61-66.03 35.75-131.04 82.94-178.3zm-85.8 184.22a8.62 8.62 0 0 1-1.14 2.91c-0.77 1.39-1.89 3-3.31 4.76a106.17 106.17 0 0 1-10.58 11 202.73 202.73 0 0 1-17.26 14.24l5.55 8.33c1.77-1.18 10.27-7.64 18.49-15.22a117.9 117.9 0 0 0 11.59-12.08 45.14 45.14 0 0 0 4.27-6.18 18.46 18.46 0 0 0 2.33-6.61zm-32.29 32.91a9.2 9.2 0 0 0-1.67 1.38c-0.27 0.3-0.81 0.93-1.16 1.88a5.16 5.16 0 0 0 3.1 6.64c0.6 0.23 1.14 0.31 1.45 0.34 0.62 0.07 1.23 0.05 1.62 0.03 0.8-0.04 1.88-0.16 2.65-0.24 0.89-0.08 1.65-0.14 2.27-0.14v-10c-1.13 0-2.31 0.1-3.24 0.19-1.05 0.1-1.69 0.18-2.2 0.2-0.26 0.02-0.21 0 0 0.02a4.75 4.75 0 0 1 3.31 2.19c0.97 1.57 0.8 3.2 0.44 4.2-0.31 0.83-0.76 1.33-0.88 1.47-0.28 0.3-0.44 0.37-0.14 0.17zm8.26 9.89c1.19 0 2.18-0.38 2.65-0.58 0.59-0.24 1.15-0.55 1.66-0.85 1.01-0.6 2.15-1.39 3.31-2.26 2.35-1.76 5.19-4.1 8.05-6.56a550.45 550.45 0 0 0 14.85-13.33l-6.81-7.33a537.96 537.96 0 0 1-14.55 13.07 157.41 157.41 0 0 1-7.52 6.14 31.09 31.09 0 0 1-2.75 1.85l-0.1 0.05s0.09-0.04 0.25-0.08c0.14-0.04 0.49-0.12 0.96-0.12zm34-31.59v-10.63h-10v10.63zm-3.48 8.01a10.9 10.9 0 0 0 3.48-8.01h-10c0 0.29-0.11 0.52-0.29 0.68z" fill="$colour1" />
    <path d="m1707.9 865.01 3.54 3.54zm-86.26 196.25 3.41 3.66zm298.39-289.26a304.76 304.76 0 0 0-215.67 89.48l7.08 7.07a294.73 294.73 0 0 1 208.59-86.55zm-215.67 89.48c-48.98 49.06-77.96 116.26-85.8 184.22l9.94 1.15c7.61-66.03 35.75-131.04 82.94-178.3zm-85.8 184.22a8.62 8.62 0 0 1-1.14 2.91c-0.77 1.39-1.89 3-3.31 4.76a106.17 106.17 0 0 1-10.58 11 202.73 202.73 0 0 1-17.26 14.24l5.55 8.33c1.77-1.18 10.27-7.64 18.49-15.22a117.9 117.9 0 0 0 11.59-12.08 45.14 45.14 0 0 0 4.27-6.18 18.46 18.46 0 0 0 2.33-6.61zm-32.29 32.91a9.2 9.2 0 0 0-1.67 1.38c-0.27 0.3-0.81 0.93-1.16 1.88a5.16 5.16 0 0 0 3.1 6.64c0.6 0.23 1.14 0.31 1.45 0.34 0.62 0.07 1.23 0.05 1.62 0.03 0.8-0.04 1.88-0.16 2.65-0.24 0.89-0.08 1.65-0.14 2.27-0.14v-10c-1.13 0-2.31 0.1-3.24 0.19-1.05 0.1-1.69 0.18-2.2 0.2-0.26 0.02-0.21 0 0 0.02a4.75 4.75 0 0 1 3.31 2.19c0.97 1.57 0.8 3.2 0.44 4.2-0.31 0.83-0.76 1.33-0.88 1.47-0.28 0.3-0.44 0.37-0.14 0.17zm8.26 9.89c1.19 0 2.18-0.38 2.65-0.58 0.59-0.24 1.15-0.55 1.66-0.85 1.01-0.6 2.15-1.39 3.31-2.26 2.35-1.76 5.19-4.1 8.05-6.56a550.45 550.45 0 0 0 14.85-13.33l-6.81-7.33a537.96 537.96 0 0 1-14.55 13.07 157.41 157.41 0 0 1-7.52 6.14 31.09 31.09 0 0 1-2.75 1.85l-0.1 0.05s0.09-0.04 0.25-0.08c0.14-0.04 0.49-0.12 0.96-0.12zm34-31.59v-10.63h-10v10.63zm-3.48 8.01a10.9 10.9 0 0 0 3.48-8.01h-10c0 0.29-0.11 0.52-0.29 0.68z" fill="$colour2" />
    <path d="m1920 701c-101.58 0-199 39.98-270.82 111.15-71.83 71.17-110.18 165.85-141.18 204.85s-174.87 44.47 66 71.73c185.55 21 285.55 20.77 346 20.77" stroke="$colour1" stroke-width="8" />
    <path d="m1920 701c-101.58 0-199 39.98-270.82 111.15-71.83 71.17-110.18 165.85-141.18 204.85s-174.87 44.47 66 71.73c185.55 21 285.55 20.77 346 20.77" stroke="$colour2" stroke-opacity=".8" stroke-width="8" />
    <path d="m1920 673c-112.12 0-219.64 43.36-298.92 120.54-79.27 77.18-114.08 176.96-149.68 213.95s-201.35 56.17 64.5 85.74c204.8 22.77 317.38 22.77 384.1 22.77" stroke="$colour1" stroke-width="7" />
    <path d="m1920 673c-112.12 0-219.64 43.36-298.92 120.54-79.27 77.18-114.08 176.96-149.68 213.95s-201.35 56.17 64.5 85.74c204.8 22.77 317.38 22.77 384.1 22.77" stroke="$colour2" stroke-opacity=".6" stroke-width="7" />
    <mask id="f" x="623" y="1254" width="1298" height="436" maskUnits="userSpaceOnUse">
      <path d="m1920 1261c-176.81 0-348.03-2.28-510.62-6.56-1836.4 0 61.62 424.56 510.62 435.56z" fill="$colour3" />
    </mask>
    <g mask="url(#f)">
      <path d="m1920 1359.5a299.76 299.76 0 0 1-212.13-88.01 300.76 300.76 0 0 1-85.89-177.99c-1.31-11.4-22.98-28.5-34.48-36.5" stroke="$colour1" stroke-width="10" />
      <path d="m1920 1359.5a299.76 299.76 0 0 1-212.13-88.01 300.76 300.76 0 0 1-85.89-177.99c-1.31-11.4-22.98-28.5-34.48-36.5" stroke="$colour2" stroke-width="10" />
      <path d="m1920 1488c-63.26 0-128.01-13.62-182.88-42.87-33.3-17.75-66.89-40.71-94.04-67.97-34.64-33.03-55.24-74.11-70.63-115.6-13.97-37.7-21.11-77.69-23.39-117.82-1.68-14.59-29.37-36.5-44.06-46.74" stroke="$colour1" stroke-width="7" />
      <path d="m1920 1488c-63.26 0-128.01-13.62-182.88-42.87-33.3-17.75-66.89-40.71-94.04-67.97-34.64-33.03-55.24-74.11-70.63-115.6-13.97-37.7-21.11-77.69-23.39-117.82-1.68-14.59-29.37-36.5-44.06-46.74" stroke="$colour2" stroke-opacity=".6" stroke-width="7" />
      <path d="m1920 1465c-60.51 0-122.46-13.62-174.95-42.87-31.86-17.75-63.99-40.71-89.96-67.97-33.13-33.03-52.85-74.11-67.56-115.6-13.37-37.7-20.2-77.69-22.38-117.82-1.61-14.59-28.09-36.5-42.15-46.74" stroke="$colour1" stroke-width="8" />
      <path d="m1920 1465c-60.51 0-122.46-13.62-174.95-42.87-31.86-17.75-63.99-40.71-89.96-67.97-33.13-33.03-52.85-74.11-67.56-115.6-13.37-37.7-20.2-77.69-22.38-117.82-1.61-14.59-28.09-36.5-42.15-46.74" stroke="$colour2" stroke-opacity=".8" stroke-width="8" />
    </g>
  </g>
  <g transform="translate(-501 -355)" clip-path="url(#c)">
    <path d="m2132.1 865.01-3.54 3.54zm86.26 196.25-3.41 3.66zm-298.39-289.26a304.76 304.76 0 0 1 215.67 89.48l-7.08 7.07a294.73 294.73 0 0 0-208.59-86.55zm215.67 89.48c48.98 49.06 77.96 116.26 85.8 184.22l-9.94 1.15c-7.61-66.03-35.75-131.04-82.94-178.3zm85.8 184.22c0.06 0.52 0.34 1.47 1.14 2.91 0.77 1.39 1.89 3 3.31 4.76 2.84 3.53 6.62 7.36 10.58 11a202.73 202.73 0 0 0 17.26 14.24l-5.55 8.33c-1.77-1.18-10.27-7.64-18.49-15.22a117.9 117.9 0 0 1-11.59-12.08 45.14 45.14 0 0 1-4.27-6.18 18.46 18.46 0 0 1-2.33-6.61zm32.29 32.91c0.45 0.3 1.11 0.77 1.67 1.38 0.27 0.3 0.81 0.93 1.16 1.88a5.16 5.16 0 0 1-3.1 6.64c-0.6 0.23-1.14 0.31-1.45 0.34-0.62 0.07-1.23 0.05-1.62 0.03-0.8-0.04-1.88-0.16-2.65-0.24-0.89-0.08-1.65-0.14-2.27-0.14v-10c1.13 0 2.31 0.1 3.24 0.19 1.05 0.1 1.69 0.18 2.2 0.2 0.26 0.02 0.21 0 0 0.02a4.75 4.75 0 0 0-3.31 2.19 4.88 4.88 0 0 0-0.44 4.2c0.31 0.83 0.76 1.33 0.88 1.47 0.28 0.3 0.44 0.37 0.14 0.17zm-8.26 9.89a6.86 6.86 0 0 1-2.65-0.58c-0.59-0.24-1.15-0.55-1.66-0.85a38.61 38.61 0 0 1-3.31-2.26c-2.35-1.76-5.19-4.1-8.05-6.56a550.45 550.45 0 0 1-14.85-13.33l6.81-7.33c2.97 2.76 8.96 8.27 14.55 13.07 2.81 2.41 5.45 4.59 7.52 6.14a31.09 31.09 0 0 0 2.75 1.85l0.1 0.05s-0.09-0.04-0.25-0.08a3.65 3.65 0 0 0-0.96-0.12zm-34-31.59v-10.63h10v10.63zm3.48 8.01a10.9 10.9 0 0 1-3.48-8.01h10c0 0.29 0.11 0.52 0.29 0.68z" fill="$colour1" />
    <path d="m2132.1 865.01-3.54 3.54zm86.26 196.25-3.41 3.66zm-298.39-289.26a304.76 304.76 0 0 1 215.67 89.48l-7.08 7.07a294.73 294.73 0 0 0-208.59-86.55zm215.67 89.48c48.98 49.06 77.96 116.26 85.8 184.22l-9.94 1.15c-7.61-66.03-35.75-131.04-82.94-178.3zm85.8 184.22c0.06 0.52 0.34 1.47 1.14 2.91 0.77 1.39 1.89 3 3.31 4.76 2.84 3.53 6.62 7.36 10.58 11a202.73 202.73 0 0 0 17.26 14.24l-5.55 8.33c-1.77-1.18-10.27-7.64-18.49-15.22a117.9 117.9 0 0 1-11.59-12.08 45.14 45.14 0 0 1-4.27-6.18 18.46 18.46 0 0 1-2.33-6.61zm32.29 32.91c0.45 0.3 1.11 0.77 1.67 1.38 0.27 0.3 0.81 0.93 1.16 1.88a5.16 5.16 0 0 1-3.1 6.64c-0.6 0.23-1.14 0.31-1.45 0.34-0.62 0.07-1.23 0.05-1.62 0.03-0.8-0.04-1.88-0.16-2.65-0.24-0.89-0.08-1.65-0.14-2.27-0.14v-10c1.13 0 2.31 0.1 3.24 0.19 1.05 0.1 1.69 0.18 2.2 0.2 0.26 0.02 0.21 0 0 0.02a4.75 4.75 0 0 0-3.31 2.19 4.88 4.88 0 0 0-0.44 4.2c0.31 0.83 0.76 1.33 0.88 1.47 0.28 0.3 0.44 0.37 0.14 0.17zm-8.26 9.89a6.86 6.86 0 0 1-2.65-0.58c-0.59-0.24-1.15-0.55-1.66-0.85a38.61 38.61 0 0 1-3.31-2.26c-2.35-1.76-5.19-4.1-8.05-6.56a550.45 550.45 0 0 1-14.85-13.33l6.81-7.33c2.97 2.76 8.96 8.27 14.55 13.07 2.81 2.41 5.45 4.59 7.52 6.14a31.09 31.09 0 0 0 2.75 1.85l0.1 0.05s-0.09-0.04-0.25-0.08a3.65 3.65 0 0 0-0.96-0.12zm-34-31.59v-10.63h10v10.63zm3.48 8.01a10.9 10.9 0 0 1-3.48-8.01h10c0 0.29 0.11 0.52 0.29 0.68z" fill="$colour2" />
    <path d="m1920 701c101.58 0 199 39.98 270.82 111.15 71.83 71.17 110.18 165.85 141.18 204.85s174.87 44.47-66 71.73c-185.55 21-285.55 20.77-346 20.77" stroke="$colour1" stroke-width="8" />
    <path d="m1920 701c101.58 0 199 39.98 270.82 111.15 71.83 71.17 110.18 165.85 141.18 204.85s174.87 44.47-66 71.73c-185.55 21-285.55 20.77-346 20.77" stroke="$colour2" stroke-opacity=".8" stroke-width="8" />
    <path d="m1920 673c112.12 0 219.64 43.36 298.92 120.54 79.27 77.18 114.08 176.96 149.68 213.95s201.35 56.17-64.5 85.74c-204.8 22.77-317.38 22.77-384.1 22.77" stroke="$colour1" stroke-width="7" />
    <path d="m1920 673c112.12 0 219.64 43.36 298.92 120.54 79.27 77.18 114.08 176.96 149.68 213.95s201.35 56.17-64.5 85.74c-204.8 22.77-317.38 22.77-384.1 22.77" stroke="$colour2" stroke-opacity=".6" stroke-width="7" />
    <mask id="e" x="1919" y="1254" width="1298" height="436" maskUnits="userSpaceOnUse">
      <path d="m1920 1261c176.81 0 348.03-2.28 510.62-6.56 1836.4 0-61.62 424.56-510.62 435.56z" fill="$colour3" />
    </mask>
    <g mask="url(#e)">
      <path d="m1920 1359.5a299.76 299.76 0 0 0 212.13-88.01 300.76 300.76 0 0 0 85.89-177.99c1.31-11.4 22.98-28.5 34.48-36.5" stroke="$colour1" stroke-width="10" />
      <path d="m1920 1359.5a299.76 299.76 0 0 0 212.13-88.01 300.76 300.76 0 0 0 85.89-177.99c1.31-11.4 22.98-28.5 34.48-36.5" stroke="$colour2" stroke-width="10" />
      <path d="m1920 1488c63.26 0 128.01-13.62 182.88-42.87 33.31-17.75 66.89-40.71 94.04-67.97 34.64-33.03 55.24-74.11 70.63-115.6 13.97-37.7 21.11-77.69 23.39-117.82 1.68-14.59 29.37-36.5 44.06-46.74" stroke="$colour1" stroke-width="7" />
      <path d="m1920 1488c63.26 0 128.01-13.62 182.88-42.87 33.31-17.75 66.89-40.71 94.04-67.97 34.64-33.03 55.24-74.11 70.63-115.6 13.97-37.7 21.11-77.69 23.39-117.82 1.68-14.59 29.37-36.5 44.06-46.74" stroke="$colour2" stroke-opacity=".6" stroke-width="7" />
      <path d="m1920 1465c60.51 0 122.46-13.62 174.95-42.87 31.86-17.75 63.99-40.71 89.96-67.97 33.13-33.03 52.85-74.11 67.56-115.6 13.37-37.7 20.2-77.69 22.38-117.82 1.61-14.59 28.09-36.5 42.15-46.74" stroke="$colour1" stroke-width="8" />
      <path d="m1920 1465c60.51 0 122.46-13.62 174.95-42.87 31.86-17.75 63.99-40.71 89.96-67.97 33.13-33.03 52.85-74.11 67.56-115.6 13.37-37.7 20.2-77.69 22.38-117.82 1.61-14.59 28.09-36.5 42.15-46.74" stroke="$colour2" stroke-opacity=".8" stroke-width="8" />
    </g>
  </g>
  <defs>
    <clipPath id="d">
      <path d="m0 0h1920v2160h-1920z" fill="$colour4" />
    </clipPath>
    <clipPath id="c">
      <path d="m3840 0h-1920v2160h1920z" fill="$colour4" />
    </clipPath>
  </defs>
</svg>
