<?xml version="1.0" encoding="UTF-8" standalone="no"?>
<svg
   xml:space="preserve"
   width="86.483528"
   height="100"
   viewBox="0 0 86.483528 100"
   version="1.1"
   sodipodi:docname="cacomon-template.svg"
   inkscape:version="1.2.1 (9c6d41e410, 2022-07-14)"
   id="svg0"
   xmlns:inkscape="http://www.inkscape.org/namespaces/inkscape"
   xmlns:sodipodi="http://sodipodi.sourceforge.net/DTD/sodipodi-0.dtd"
   xmlns:xlink="http://www.w3.org/1999/xlink"
   xmlns="http://www.w3.org/2000/svg"
   xmlns:svg="http://www.w3.org/2000/svg"><sodipodi:namedview
     pagecolor="#ffffff"
     bordercolor="#999999"
     borderopacity="1"
     inkscape:showpageshadow="0"
     inkscape:pageopacity="0"
     inkscape:pagecheckerboard="0"
     inkscape:deskcolor="#d1d1d1"
     showgrid="false"
     inkscape:zoom="8.56"
     inkscape:cx="37.558411"
     inkscape:cy="50.058411"
     inkscape:window-width="2560"
     inkscape:window-height="1414"
     inkscape:window-x="2560"
     inkscape:window-y="0"
     inkscape:window-maximized="1"
     inkscape:current-layer="svg0"
     id="namedview2" /><defs
     id="defs15"><linearGradient
       id="b"><stop
         style="stop-color:#000;stop-opacity:1"
         offset="0"
         id="stop2" /><stop
         style="stop-color:#585858;stop-opacity:1"
         offset="1"
         id="stop4" /></linearGradient><linearGradient
       id="a"><stop
         style="stop-color:#000;stop-opacity:.8287037"
         offset="0"
         id="stop7" /><stop
         style="stop-color:#000;stop-opacity:0"
         offset="1"
         id="stop9" /></linearGradient><linearGradient
       xlink:href="#a"
       id="h"
       x1="759.81299"
       y1="664.48602"
       x2="818.69202"
       y2="728.97198"
       gradientUnits="userSpaceOnUse" /><linearGradient
       xlink:href="#a"
       id="j"
       gradientUnits="userSpaceOnUse"
       x1="759.81299"
       y1="664.48602"
       x2="818.69202"
       y2="728.97198" /><radialGradient
       xlink:href="#b"
       id="r"
       cx="880.90002"
       cy="507.79999"
       fx="880.90002"
       fy="507.79999"
       r="66.400002"
       gradientUnits="userSpaceOnUse" /></defs><path
     fill="#244e93"
     d="m 13.320361,40.653398 c -0.847,0 -1.723,-0.265996 -2.53,-0.767988 A 6.87,6.8698881 0 0 1 8.8603612,38.07444 c -2.096,-2.924953 -2.106,-6.694891 -1.92,-10.630827 a 0.504,0.50399179 0 0 1 0.355,-0.452993 c 0.05,-0.01 0.099,-0.02 0.138,-0.02 0.158,0 0.305,0.07 0.394,0.206996 0.994,1.357978 2.136,2.529959 3.3959998,3.474944 0.905,0.678989 1.742,1.150981 2.48,1.564974 1.349,0.757988 2.51,1.406977 3.22,2.922953 0.196,0.423993 0.787,1.692972 0.294,3.002951 -0.285,0.747987 -0.856,1.377977 -1.712,1.879969 a 4.45,4.4499275 0 0 1 -1.644,0.579991 c -0.177,0.04 -0.355,0.05 -0.542,0.05 z"
     id="path17"
     style="stroke-width:0.999992" /><path
     d="m 7.4333612,27.472612 c 1.29,1.761972 2.5699998,2.883953 3.4949998,3.582942 2.608,1.959968 4.557,2.165965 5.551,4.30193 0.207,0.452993 0.7,1.525975 0.286,2.617957 -0.365,0.954985 -1.24,1.486976 -1.506,1.633974 a 3.85,3.8499373 0 0 1 -1.457,0.511991 c -0.158,0.02 -0.325,0.03 -0.483,0.03 -1.594,0 -3.11,-1.053983 -4.0549998,-2.372961 -2.087,-2.883953 -1.998,-6.741891 -1.83,-10.305833 m 0,-0.983984 a 0.98,0.97998404 0 0 0 -0.984,0.934985 c -0.19,4.025935 -0.18,7.884872 2.006,10.935822 1.25,1.741972 3.0709998,2.785955 4.8529998,2.785955 0.206,0 0.413,-0.01 0.61,-0.04 a 5.026,5.0259181 0 0 0 1.83,-0.639989 c 0.956,-0.559991 1.605,-1.279979 1.93,-2.134965 0.571,-1.506976 -0.088,-2.923953 -0.315,-3.386945 -0.777,-1.652973 -1.998,-2.341962 -3.425,-3.139949 -0.729,-0.402994 -1.546,-0.865986 -2.432,-1.524975 -1.22,-0.915985 -2.3229998,-2.047967 -3.2869998,-3.376945 a 0.95,0.94998452 0 0 0 -0.788,-0.412994 z"
     id="path19"
     style="stroke-width:0.999992" /><path
     fill="#ffffff"
     d="m 7.4333612,27.472612 c -0.167,3.563942 -0.256,7.42188 1.831,10.315832 1.0429998,1.456977 2.7659998,2.579958 4.5379998,2.342962 a 4.025,4.0249344 0 0 0 1.457,-0.511991 c 0.256,-0.147998 1.141,-0.679989 1.506,-1.633974 0.413,-1.092982 -0.07,-2.174964 -0.286,-2.617957 -0.994,-2.135965 -2.943,-2.342962 -5.551,-4.30193 A 17.382,17.381717 0 0 1 7.4333612,27.472612 Z"
     opacity="0.75"
     id="path21"
     style="stroke-width:0.999992" /><path
     d="m 7.6503612,28.161601 c -0.099,1.171981 -0.315,5.453911 2.6279998,9.065853 a 11.774,11.773808 0 0 0 3.524,2.903952 c 0.807,-1.397977 1.624,-2.795954 2.431,-4.192931 a 11.944,11.943805 0 0 1 -4.45,-2.096966 C 9.1263612,31.843541 8.0433612,29.274583 7.6503612,28.161601 Z"
     opacity="0.27"
     id="path23"
     style="stroke-width:0.999992" /><path
     fill="#244e93"
     d="m 50.990361,24.657658 c -1.574,0 -2.775,-0.511991 -3.297,-1.387977 -0.246,-0.412993 -0.335,-0.905985 -0.276,-1.584974 0.128,-1.456977 0.827,-2.952952 2.097,-4.449928 l 0.03,-0.029 c 1.535,-1.809971 2.51,-4.379929 2.903,-7.6278758 a 0.486,0.48599208 0 0 1 0.345,-0.4139933 c 0.05,-0.01 0.098,-0.02 0.138,-0.02 0.137,0 0.275,0.059999 0.374,0.1779971 a 16.727,16.726728 0 0 1 3.012,5.196915 c 0.57,1.604974 0.886,3.297947 0.945,5.039918 0,0.05 0,0.089 -0.01,0.137998 -0.58,2.302963 -2.353,4.163932 -4.528,4.753923 a 7.022,7.0218856 0 0 1 -1.732,0.206996 z"
     id="path25"
     style="stroke-width:0.999992" /><path
     d="m 52.950361,9.6369032 a 16.201,16.200736 0 0 1 2.923,5.0499178 c 0.66,1.869969 0.876,3.572942 0.915,4.88192 -0.531,2.105966 -2.175,3.858937 -4.183,4.399929 a 6.51,6.509894 0 0 1 -1.605,0.206996 c -1.2,0 -2.392,-0.344994 -2.874,-1.151981 -0.138,-0.235996 -0.266,-0.579991 -0.207,-1.289979 0.178,-2.095966 1.684,-3.818938 2.018,-4.202932 1.181,-1.406977 2.51,-3.759938 3.012,-7.8938708 m 0,-0.9849839 a 0.96,0.95998436 0 0 0 -0.975,0.8659859 c -0.373,3.1499488 -1.318,5.6309078 -2.785,7.3728798 l -0.03,0.03 c -1.338,1.574975 -2.086,3.159949 -2.214,4.724923 -0.07,0.776988 0.04,1.367978 0.335,1.86997 0.61,1.043983 1.968,1.633973 3.72,1.633973 0.64,0 1.28,-0.079 1.86,-0.235996 2.344,-0.62999 4.263,-2.637957 4.873,-5.108917 0.02,-0.088 0.03,-0.176997 0.03,-0.275995 a 17.053,17.052722 0 0 0 -0.975,-5.186916 16.926,16.925724 0 0 0 -3.1,-5.3549122 0.95,0.94998452 0 0 0 -0.739,-0.3349945 z"
     id="path27"
     style="stroke-width:0.999992" /><path
     fill="#fff"
     d="m 52.945729,9.6362312 c 0.944928,1.1122408 2.116245,2.7855238 2.923371,5.0493768 0.659481,1.870139 0.876027,3.572951 0.915399,4.882048 -0.531522,2.106368 -2.175303,3.858393 -4.183275,4.39975 -1.555194,0.423242 -3.779712,0.236228 -4.478565,-0.944913 -0.137802,-0.236228 -0.265761,-0.580728 -0.206703,-1.289412 0.177174,-2.096525 1.683153,-3.819022 2.017815,-4.202893 1.18116,-1.407526 2.509965,-3.759964 3.011958,-7.8939568 z"
     style="fill:#fffff1;stroke-width:0.0984292"
     opacity="0.75"
     id="path29" /><path
     opacity="0.28"
     d="m 56.601361,20.169731 c -0.01,0.01 -0.01,0.01 -0.02,0.01 -0.118,0.019 -0.462,-2.697956 -0.836,-4.341929 -0.58,-2.539959 -1.664,-4.409928 -2.303,-5.403912 -0.197,-0.265996 -0.394,-0.5119914 -0.571,-0.7379877 1.19,2.9919507 0.964,5.0299177 0.511,6.3588957 -0.728,2.154965 -2.382,3.395945 -1.83,4.359929 0.196,0.354995 1.171,0.511992 3.031,1.122982 0.207,0.068 0.552,0.176997 0.936,0.068 0.56,-0.166997 0.974,-0.747988 1.132,-1.524975 -0.02,0.04 -0.04,0.069 -0.05,0.088 z"
     id="path31"
     style="stroke-width:0.999992" /><path
     fill="#244e93"
     d="m 70.589361,40.072407 a 0.807,0.80698685 0 0 1 -0.561,-0.235996 c -0.364,-0.364994 -0.827,-0.699989 -1.496,-1.072982 -0.286,-0.157998 -0.581,-0.295996 -0.896,-0.442993 a 11.472,11.471813 0 0 1 -1.329,-0.699989 c -1.408,-0.904985 -2.392,-2.321962 -3.268,-3.571942 -0.62,-0.885985 -0.984,-2.027967 -1.014,-3.119949 a 0.78,0.77998729 0 0 1 0.492,-0.748988 c 4.43,-1.79097 9.145,-2.489959 13.693,-3.169948 0.039,-0.01 0.078,-0.01 0.118,-0.01 0.246,0 0.482,0.118998 0.63,0.315995 a 0.773,0.77298741 0 0 1 0.078,0.806987 l -3.906,8.376863 c -0.512,1.091983 -1.083,2.332962 -1.97,3.316946 a 0.842,0.84198628 0 0 1 -0.57,0.265996 c 0.02,-0.01 0.01,-0.01 0,-0.01 z"
     id="path33"
     style="stroke-width:0.999992" /><path
     d="m 76.337361,27.787607 c -1.299,2.795955 -2.608,5.580909 -3.907,8.376864 -0.512,1.101982 -1.044,2.233963 -1.841,3.129949 -0.492,-0.491992 -1.073,-0.875986 -1.674,-1.20998 -0.718,-0.403994 -1.496,-0.679989 -2.185,-1.122982 -1.26,-0.806987 -2.165,-2.095966 -3.041,-3.355945 a 5.07,5.0699174 0 0 1 -0.867,-2.696957 c 4.322,-1.752971 8.948,-2.44196 13.515,-3.119949 m 0,-1.575974 c -0.078,0 -0.157,0.01 -0.236,0.02 -4.597,0.679989 -9.36,1.387977 -13.88,3.218947 a 1.57,1.5699744 0 0 0 -0.983,1.495976 c 0.03,1.249979 0.452,2.539958 1.151,3.552942 0.916,1.309979 1.94,2.795954 3.485,3.789938 0.482,0.304995 0.955,0.531992 1.417,0.747988 0.305,0.137998 0.581,0.275996 0.847,0.423993 0.6,0.333995 1.014,0.62999 1.319,0.944985 0.295,0.294995 0.699,0.461992 1.122,0.461992 h 0.04 c 0.433,-0.01 0.846,-0.196997 1.131,-0.521991 0.965,-1.071983 1.566,-2.371962 2.097,-3.513943 l 3.908,-8.375864 a 1.573,1.5729744 0 0 0 -0.167,-1.604973 1.535,1.534975 0 0 0 -1.25,-0.63999 z"
     id="path35"
     style="stroke-width:0.999992" /><path
     fill="#fff"
     d="m 70.584385,39.282864 c 0.797283,-0.895698 1.328805,-2.017782 1.840641,-3.130023 1.299276,-2.795366 2.608395,-5.58089 3.907671,-8.376256 -4.576995,0.679155 -9.193362,1.368154 -13.514439,3.12018 0.01969,0.935069 0.344505,1.939039 0.866184,2.696938 0.876027,1.259883 1.781583,2.549295 3.041487,3.356408 0.698853,0.442928 1.466607,0.718527 2.185146,1.122084 0.600423,0.344499 1.18116,0.718527 1.67331,1.210669 z"
     style="fill:#fffff1;stroke-width:0.0984292"
     opacity="0.75"
     id="path37" /><path
     d="m 72.262361,33.811509 a 33.482,33.481455 0 0 1 2.323,-3.975935 c 0.374,-0.551991 0.758,-1.072983 1.132,-1.555975 -0.767,0.403994 -1.545,0.816987 -2.313,1.21998 l -3.662,1.831971"
     opacity="0.28"
     id="path39"
     style="stroke-width:0.999992" /><path
     d="m 18.350361,5.0099786 c -1.96,6.0929004 0.216,12.9247894 3.464,17.6597124 3.249,4.733923 8.072,8.749857 8.072,8.749857 0,0 3.258,2.982952 -0.925,6.999886 -2.323,2.233964 -4.341,2.981952 -5.926,2.981952 -1.27,0 -2.254,-0.482993 -2.904,-1.072983 -1.004,-0.925985 -3.74,-6.939887 -5.365,-12.195801 -2.815,-9.20385 -1.289,-18.357701 3.583,-23.1226234 m 0.01,-1.475976 c -0.374,0 -0.748,0.1469976 -1.033,0.4229931 -2.638,2.579958 -4.4,6.2798973 -5.109,10.7198253 -0.699,4.389928 -0.295,9.18385 1.152,13.888774 a 74.692,74.690783 0 0 0 2.972,7.893871 c 1.191,2.677956 2.136,4.350929 2.806,4.960919 1.033,0.944985 2.421,1.466976 3.898,1.466976 2.254,0 4.597,-1.141981 6.95,-3.395944 1.742,-1.662973 2.608,-3.434944 2.588,-5.246915 -0.03,-2.322962 -1.516,-3.749939 -1.693,-3.906936 -0.02,-0.02 -0.04,-0.03 -0.05,-0.05 -0.048,-0.039 -4.714,-3.946936 -7.805,-8.454863 -1.634,-2.39196 -2.835,-5.089916 -3.465,-7.815871 -0.709,-3.07995 -0.65,-5.964903 0.187,-8.5538608 a 1.464,1.4639762 0 0 0 -0.63,-1.7029723 1.37,1.3699777 0 0 0 -0.768,-0.2259963 z m 19.825,78.4417224 c 0.69,0 1.378,0.107998 2.028,0.343994 1.29,0.472992 2.648,1.653973 3.002,3.031951 0.364,1.436976 -0.68,2.607957 -1.447,3.719939 a 111.923,111.92118 0 0 1 -3.15,4.30193 c -0.56,0.718988 -1.132,1.427977 -1.703,2.135965 -0.285,0.344994 -2.175,3.011951 -2.175,3.011951 0,0 -1.26,-8.779857 -1.083,-13.159786 0.03,-0.797987 0.089,-1.673972 0.66,-2.224963 0.246,-0.245996 0.57,-0.402994 0.895,-0.530992 0.926,-0.393993 1.96,-0.629989 2.973,-0.629989 m 0,-1.476976 c -1.161,0 -2.392,0.255995 -3.553,0.737988 -0.424,0.176997 -0.926,0.413993 -1.359,0.836986 -1.014,0.983984 -1.073,2.381961 -1.112,3.218948 -0.187,4.468927 1.043,13.071787 1.093,13.435781 0.088,0.59999 0.531,1.082982 1.112,1.22998 a 1.466,1.4659761 0 0 0 1.545,-0.579991 c 0.916,-1.279979 1.95,-2.736955 2.117,-2.932952 0.58,-0.709989 1.161,-1.437977 1.732,-2.165965 a 94.994,94.992453 0 0 0 3.2,-4.359929 c 0.088,-0.128998 0.186,-0.266995 0.285,-0.403993 0.787,-1.092982 1.87,-2.598958 1.378,-4.517927 -0.512,-1.998967 -2.343,-3.474943 -3.928,-4.055934 a 7.012,7.0118858 0 0 0 -2.51,-0.442992 z M 1.3803612,31.055554 c 1.417,4.409928 3.513,6.269898 5.118,7.155884 4.1049998,2.263963 8.5049998,0.137997 10.5619998,2.982951 1.142,1.574974 0.728,3.543942 0.709,3.69094 -0.237,1.869969 -1.93,3.149948 -3.239,3.64194 a 4.697,4.6969235 0 0 1 -1.634,0.295996 c -3.1989998,0 -6.7029998,-2.962952 -8.4459998,-5.109917 -4.00600003,-4.91092 -3.307,-11.05282 -3.07,-12.657794 m 0,-1.180981 h -0.1 c -0.55000003,0.05 -0.99300003,0.462993 -1.07200003,1.003984 a 20.78,20.779661 0 0 0 -0.06,5.413912 c 0.404,3.149948 1.53600003,5.895904 3.38700003,8.159867 a 19.011,19.01069 0 0 0 3.937,3.592941 c 1.92,1.299979 3.7409998,1.949969 5.4339998,1.949969 0.719,0 1.418,-0.128998 2.057,-0.364994 1.644,-0.61999 3.672,-2.194965 3.987,-4.586926 v -0.02 c 0.167,-0.993983 0.256,-2.893952 -0.925,-4.537926 -1.437,-1.977967 -3.662,-2.105965 -5.818,-2.214963 -1.703,-0.088 -3.4649998,-0.186997 -5.1279998,-1.101982 -2.008,-1.101983 -3.544,-3.287947 -4.568,-6.476895 a 1.194,1.1939805 0 0 0 -1.132,-0.816987 z"
     id="path41"
     style="stroke-width:0.999992" /><path
     fill="#244e93"
     d="m 64.240361,27.64961 a 0.583,0.5829905 0 0 1 -0.286,-0.069 l -8.73,-4.359929 a 0.652,0.65198938 0 0 1 -0.345,-0.442993 0.63,0.62998974 0 0 1 0.137,-0.541991 c 0.05,-0.059 5.001,-5.934904 5.73,-11.249817 0.728,-5.3159132 -1.202,-9.3818469 -1.221,-9.4198463 a 0.65,0.64998941 0 0 1 0.177,-0.78798721 0.645,0.64498949 0 0 1 0.807,0.01 c 0.207,0.17699712 5.1,4.34992921 6.31,11.16181751 1.2,6.76189 -1.85,14.932757 -1.989,15.276751 a 0.632,0.6319897 0 0 1 -0.364,0.363995 0.457,0.45699256 0 0 1 -0.226,0.06 z"
     id="path43"
     style="stroke-width:0.999992" /><path
     d="m 60.096361,1.2800393 c 0,0 4.912,4.1239329 6.093,10.7878237 1.181,6.663892 -1.95,14.932757 -1.95,14.932757 l -8.73,-4.360929 c 0,0 5.108,-6.004902 5.876,-11.575811 0.768,-5.5709093 -1.29,-9.7838407 -1.29,-9.7838407 m 0,-1.279979135803 a 1.31,1.3099787 0 0 0 -0.787,0.265995665803 1.279,1.2789792 0 0 0 -0.364,1.56497457 c 0.02,0.039999 1.87,3.9669353 1.171,9.0558526 -0.708,5.127916 -5.532,10.866823 -5.58,10.925822 a 1.267,1.2669794 0 0 0 -0.276,1.082982 c 0.078,0.383994 0.334,0.708988 0.679,0.885986 l 8.73,4.359929 a 1.247,1.2469797 0 0 0 1.034,0.05 c 0.335,-0.127998 0.6,-0.403994 0.729,-0.738988 0.138,-0.353994 3.248,-8.680859 2.018,-15.610746 -1.26,-7.0378861 -6.32,-11.35981569 -6.536,-11.54681265 a 1.245,1.2449797 0 0 0 -0.817,-0.294995185803 z"
     id="path45"
     style="stroke-width:0.999992" /><path
     fill="#fff"
     d="m 64.23565,27.008843 c 0,0 3.139917,-8.267985 1.948914,-14.931588 C 64.993561,5.413653 60.091747,1.2895032 60.091747,1.2895032 c 0,0 2.047344,4.2127354 1.27959,9.7837828 -0.767754,5.571047 -5.876271,11.575179 -5.876271,11.575179 z"
     style="fill:#fffff1;stroke-width:0.0984292"
     opacity="0.75"
     id="path47" /><path
     opacity="0.28"
     d="m 65.372361,8.9279148 0.059,0.1479976 c -0.02,-0.039999 -0.04,-0.098998 -0.06,-0.1479976 z m 0.098,0.2759955 0.06,0.1469976 z m -0.197,-0.5319914 0.06,0.1479976 z m -0.216,-0.5219915 c 0.02,0.049999 0.05,0.1089983 0.069,0.1579975 -0.03,-0.059999 -0.05,-0.1079983 -0.07,-0.1579975 z m 0.108,0.2559959 c 0.02,0.049999 0.04,0.098998 0.06,0.1579974 -0.02,-0.059999 -0.04,-0.1079982 -0.06,-0.1579974 z m 0.669,1.8999687 c 0.02,0.05 0.03,0.107998 0.05,0.157998 a 0.968,0.96798423 0 0 1 -0.05,-0.157998 z m -0.895,-2.4119604 c 0.02,0.049999 0.049,0.1089982 0.069,0.1579974 -0.02,-0.049999 -0.04,-0.1079982 -0.07,-0.1579974 z m 0.974,2.6979554 c 0.01,0.049 0.03,0.107999 0.04,0.166998 a 0.834,0.83398641 0 0 0 -0.04,-0.166998 z m -0.256,-0.8469855 c 0.02,0.049999 0.03,0.097998 0.05,0.1579974 a 0.738,0.73798798 0 0 0 -0.05,-0.1579974 z m -0.088,-0.2749956 c 0.02,0.048999 0.04,0.097998 0.049,0.1469976 -0.01,-0.049999 -0.03,-0.097998 -0.05,-0.1479976 z m 0.177,0.5499911 c 0.02,0.05 0.03,0.108998 0.05,0.157997 a 0.968,0.96798423 0 0 0 -0.05,-0.156997 z m -2.196,-4.6849237 c 0.03,0.049999 0.06,0.088999 0.09,0.1379977 -0.03,-0.049999 -0.06,-0.088998 -0.09,-0.1379977 z m 1.27,2.3039625 c 0.03,0.058999 0.05,0.1079982 0.08,0.1669972 a 0.873,0.87298578 0 0 0 -0.08,-0.1669972 z m -1.013,-1.8899693 0.088,0.1469977 z m -0.384,-0.61099 c 0.03,0.049999 0.059,0.088999 0.088,0.1379978 a 1.68,1.6799726 0 0 0 -0.088,-0.1379978 z m 0.256,0.4039934 c 0.03,0.049999 0.059,0.097998 0.088,0.1379978 -0.03,-0.049999 -0.059,-0.088999 -0.088,-0.1379978 z m -0.384,-0.6009902 c 0.03,0.039999 0.059,0.088999 0.088,0.1379978 -0.03,-0.048999 -0.059,-0.087999 -0.088,-0.1379978 z m -0.128,-0.1869969 c 0.03,0.039999 0.059,0.088998 0.088,0.1279979 -0.029,-0.038999 -0.059,-0.087999 -0.088,-0.1279979 z m 2.825,6.1229002 c 0.01,0.06 0.03,0.107998 0.04,0.166997 -0.01,-0.049 -0.03,-0.107998 -0.04,-0.166997 z m -1.299,-3.5039429 c 0.03,0.058999 0.059,0.1279979 0.088,0.1869969 -0.02,-0.069999 -0.059,-0.1279979 -0.088,-0.1869969 z m -0.384,-0.7579877 z m -0.246,-0.4429927 c 0.03,0.058999 0.069,0.117998 0.098,0.1669972 -0.04,-0.048999 -0.069,-0.1079982 -0.098,-0.1669972 z m -0.128,-0.2169965 c 0.03,0.049999 0.059,0.1089982 0.088,0.1579974 -0.03,-0.049999 -0.059,-0.1079982 -0.088,-0.1579974 z m 0.245,0.4329929 c 0.04,0.069999 0.07,0.127998 0.11,0.1969968 a 4.328,4.3279295 0 0 0 -0.11,-0.1969968 z m 2.324,9.5488439 v -0.06 c 0.01,0.02 0,0.04 0,0.06 z m -0.167,-3.287946 c 0,0.03 0.01,0.069 0.01,0.098 0,-0.03 0,-0.059 -0.01,-0.098 z m 0.039,0.304995 c 0,0.03 0.01,0.06 0.01,0.098 0,-0.039 0,-0.068 -0.01,-0.098 z m 0.039,0.353994 v 0.03 c 0.01,-0.01 0,-0.02 0,-0.03 z m -0.355,-2.135965 c 0.01,0.06 0.03,0.117998 0.04,0.177997 -0.01,-0.06 -0.03,-0.118998 -0.04,-0.177997 z m 0.237,1.181981 c 0,0.03 0.01,0.059 0.01,0.088 0,-0.03 -0.01,-0.059 -0.01,-0.088 z m 0.148,1.278979 c 0,0.03 0,0.06 0.01,0.089 0,-0.03 0,-0.06 -0.01,-0.089 z m 0.029,0.295995 c 0,0.03 0,0.068 0.01,0.098 -0.01,-0.03 -0.01,-0.06 -0.01,-0.098 z m 0.04,1.003984 v 0.067 -0.068 z m 0,0.304995 v 0.098 z m -3.475,-10.6708262 c 0.03,0.039999 0.059,0.088999 0.089,0.1279979 -0.03,-0.038999 -0.06,-0.087998 -0.09,-0.1279979 z m 3.445,9.6768422 v 0.098 a 0.167,0.16699728 0 0 0 0,-0.098 z m 0.02,0.333995 v 0.05 z m 0.01,1.052982 v -0.088 z m -0.158,2.578958 c 0,-0.03 0.01,-0.059 0.01,-0.078 -0.01,0.02 -0.01,0.049 -0.01,0.078 z m -0.039,0.295996 c 0,-0.02 0,-0.04 0.01,-0.06 0,0.02 -0.01,0.04 -0.01,0.06 z m -5.473,-16.5757302 -0.06,-0.059999 c 0.01,0.02 0.04,0.039999 0.06,0.059999 z m 5.286,9.5378442 c 0.01,0.069 0.03,0.136998 0.04,0.196997 -0.01,-0.07 -0.03,-0.127998 -0.04,-0.196997 z m 0.059,0.294995 c 0.02,0.098 0.04,0.196997 0.059,0.304995 -0.02,-0.098 -0.04,-0.196996 -0.06,-0.304995 z m 0.256,5.462911 v -0.059 0.06 z m 0.039,-0.59999 v -0.089 z m -0.098,1.278979 c 0,-0.03 0.01,-0.049 0.01,-0.078 -0.01,0.03 -0.01,0.049 -0.01,0.078 z m 0.078,-0.974984 c 0,-0.029 0,-0.058 0.01,-0.088 -0.01,0.03 -0.01,0.06 -0.01,0.089 z m 0.03,-0.648989 v -0.05 z m -0.079,1.268979 v -0.019 0.02 z m -6.201,-16.2207355 c 0,0.01 0,0.01 0,0 0,0.01 0,0.01 0,0 z m 5.059,22.5206325 c 0.01,-0.019 0.01,-0.048 0.02,-0.068 -0.01,0.02 -0.01,0.05 -0.02,0.069 z m 0.315,-1.259979 c 0,-0.009 0.01,-0.019 0.01,-0.029 0,0.01 -0.01,0.02 -0.01,0.03 z m -0.118,0.522991 c 0.01,-0.02 0.01,-0.05 0.02,-0.07 -0.01,0.02 -0.02,0.04 -0.02,0.07 z m 0.187,-0.807986 c 0,-0.01 0,-0.02 0.01,-0.03 -0.01,0.02 -0.01,0.03 -0.01,0.03 z m -0.315,1.299978 c 0,-0.01 0.01,-0.02 0.01,-0.04 -0.01,0.01 -0.01,0.02 -0.01,0.04 z m 0.069,-0.265995 c 0,-0.02 0.01,-0.03 0.01,-0.05 -0.01,0.02 -0.01,0.03 -0.01,0.05 z m 0.119,-0.472992 c 0.01,-0.02 0.01,-0.039 0.019,-0.068 -0.01,0.03 -0.02,0.049 -0.02,0.068 z m 0.413,-1.928969 c 0,-0.02 0.01,-0.04 0.01,-0.059 0,0.01 -0.01,0.03 -0.01,0.06 z m 0.049,-0.275996 c 0,-0.02 0.01,-0.049 0.01,-0.068 0,0.02 0,0.039 -0.01,0.068 z m -0.226,1.141982 c 0,-0.02 0.01,-0.049 0.01,-0.069 0,0.02 0,0.04 -0.01,0.07 z m 0.059,-0.294995 c 0,-0.01 0.01,-0.03 0.01,-0.04 0,0.02 0,0.03 -0.01,0.04 z m -0.118,0.551991 c 0,-0.02 0.01,-0.04 0.01,-0.06 0,0.02 0,0.04 -0.01,0.06 z m -1.005,3.739939 c 0.01,-0.03 0.02,-0.06 0.03,-0.099 -0.01,0.04 -0.02,0.07 -0.03,0.099 z m 0.05,-0.147998 0.03,-0.088 z m 0.048,-0.147997 0.03,-0.088 z m -1.899,-21.1236562 c 0.03,0.039999 0.06,0.088999 0.099,0.127998 l -0.1,-0.127998 z m 1.693,21.7636452 c 0.03,-0.098 0.07,-0.205997 0.108,-0.324995 -0.039,0.118998 -0.078,0.226997 -0.108,0.324995 z m 0.62,-2.076966 c 0.01,-0.02 0.01,-0.049 0.02,-0.069 0,0.02 -0.01,0.05 -0.02,0.07 z m -0.364,1.269979 c 0.01,-0.04 0.03,-0.088 0.04,-0.127998 -0.01,0.04 -0.03,0.079 -0.04,0.127998 z m 0.246,-0.826986 c 0,-0.01 0.01,-0.03 0.01,-0.04 0,0.01 -0.01,0.03 -0.01,0.04 z m 0.059,-0.235996 c 0.01,-0.02 0.01,-0.04 0.02,-0.059 0,0.02 -0.01,0.04 -0.02,0.059 z m -0.177,0.649989 c 0.01,-0.03 0.02,-0.05 0.02,-0.079 -0.01,0.02 -0.02,0.05 -0.02,0.079 z m -0.059,0.175997 c 0.01,-0.029 0.02,-0.048 0.02,-0.078 0,0.02 -0.01,0.05 -0.02,0.079 z m 0.108,-0.362994 c 0.01,-0.03 0.01,-0.05 0.02,-0.08 0,0.02 -0.01,0.05 -0.02,0.08 z m 1.014,-4.370929 c 0,-0.02 0.01,-0.04 0.01,-0.049 0,0.01 0,0.03 -0.01,0.05 z m -5.089,-18.327701 0.069,0.068999 a 0.23,0.22999625 0 0 1 -0.069,-0.069999 z m 0.482,0.5219915 c 0.03,0.029 0.06,0.067999 0.089,0.097998 -0.03,-0.03 -0.059,-0.059999 -0.089,-0.098998 z m -0.206,-0.2169965 c 0.03,0.03 0.049,0.058999 0.078,0.087999 a 0.232,0.23199622 0 0 0 -0.078,-0.087999 z m 0.108,0.1079983 0.089,0.088998 z m -0.296,-0.3149949 c 0.02,0.03 0.05,0.049999 0.07,0.078999 -0.02,-0.029999 -0.05,-0.059999 -0.07,-0.078999 z m 0.1,0.097998 0.078,0.079999 c -0.03,-0.03 -0.06,-0.049999 -0.079,-0.079999 z m 0.403,0.4529926 c 0.03,0.039999 0.069,0.069999 0.098,0.1089983 a 0.516,0.51599159 0 0 0 -0.098,-0.1089983 z m 1.102,1.3389782 c 0.03,0.049999 0.07,0.088999 0.099,0.1379978 -0.03,-0.049999 -0.07,-0.088999 -0.099,-0.1379978 z m 0.128,0.1769971 c 0.03,0.039999 0.07,0.088999 0.099,0.1379978 -0.03,-0.049999 -0.07,-0.088999 -0.099,-0.1379978 z m -0.266,-0.3539938 c 0.04,0.048999 0.07,0.097998 0.109,0.1469976 -0.03,-0.048999 -0.07,-0.097998 -0.109,-0.1469976 z m -0.856,-1.043983 c 0.04,0.039999 0.069,0.079999 0.108,0.1279979 a 1.247,1.2469797 0 0 0 -0.108,-0.1279979 z m 0.119,0.1279979 c 0.226,0.2659957 0.472,0.5709907 0.728,0.8959854 -0.256,-0.3249947 -0.502,-0.6199899 -0.729,-0.8959854 z m -1.221,-1.288979 0.059,0.058999 -0.06,-0.059999 z"
     id="path49"
     style="stroke-width:0.999992" /><path
     opacity="0.28"
     d="m 63.994361,25.523644 c 0,0 1.033,-3.700939 1.378,-5.51191 0.354,-1.801971 0.63,-4.773922 0.384,-7.431879 -0.246,-2.6579564 -1.467,-5.4139115 -2.136,-6.7228902 -0.66,-1.289979 -2.097,-3.1999479 -3.327,-4.359929 1.545,2.9619518 3.031,6.4268953 3.218,10.2068332 0.237,5.029918 -2.549,9.124852 -4.715,12.786792 l 5.504,2.508959 c 0,0 0.118,-0.304995 0.295,-0.856986 z m -3.751,-24.1656059 0.01,0.01 z m 0.03,0.029999 0.02,0.02 z m 5.916,18.0717049 c 0,-0.029 0.01,-0.049 0.01,-0.078 0,0.02 0,0.049 -0.01,0.079 z m 0.049,-0.304995 c 0,-0.02 0.01,-0.039 0.01,-0.068 -0.01,0.03 -0.01,0.049 -0.01,0.068 z m -5.374,-17.2057186 c 0.02,0.02 0.039,0.049999 0.068,0.068999 -0.03,-0.02 -0.049,-0.049999 -0.068,-0.068999 z m -0.542,-0.5219914 c 0.06,0.059999 0.138,0.1279979 0.227,0.2069966 a 2.583,2.5829579 0 0 1 -0.227,-0.2069966 z m -0.128,-0.1169981 h -0.01 z m 0.502,0.4819921 0.06,0.058999 -0.06,-0.059999 z m 5.454,17.953707 c 0,-0.02 0.01,-0.04 0.01,-0.059 0,0.01 -0.01,0.04 -0.01,0.059 z m -5.533,-18.0327057 0.06,0.058999 -0.06,-0.059999 z"
     id="path51"
     style="stroke-width:0.999992" /><path
     fill="#244e93"
     d="m 10.248361,91.011577 a 0.792,0.7919871 0 0 1 -0.5799998,-0.255995 0.767,0.76698751 0 0 1 -0.158,-0.796987 c 0.9059998,-2.50996 1.8599998,-4.606925 2.7069998,-6.457895 0.345,-0.757988 0.67,-1.475976 0.965,-2.145965 2.283,-5.304914 3.406,-7.165884 5.532,-7.676875 a 4.835,4.8349212 0 0 1 1.142,-0.127998 c 1.643,0 3.051,0.756988 3.445,0.993984 l 0.02,0.01 c 1.958,1.160982 2.628,2.45996 2.844,3.355946 0.286,1.171981 0,3.209948 -2.963,6.259898 -0.807,0.836986 -2.244,2.106966 -4.498,3.425944 -2.402,1.407977 -5.168,2.539959 -8.24,3.385945 a 0.878,0.8779857 0 0 1 -0.216,0.03 z"
     id="path53"
     style="stroke-width:0.999992" /><path
     d="m 19.846361,74.336849 c 1.486,0 2.805,0.737988 3.041,0.875986 0.374,0.216996 2.097,1.20998 2.5,2.873953 0.099,0.423993 0.444,2.224964 -2.756,5.53191 -1.771,1.83097 -5.65,4.754922 -12.383,6.595892 1.27,-3.523942 2.668,-6.269897 3.652,-8.55386 2.274,-5.276914 3.278,-6.811889 4.99,-7.225883 0.316,-0.068 0.64,-0.098 0.956,-0.098 m 0,-1.574974 c -0.453,0 -0.896,0.05 -1.32,0.157997 -1.289,0.314995 -2.273,1.062983 -3.218,2.429961 -0.768,1.122981 -1.565,2.727955 -2.855,5.699907 -0.285,0.659989 -0.61,1.368977 -0.955,2.125965 -0.846,1.85997 -1.8099998,3.966935 -2.7359998,6.516894 a 1.574,1.5739744 0 0 0 0.325,1.603974 c 0.305,0.324994 0.728,0.501992 1.1609998,0.501992 0.138,0 0.276,-0.02 0.414,-0.059 3.13,-0.855987 5.965,-2.026967 8.426,-3.464944 2.333,-1.367978 3.829,-2.686956 4.666,-3.552942 3.209,-3.307946 3.484,-5.629908 3.16,-6.998886 -0.453,-1.889969 -1.999,-3.139949 -3.21,-3.848937 l -0.02,-0.01 c -0.432,-0.264996 -1.998,-1.101982 -3.838,-1.101982 z"
     id="path55"
     style="stroke-width:0.999992" /><path
     fill="#ffffff"
     d="m 10.248361,90.22359 c 1.27,-3.523942 2.668,-6.269898 3.652,-8.55386 2.274,-5.275914 3.278,-6.810889 4.99,-7.224883 1.842,-0.442993 3.702,0.59999 3.997,0.767988 0.374,0.216996 2.097,1.20998 2.5,2.873953 0.099,0.423993 0.444,2.224964 -2.756,5.53191 -1.781,1.83097 -5.66,4.764922 -12.383,6.604892 z"
     opacity="0.75"
     id="path57"
     style="stroke-width:0.999992" /><path
     d="m 19.265361,85.361669 a 55.086,55.085103 0 0 1 -5.335,3.139949 c -1.27,0.64999 -2.5,1.21998 -3.682,1.721972 a 26.87,26.869562 0 0 0 5.65,-8.268865"
     opacity="0.28"
     id="path59"
     style="stroke-width:0.999992" /><path
     fill="#244e93"
     d="m 84.911361,79.307768 c -0.059,0 -0.108,-0.01 -0.167,-0.02 l -9.962,-2.105965 a 0.807,0.80698685 0 0 1 -0.57,-0.482992 0.788,0.78798716 0 0 1 0.078,-0.737988 l 4.951,-7.214883 a 0.79,0.78998713 0 0 1 0.65,-0.344994 h 0.04 c 0.275,0.02 0.521,0.167997 0.649,0.413993 l 5.01,9.330848 c 0.148,0.265996 0.118,0.59999 -0.059,0.846986 a 0.76,0.75998762 0 0 1 -0.62,0.314995 z"
     id="path61"
     style="stroke-width:0.999992" /><path
     d="m 79.900361,69.188933 5.011,9.331848 -9.961,-2.106966 4.95,-7.224882 m 0,-1.574974 c -0.52,0 -1.003,0.255995 -1.299,0.679988 l -4.95,7.213883 a 1.606,1.6059738 0 0 0 -0.168,1.476976 c 0.197,0.491992 0.62,0.845986 1.132,0.954984 l 9.971,2.115966 c 0.109,0.02 0.217,0.03 0.325,0.03 0.492,0 0.955,-0.226996 1.26,-0.629989 a 1.597,1.596974 0 0 0 0.128,-1.692973 l -5.01,-9.331848 a 1.577,1.5769743 0 0 0 -1.3,-0.826986 c -0.03,0.01 -0.059,0.01 -0.088,0.01 z"
     id="path63"
     style="stroke-width:0.999992" /><path
     fill="#ffffff"
     d="m 79.900361,69.188933 5.011,9.331848 -9.961,-2.116966 z"
     opacity="0.75"
     id="path65"
     style="stroke-width:0.999992" /><path
     opacity="0.28"
     d="m 74.457361,76.403815 10.454,2.116966 a 15.406,15.405749 0 0 1 -3.297,-2.647957 16.062,16.061738 0 0 1 -3.249,-5.049918"
     id="path67"
     style="stroke-width:0.999992" /><g
     style="display:inline"
     transform="matrix(0.09843,0,0,0.0984284,-37.373639,-9.0257928)"
     id="g91"><circle
       stroke-width="20"
       stroke-miterlimit="10"
       cx="836.40002"
       cy="680.29999"
       r="378"
       style="fill:#e66100;stroke:#000001"
       id="circle69" /><radialGradient
       id="d"
       cx="953.55499"
       cy="368.33099"
       r="639.552"
       gradientTransform="matrix(-0.72162,0.00438,0.00607,0.99998,1366.27,-4.173)"
       gradientUnits="userSpaceOnUse"
       fx="953.55499"
       fy="368.33099"><stop
         offset=".467"
         style="stop-color:#fff;stop-opacity:0"
         id="stop71" /><stop
         offset="1"
         style="stop-color:#000;stop-opacity:.75655478"
         id="stop73" /></radialGradient><circle
       opacity=".5"
       fill="url(#d)"
       stroke="#000000"
       stroke-width="20"
       stroke-miterlimit="10"
       cx="836.40002"
       cy="680.29999"
       r="378"
       style="display:inline;opacity:0.563954;mix-blend-mode:multiply;fill:url(#d)"
       id="circle76" /><g
       opacity=".37"
       style="opacity:0.162791;mix-blend-mode:multiply"
       id="g80"><path
         d="m 563.2,679.8 c 2.3,-5.2 4.7,-10.4 7,-15.7 0,-1.1 0.1,-2.2 0.1,-3.4 0,-2.9 -0.2,-5.9 1.7,-8.3 2.1,-2.8 5.8,-4 8.8,-5.4 3.4,-1.7 7.9,-4.8 11.6,-5.6 3.2,-0.7 6.4,1.6 9,3.1 1.6,1 3.2,2 4.8,3.1 1.9,1.1 3.8,2.4 5.1,4 2.5,2.1 4.9,4.3 7.2,6.5 2.9,2.8 5.8,5.6 8.7,8.5 2.3,2.2 5.2,4.4 6.5,7.3 1.5,3.4 0.6,7.4 0.3,11 -0.4,4.1 -0.4,8.5 -1.3,12.4 -0.5,2.2 -1.6,3.7 -3,4.8 0.2,2.5 -1.4,5 -4.8,5.2 -7.5,0.3 -15,-0.5 -22.3,-2.3 -1.3,-0.3 -2.2,-1.1 -2.8,-2 -2.7,-0.7 -5.4,-1.4 -8.1,-2.3 -1,-0.3 -1.8,-0.8 -2.3,-1.4 -0.8,2.7 -4.3,3.8 -6.8,2.9 -4.8,6.4 -14.2,0.4 -19.3,-2.8 -8.1,-5 -3.1,-12.9 -0.1,-19.6 z M 486.4,710 c 2.8,-8.8 5.7,-17.6 8.5,-26.3 1.1,-3.4 4.6,-4.1 7.1,-3 4.5,0.6 8.6,2.3 13,3.6 5.1,1.6 10.3,2.8 15.5,3.9 2.9,0.6 4.1,3.7 3.4,6.3 2.2,4 4.1,8.1 5.8,12.2 0,0.1 0,0.1 0.1,0.2 0.2,0.4 0.3,0.8 0.5,1.2 0.4,1 0.4,1.9 0.1,2.8 0,0.1 0.1,0.2 0.1,0.3 l 1.8,6.9 c 1.7,4 2.8,8.1 2.6,12.4 0.7,4.7 1,9.4 0.6,14.2 3.2,1.8 3.6,7.8 -1,9.4 -4.9,1.6 -9.8,3.3 -14.7,4.9 -5.6,3.2 -11.4,6.2 -17.3,8.9 -2.7,1.2 -5.7,0.4 -6.9,-2 -0.3,-0.2 -0.7,-0.5 -1,-0.9 -2.5,-3 -4.7,-6 -6.8,-9.2 -1.3,-1.6 -2.5,-3.4 -3.3,-5.4 -3.4,-5.9 -6.1,-12.1 -8.2,-18.7 -0.1,-0.3 -0.1,-0.6 -0.2,-0.8 -2.5,-7.2 -2,-13.7 0.3,-20.9 z m 47.7,103.9 c 2.5,-10 15.2,-10.3 21.5,-16.4 1.2,-1.2 2.8,-1.6 4.3,-1.4 0.6,-0.6 1.4,-1.1 2.6,-1.3 6.7,-1.2 10.3,3.6 14.5,8.1 5.3,5.7 10.7,11.4 16,17.1 2.2,2.4 1.8,6.2 -1,7.9 -5.5,3.3 -11.8,4.4 -17.6,7 -6.1,2.6 -11.8,6.2 -17,10.4 -4,3.3 -9.1,0.1 -8.4,-4.9 1.7,-11 -17.7,-15.1 -14.9,-26.5 z m 75.6,3.1 c 4.1,2.7 9.5,1.6 13.9,4 4.7,2.6 10.3,5.8 15.7,3.3 5.7,-2.6 6.5,-11.7 8.1,-17 1.7,-5.5 6.3,-14.3 3.6,-19.9 -2.5,-5.2 -10.9,-9.1 -15.7,-11.6 -6.3,-3.2 -12.9,-5.6 -19.8,-7.2 -4.1,-0.9 -6.6,2.8 -6.2,5.9 -0.3,0.5 -0.4,1.2 -0.5,1.9 -0.7,8.3 -1.4,16.6 -2.2,24.8 -0.4,5.3 -2.2,12.3 3.1,15.8 z m 30.6,-20.7 c -0.2,0.7 -0.4,1.3 -0.6,2 0.6,-2.3 1.2,-4.7 1.3,-7.1 0.2,0.2 0.3,0.4 0.4,0.5 v 0.9 c 0.1,1 -0.8,2.7 -1.1,3.7 z m 146.8,-15 c 3.1,-8.3 6.3,-16.6 9.4,-24.8 1.2,-3.3 4.2,-4.3 7.3,-3 7.8,3.4 14,9.5 17.5,17.2 0.3,0.6 0.4,1.2 0.5,1.8 1.5,1 2.5,2.8 1.9,5.2 l -7.6,29.9 c -1.1,4.4 -6.9,4.7 -9.1,1.2 -2.5,-3.9 -5.2,-7.5 -8.3,-11 -2.8,-3.1 -7.1,-6 -9.1,-9.7 -0.2,-0.5 -0.4,-0.9 -0.6,-1.4 -1.7,-0.9 -2.8,-2.8 -1.9,-5.4 z m -112,-73.6 c 3.4,-11.9 7.4,-23.6 11.7,-35.2 0,-1.3 -0.1,-2.6 -0.1,-4 -0.1,-2 0.7,-3.3 2,-4.1 1.5,-1.7 3.9,-2.6 6,-1.2 1.3,-0.1 2.6,0.3 3.7,1.4 12.7,12.4 26,24.3 39.9,35.5 1.3,1.1 1.8,2.3 1.7,3.5 1.2,1.3 2.2,2.6 3.2,4 1.5,2.2 0.4,5.6 -1.8,6.8 -3.7,2 -7.8,2.9 -11.8,4.2 -4.2,1.5 -8.3,3.4 -12.1,5.7 -7.7,4.6 -14.5,10.6 -19.9,17.8 -2.8,3.7 -9.4,2.9 -9.3,-2.5 0.1,-6 -2,-11.2 -5.2,-16.2 -2.1,-3.2 -5.8,-6.6 -6,-10.5 -1.7,-0.8 -2.7,-2.7 -2,-5.2 z M 592,564.8 c 9,8.1 17.1,16.9 24.3,26.6 1.8,2.5 5.4,3.5 7.9,1 4.8,-5 10,-9.4 15.9,-13 4.3,-2.6 13,-4.8 13,-11 0,-2.9 -2.7,-5.4 -4.4,-7.5 -2.5,-3.1 -5,-6.2 -7.4,-9.3 L 626.4,533 c -2.1,-2.6 -5,-1.9 -6.7,0 -1.8,-2.3 -5.2,-3.1 -7.5,-0.7 -7.9,8.1 -14.8,16.9 -20.8,26.5 -1.3,1.7 -1,4.5 0.6,6 z m 47.2,-0.2 c 0.7,0.9 1.5,1.8 2.1,2.8 -0.6,0.3 -1.1,0.6 -1.7,1 0.1,-0.6 0.1,-1.3 0,-2.1 -0.1,-0.6 -0.2,-1.2 -0.4,-1.7 z m -9.1,9.4 c 0.7,-0.7 1.3,-1.4 1.9,-2.1 0.2,0.1 0.5,0.3 0.7,0.3 -0.8,0.6 -1.7,1.2 -2.6,1.8 z m 28.2,35.3 c 3.6,-4.5 8,-9.2 11.1,-14.4 1.9,0.9 3.8,1.8 5.7,2.9 0.1,0.6 0.2,1.2 0.2,1.8 0.5,4.3 1.1,8.6 1.8,12.9 1,6.7 4,15.5 2.4,22.2 -0.2,0.9 -0.2,1.7 0,2.4 -0.2,0.3 -0.4,0.5 -0.6,0.8 -2.5,3.1 -4.6,6.6 -6.8,9.9 -2.8,4.4 -5.5,10.1 -8.8,14.9 -3.1,0.3 -6.2,0.5 -9.3,0.7 -2.3,-7.8 -5.9,-15.2 -8.6,-23 -1.3,-3.6 -2.1,-7.5 -3.2,-11.1 5.6,-6.5 10.8,-13.3 16.1,-20 z M 691.5,877 c 2.7,2.2 5.3,4.4 8.1,6.4 2.2,-9.7 5.4,-19.1 9.9,-28 2.3,-4.5 4.9,-8.7 7.5,-12.9 1.9,-3 3.3,-6.7 0.9,-9.9 -2.8,-3.7 -9,-5.8 -13,-7.9 l -14.7,-8.1 -2.1,-1.2 c -0.2,3.6 -0.5,7.2 -0.9,10.8 0.1,9.2 0.6,18.4 1.2,27.6 0.6,7.8 2.5,15.5 3.1,23.2 z m 4.8,-16.5 c 0,-0.2 -0.1,-0.4 -0.1,-0.5 0.3,-0.4 0.6,-0.9 0.9,-1.3 -0.3,0.5 -0.6,1.1 -0.8,1.8 z m -91.5,74 c -0.4,0.2 -0.8,0.4 -1.1,0.7 -0.4,0.1 -0.7,0.2 -1.1,0.3 -1.3,-1.9 -2.8,-3.7 -4.3,-5.4 4.9,-6.8 7.8,-15 12.7,-21.8 4.7,-6.5 9.6,-12.7 13.5,-19.7 0.4,0.3 0.7,0.5 1.1,0.8 5.5,4.4 10.6,9.4 15.5,14.5 4.2,4.3 8.3,8.8 12.2,13.3 -16.1,5.7 -32.8,10.1 -48.5,17.3 z m 235,-101.6 c 4.4,-5.9 9.1,-11.6 13.6,-17.4 0.7,-0.9 1.7,-1.4 2.8,-1.5 2.2,-1.7 5.5,-1.9 7,1.4 4.3,9.7 8.6,19.4 13,29.1 1.3,2.8 0.4,6.5 -3,7.3 -3.7,0.9 -7.3,1.7 -11,2.4 -2.9,0.5 -6.4,1.5 -9.3,0.8 -2.5,-0.6 -3.8,-2.1 -5.1,-4.2 -1.7,-2.7 -3.4,-4.6 -5.9,-6.5 -4.4,-3.1 -5.4,-7 -2.1,-11.4 z M 824.3,914 c 5.8,3.7 11.5,7.5 17.4,11 4.5,2.7 9,2.6 11.9,-2.2 3.3,-5.5 5.7,-11.9 7.7,-17.9 1.8,-5.3 1.2,-8.8 -2.7,-12.8 -4.1,-4.4 -8.7,-8.4 -13.5,-12.1 -4.5,-3.4 -8.9,-6.4 -14.7,-4.9 -1.6,0.4 -2.6,1.4 -3.2,2.5 -1.2,0.5 -2.3,1.6 -2.8,3.1 l -2.7,8.4 c -0.3,0.4 -0.5,0.9 -0.6,1.5 -0.1,0.4 -0.2,0.9 -0.2,1.3 -1,3.2 -2,6.4 -2.9,9.6 -1.8,6.7 0.8,9 6.3,12.5 z m 19.2,0.3 c 0.1,-0.1 0.3,-0.1 0.4,-0.2 0.9,0.5 1.9,0.8 2.9,0.8 -0.2,0.4 -0.4,0.9 -0.7,1.3 -0.9,-0.6 -1.9,-1.3 -2.6,-1.9 z m 3.6,-19.9 c 0.5,0.4 0.9,0.8 1.4,1.3 -0.1,0 -0.2,0.1 -0.3,0.2 -0.4,-0.5 -0.8,-1 -1.1,-1.5 z m 61.2,29.9 c 0.5,5.7 8.8,9.9 12.8,13.1 4.3,3.5 10.2,10.7 16.4,7.5 2.9,-1.5 5.3,-4.9 7.5,-7.3 2.5,-2.8 4.9,-5.6 7.3,-8.4 4,-4.8 8.7,-10.1 9.1,-16.6 0.4,-6.9 -4.5,-11.6 -8.8,-16.4 -5.2,-5.9 -10.4,-11.9 -15.7,-17.8 -1.9,-2.2 -4.4,-1.9 -6.1,-0.6 -2.4,-2.1 -7.1,-1.9 -8.5,2.1 l -8.1,24.3 c -1.2,3.7 -2.5,7.5 -3.7,11.2 -0.9,2.8 -2.5,5.9 -2.2,8.9 z m 43.1,-11.9 c -0.1,-0.3 -0.2,-0.5 -0.3,-0.8 0.1,-0.3 0.1,-0.6 0.2,-1 v 0.1 c 0.2,0.7 0.2,1.2 0.1,1.7 z m -64,73.2 c 5,-8.1 10.4,-16.2 14.9,-24.6 l 0.6,-0.9 c 1.2,0.5 2.3,1.2 3.3,2.1 4.4,7.9 10.2,14.8 14.9,22.6 -3,3.2 -6.2,6.3 -9.5,9.4 -6.1,5.7 -12.5,11.9 -19.5,16.7 -0.3,-0.4 -0.6,-0.8 -0.8,-1.3 -1.4,-0.5 -2.6,-1.6 -3.2,-3.3 -0.8,-2.3 -1.9,-4.4 -3.3,-6.4 -0.6,-0.9 -0.8,-1.8 -0.8,-2.7 -0.2,-0.4 -0.3,-0.7 -0.4,-1.1 -1,-3.9 1.9,-7.4 3.8,-10.5 z m 14.3,-137.4 c 0,0.7 0,1.5 0.2,2.3 0,0.1 0.1,0.2 0.1,0.3 0.3,1.9 0.8,3.8 1.2,5.8 0.3,1.5 1.1,2.5 2,3.1 0,0.2 0.1,0.4 0.1,0.7 0.5,3.8 3.8,6.1 7.5,4.3 4.6,-2.2 9.1,-4.4 13.7,-6.7 2.9,-1.4 5.5,-2.9 6.4,-6.3 0.9,-3.5 -0.4,-7.7 -1.1,-11.1 -1,-5 -2.2,-10 -3.6,-14.9 -0.4,-1.5 -1.3,-2.5 -2.4,-3 -1.9,-2.2 -6,-2.7 -8.4,0.4 -4.6,6 -9.6,11.9 -13.9,18.2 -1.6,2.2 -2,4.5 -1.8,6.9 z m 13.4,4.2 c -0.4,0.2 -0.9,0.4 -1.3,0.7 -0.1,-0.2 -0.1,-0.4 -0.2,-0.5 0.5,-0.1 1,-0.1 1.5,-0.2 z m -79.3,114.9 c 4.5,-4.6 7.7,-9.2 10.9,-14.7 3,-5.1 6.4,-9.7 11.6,-12.7 0.4,-0.3 0.9,-0.4 1.4,-0.5 0.2,0.4 0.3,0.8 0.5,1.1 0.4,7.5 1.6,15 2.2,22.5 0.3,3.8 0.9,7.4 1.8,11.2 0.4,2 1.3,4.6 1.3,6.9 -1.8,1.7 -3.6,3.3 -5.3,4.9 -4.7,4.4 -9.3,8.8 -14,13.3 -1.8,1.7 -5.3,2.1 -7.1,0 -2.3,-2.8 -4.6,-5.7 -6.7,-8.6 -1.9,-2.6 -4.5,-5.5 -5,-8.7 -0.9,-5.8 4.8,-11 8.4,-14.7 z M 564.4,893.5 c 0,3.1 3.2,5.8 6.3,4.8 5.5,-1.8 11,-3.6 16.5,-5.5 4,-1.3 8.4,-2.5 11.4,-5.7 3,-3.1 3.9,-7.7 5.3,-11.6 1.8,-5.2 4,-10.2 6.5,-15.1 1.3,-2.5 0.4,-4.8 -1.3,-6.2 -0.7,-3 -4.6,-5.3 -7.5,-3.5 -9.8,6.1 -20.1,10.8 -30.3,16.2 -9.5,5 -6.9,17.6 -6.9,26.6 z m 11,-7.3 -1.1,0.3 v -1.2 c 0.3,0.4 0.7,0.7 1.1,0.9 z m 58.4,81.5 c 4.3,-7.4 11.5,-13.3 17.3,-19.5 3.6,-3.8 7.2,-7.6 10.8,-11.5 2.4,-2.6 4.9,-6 8.5,-7.1 3.2,-1 5.4,-0.1 6.7,1.6 1.2,0.5 2.2,1.5 2.4,3.3 1,6.5 1.7,12.9 2,19.5 0.2,4.9 1.3,11.4 -4.4,13.4 -5.3,1.9 -11.9,2.1 -17.5,3.2 -6.8,1.4 -13.5,2.9 -20.3,4.5 -4,0.9 -7.8,-3.6 -5.5,-7.4 z m 363.2,-78.4 0.1,-0.1 c 6.4,7.1 11.9,14.9 19.5,20.8 -3.8,5 -8.4,9.4 -12.5,14.2 -3.9,4.7 -7,10.3 -11.1,14.9 -3.6,-10.1 -6.5,-20.5 -9,-31 3.9,-6.5 8.2,-12.8 13,-18.8 z M 978.2,979 c 6,-9.4 12.3,-18.6 18.9,-27.7 1,-1.4 2.4,-2.1 3.9,-2.3 2.2,-1.2 5.1,-1.1 6.9,1.6 2.5,3.9 6.5,8.3 7.9,12.8 1.2,3.7 -1.1,7.7 -3.7,10.3 -3,3 -6.9,4.7 -10.9,6 -5.6,1.8 -10.9,3.6 -16.2,6.1 -4.1,2.1 -9.6,-2.2 -6.8,-6.8 z m -37.6,-18.8 c 6.9,-10.8 14.5,-21.2 22.6,-31.1 2.2,-2.7 7.8,-1.4 8.4,2.2 l 0.3,3 c 0.8,0.8 1.3,1.9 1.3,3.4 -0.1,7.9 6.8,15.4 2.6,23 -4.3,7.9 -10.9,15.1 -16.2,22.3 -2,2.8 -6.8,3.7 -8.6,0 -3,-6.2 -6.5,-12.1 -10.4,-17.8 -1,-1.3 -0.9,-3.6 0,-5 z m 78.3,-30.2 c 6.7,-9.7 12.8,-19.8 18.3,-30.3 1,-1.8 2.5,-2.5 4,-2.5 1,-0.5 2.2,-0.6 3.3,-0.2 7.9,2.8 10.5,10.1 16.5,15.2 1.6,1.4 1.9,4.3 0.8,6.1 -7,11 -14,22.1 -21,33.1 -2.2,3.4 -6.4,3 -8.6,0 -4,-5.2 -8.2,-10.3 -12.5,-15.3 -1.4,-1.6 -2.1,-4.2 -0.8,-6.1 z m 32.9,-62.3 c 0.8,-1.1 2,-1.9 3.4,-2.3 1.4,-1.6 3.7,-2.5 6.2,-1.3 9.7,5 18.3,11.8 26.5,18.9 3.1,2.7 7,5.2 5.5,9.9 -1.8,5.5 -5.9,10.9 -8.7,16 -1.9,3.5 -6.6,3 -8.6,0 -5.6,-8.2 -12.6,-15.4 -20.7,-21.1 -2.9,-2 -7.3,-3.6 -8.7,-7.1 -1.7,-4.4 2.6,-9.6 5.1,-13 z m 37.5,-16.3 c 0.6,4.1 4,7.7 6.5,10.8 2.8,3.4 5.9,6.4 9.2,9.2 2.6,2.2 7.6,1.8 8.4,-2.2 0.8,-4.2 1.8,-8.4 3.3,-12.4 1.2,-3.2 3.5,-6.5 2.7,-10.1 -0.7,-3.6 -3.9,-7.6 -5.7,-10.8 -2.2,-3.8 -4.5,-7.6 -6.7,-11.4 -0.3,-0.5 -0.8,-1 -1.2,-1.3 -2.4,-2.8 -7.6,-2.9 -8.6,1.7 -1.1,4.9 -2.4,9.6 -4.2,14.3 -1.6,3.8 -4.4,7.9 -3.7,12.2 z m 16.2,7.2 -0.6,-0.6 c 0.3,0 0.6,0 0.8,-0.1 0,0.3 -0.1,0.5 -0.2,0.7 z m -0.6,-82.9 c 6.6,-1 13.2,-1.7 19.8,-2.6 1.9,0.4 3.8,0.8 5.8,1 2.7,0.3 5,2.1 5,5 0.2,11.4 0.3,22.8 0.5,34.2 -9.4,-3.9 -18.3,-8.7 -27.7,-12.6 -3.1,-1.3 -6.3,-2.4 -9.4,-3.7 -1.7,-1.1 -3.4,-2.1 -5.2,-3 -0.9,-2.6 -0.8,-5.4 -0.8,-8.4 0,-3.2 -0.1,-6.4 -0.1,-9.5 4.2,-0.4 8.7,0.1 12.1,-0.4 z m 14.2,-29.9 c 5.9,-14.3 12.7,-28.2 20.6,-41.5 1.9,-3.2 6.8,-3.3 8.6,0 1.8,3.3 3.9,6.4 6.3,9.2 0.8,0.2 1.7,0.7 2.4,1.5 5.6,6.3 11.4,12.5 17.3,18.6 2.4,2.5 1.6,5.9 -1,7.9 -4.1,3.1 -8.2,6.1 -12.3,9.2 -3.1,2.3 -6.1,5.1 -9.9,6 -4.2,0.9 -8.8,-0.7 -12.8,-1.5 -5.2,-1 -10.4,-2.1 -15.7,-3.1 -2.4,-0.7 -4.4,-4 -3.5,-6.3 z m -42.5,-37.7 c -4.8,-1.6 -9.9,-2.7 -14.6,-4.1 -2.8,-0.8 -5.2,0.8 -6.2,3.3 -5.2,12.2 -9.8,24.6 -13.7,37.3 -1.3,4.3 3.2,7.6 7.1,5.9 9.9,-4.4 20.2,-7.5 30.9,-9.5 z m 73.7,-32.3 c 7,3 14.2,7.1 21.5,9.2 6.7,1.9 10.8,-4.3 14.8,-8.7 2.5,-2.8 6.1,-5.9 7.4,-9.5 0.9,-1.4 1.1,-3.1 0.1,-5 -0.2,-0.6 -0.5,-1.2 -0.9,-1.8 -0.3,-0.5 -0.6,-0.9 -0.9,-1.3 -5,-8.2 -11.7,-16.1 -18.2,-22.9 -2.2,-2.3 -6.3,-1.8 -7.9,1 -1.5,2.7 -2.9,5.4 -4.2,8.1 -5,7.7 -9.5,15.7 -13.4,24 -1.2,2.3 -1,5.8 1.7,6.9 z m 9.3,-6.7 c 0.2,-0.3 0.3,-0.6 0.5,-1 0.2,0.5 0.4,1 0.6,1.4 z m -101,-2.7 c 0.8,-6 5.3,-7.6 10.4,-9.8 12,-5.1 24.1,-10.1 36.2,-15 3.9,-1.6 8.2,4 5.6,7.3 -0.2,0.2 -0.4,0.5 -0.5,0.7 0.2,1 0.1,2.2 -0.5,3.4 -2.7,5.2 -5.5,10.4 -8.2,15.6 -2.2,4.1 -4.1,10.3 -7.7,13.3 -3.2,2.7 -8.3,2.7 -12.2,3.5 -5.8,1.1 -11.7,2.3 -17.5,3.4 -3,0.6 -6.5,-1.4 -6.3,-4.8 0,-5.7 -0.1,-11.8 0.7,-17.6 z m 40.6,-56.1 c 2.9,-8 5.2,-16.1 7,-24.3 0.1,-0.6 0.4,-1.1 0.7,-1.5 0,-3.2 4.5,-6.2 7.8,-3.3 4.9,4.3 9.7,8.5 14.6,12.8 3.3,2.9 8.8,6.1 6.8,11.2 -1.6,4.3 -6.5,8.1 -9.6,11.3 -4.2,4.3 -8.4,8.5 -12.6,12.8 -2.2,2.2 -5.3,1.3 -7,-0.9 -2.5,-3.3 -5.8,-6.7 -7.8,-10.3 -1.5,-2.8 -0.8,-5.1 0.1,-7.8 z m 26,-55.4 c 0.8,-3 3.1,-5.8 4.6,-8.5 l 6.6,-11.3 c 1.2,-2 3.9,-2.9 6.1,-2.2 1.5,-0.5 3.3,-0.2 4.8,1.2 4.2,3.9 13.9,13.1 12.2,19.7 -0.8,3.3 -4.7,6.3 -6.8,8.7 -3.3,3.8 -6.7,7.5 -10,11.3 -2.3,2.6 -6.1,1.4 -7.9,-1 -2.3,-3.3 -4.7,-6.6 -7,-10 -1.9,-2.4 -3.5,-4.8 -2.6,-7.9 z m 37,47.1 c 5.8,-11.2 12.3,-22 19.3,-32.4 1.2,-1.8 2.8,-2.5 4.4,-2.4 2.5,-1.7 6.7,-1.2 7.8,2.6 2.5,8.2 4.8,16.5 7.5,24.7 1.1,3.3 -1.7,6.1 -4.8,6.3 -9.7,0.7 -18.9,3.4 -27.4,8 -4.4,2.4 -9.1,-2.4 -6.8,-6.8 z m -98,-63.7 c 5.7,-12.5 12.8,-24.6 20,-36.3 1.7,-2.7 4.6,-2.8 6.8,-1.6 2.4,-0.6 4.9,0.4 5.6,3.4 2.8,13.7 5.3,27.4 7.5,41.2 0.9,5.4 1.7,9.8 -3.5,13 -3.7,2.3 -11.1,6.9 -15.4,4.8 -2.5,-1.2 -4.9,-3.8 -7.1,-5.5 l -9.1,-7.1 c -4.5,-3.3 -7.4,-6.2 -4.8,-11.9 z m 45,-25.1 c -0.1,4.2 4.2,5.7 7.5,4.3 6,-2.6 11.9,-5.5 17.6,-8.8 3.9,-2.2 9,-4.6 7.7,-10 -1.2,-4.8 -6.4,-9.7 -9.4,-13.5 -3.9,-4.8 -7.8,-9.4 -10.4,-15 -2.1,-4.6 -7.9,-2.4 -9,1.5 -1.4,0.9 -2.4,2.4 -2.6,4.1 -0.6,12.5 -1.1,24.9 -1.4,37.4 z m 21.3,-14.4 c 0.1,0.2 0.3,0.4 0.4,0.6 -0.3,0.2 -0.7,0.4 -1,0.6 0.3,-0.3 0.5,-0.7 0.6,-1.2 z m -81,-47.1 c 0.7,3.4 4.3,6.3 6.1,9.2 1.9,3 3.5,6.1 5.1,9.2 3.6,7 7.4,13.9 13.2,19.4 2.8,2.6 7.3,1.5 8.4,-2.2 2.6,-8.9 2.5,-18.1 2.6,-27.3 0.1,-9.9 0.1,-19.8 0,-29.7 0,-2.2 -1.2,-3.7 -2.8,-4.4 -0.4,-1.7 -1.5,-3.2 -3.4,-3.4 -7,-1.1 -17.8,-4.1 -21.6,3.7 -1.8,3.8 -2.8,8.1 -4.2,12.1 -1.3,3.8 -4.3,9.1 -3.4,13.4 z m 24.9,22.6 c -0.5,-0.8 -1,-1.6 -1.4,-2.4 0.5,0.1 1.1,0.1 1.6,0 -0.1,0.8 -0.1,1.6 -0.2,2.4 z m -81.9,-39.6 c 0.2,0.5 0.6,1 1,1.5 2.3,2.7 6.6,4.4 9.6,6.2 4.3,2.6 8.7,5.3 13,7.9 2.3,1.4 5.5,0.5 6.8,-1.8 5.1,-8.6 10.6,-16.9 16.6,-24.9 1.7,-2.2 1,-4.4 -0.6,-5.8 0.4,-1.5 0.1,-3.1 -1.4,-4.5 -6,-5.3 -12,-10.6 -18,-16 -0.6,-1.3 -1.8,-2.3 -3.2,-2.8 -1.5,-2.6 -5.1,-4 -7.5,-1 -8.2,9.9 -13.6,22.5 -19.8,33.7 -1.9,3.6 0.6,6.8 3.5,7.5 z m 21.7,-21.8 c 0.1,0.3 0.2,0.5 0.3,0.8 -0.3,0.2 -0.7,0.4 -0.9,0.7 0,-0.1 0.1,-0.3 0.1,-0.4 z m 2.8,26.3 -0.8,-0.5 c 0.4,0 0.8,0 1.1,-0.1 z m -54.7,20.9 c 0.7,-2.8 1.7,-5.5 3,-7.9 0,-1.2 0.4,-2.4 1.5,-3.4 0.5,-0.5 1.1,-1 1.6,-1.5 1.3,-1.7 2.7,-3.3 4.4,-4.8 0.7,-0.7 1.5,-1.1 2.3,-1.2 3.9,-2.9 8.1,-4.2 12.6,-0.6 7.9,6.5 14.8,14.5 22.1,21.7 2.5,2.5 1.5,5.7 -0.6,7.4 0.1,3.1 -2.3,6.3 -6.2,5.2 -12.3,-3.6 -24.7,-6.5 -37.2,-8.7 -2.7,-0.6 -4.1,-3.8 -3.5,-6.2 z m 60.9,31 c 1.4,-2.7 4,-5.1 5.9,-7.6 l 8.1,-9.9 c 0.9,-1.1 2.2,-1.5 3.5,-1.5 2.2,-2.5 7.4,-2.5 9,1.7 1.5,3.8 2.9,7.6 4.4,11.4 1.3,3.3 2.2,5.9 0.1,9 -4.4,6.4 -11.1,11.9 -16.4,17.5 -2.8,3 -7.1,1.1 -8.4,-2.2 -1.5,-3.7 -3.4,-6.9 -5.5,-10.4 -1.4,-2.6 -2.3,-5.1 -0.7,-8 z M 962.1,358.4 c 0,13.4 0.9,26.7 2.7,40 0.8,5.7 7.7,6.7 9.8,1.3 l 3.9,-9.6 c 3,-3.6 5.9,-7.3 8.6,-11.1 3.1,-4.3 7.2,-9 8,-14.4 0.4,-2.7 -1.1,-4.8 -3.1,-5.7 -0.8,-1 -2,-1.6 -3.6,-1.7 -6.3,-0.2 -11.6,-6 -18.1,-5.7 -1.7,0.1 -3.1,0.9 -4.1,2.1 -2.2,0.3 -4.1,1.9 -4.1,4.8 z m 21.6,8 c -0.2,0.3 -0.4,0.7 -0.6,1 -0.1,-0.4 -0.2,-0.9 -0.3,-1.3 0.4,0.1 0.7,0.2 0.9,0.3 z m 34.6,-2.6 c 5.5,3.8 12.2,5.8 17.8,9.5 4.2,2.8 7.9,6.1 11.8,9.2 1.4,1.1 2.8,2.1 4.3,3.2 -4.3,1.3 -8.7,2.6 -13,4.1 -3.8,1.3 -8,3.6 -12,3.7 -1.6,0.1 -3.6,-1 -4.3,-2.5 -2.7,-6.2 -2.6,-14.7 -3.5,-21.4 -0.1,-0.5 -0.1,-0.9 0,-1.4 -1.5,-1.1 -1.7,-2.8 -1.1,-4.4 z m -126.2,25.8 c 2.9,4.6 6.3,8.9 9.4,13.4 1.9,2.7 5.4,3.4 7.9,1 5.2,-5 10.4,-9.9 15.6,-14.9 3.5,-3.4 9.5,-7.2 10.4,-12.4 0.9,-5.1 -2.8,-11 -5.5,-15.1 -3.2,-4.9 -7.2,-9.4 -11.1,-13.8 -1.7,-1.9 -3.8,-1.9 -5.5,-1 -1.9,-0.5 -3.9,0.1 -5.1,2.3 -5.3,9.9 -10.6,19.9 -15.9,29.8 -2,4.1 -2.6,6.8 -0.2,10.7 z m 27.2,-8.9 c -0.7,0.6 -1.3,1.3 -2,1.9 v -0.1 c 0.2,-0.1 0.4,-0.3 0.5,-0.4 0.9,-0.8 1.6,-1.8 2.1,-2.9 0.3,0.2 0.5,0.3 0.8,0.4 -0.5,0.4 -1,0.8 -1.4,1.1 z m -17.5,61.1 c 5.8,-0.2 11.5,-0.5 17.2,-0.9 4.6,-0.3 9.9,-0.2 14.3,-1.7 3.9,-1.4 7,-5.2 9.9,-7.9 4,-3.7 7.9,-7.3 11.9,-11 1.6,-1.5 1.9,-4.3 0.8,-6.1 -3.4,-5.5 -5.9,-11.1 -7.6,-17.4 -0.7,-2.8 -3.1,-3.8 -5.3,-3.5 -1.7,-0.9 -3.9,-1 -5.8,0.7 -3.6,3.1 -7.2,6.1 -11.2,8.7 -3.4,2.2 -6.6,4.3 -9.2,7.4 -6.4,7.5 -12.4,15.4 -18.6,23.1 -2.4,3.2 -1.1,8.7 3.6,8.6 z m 28.1,-12.2 c 0,-0.1 0,-0.1 0,0 1.8,-1 3.4,-2.6 4.1,-4.6 0.2,-0.1 0.4,-0.3 0.5,-0.4 0.4,0.1 0.9,0.1 1.3,0.2 -1.8,1.8 -3.7,3.7 -5.9,4.8 z m -95.7,-49.7 c 3.8,3.7 7.4,7.6 10.7,11.8 2,2.5 6.5,1.6 7.9,-1 2.9,-5.5 6.2,-10.7 10.1,-15.4 2.9,-3.4 7.7,-6.6 9.5,-10.8 2.2,-4.9 -0.8,-9 -4.3,-12.2 -5,-4.6 -10.2,-9.1 -15.2,-13.7 -1.2,-1.1 -2.6,-1.4 -3.8,-1.3 -2.1,-0.8 -4.7,-0.5 -6.2,1.9 -5.9,8.8 -10.5,18.7 -12.7,29.1 -1.2,5.1 0.3,8 4,11.6 z m 27.9,-18.3 -1.5,1.5 c 0.2,-0.3 0.4,-0.6 0.6,-1 0.3,-0.7 0.5,-1.4 0.6,-2.1 0.4,0.3 0.8,0.7 1.1,0.8 z m -8,69.5 c 2.1,-8.7 5.6,-16.9 10,-24.7 2,-3.5 6.5,-2.9 8.6,0 2.5,3.3 4.3,6.8 5.6,10.5 1.2,2.3 2.4,4.7 3.7,7 1.7,3.2 4.4,6.8 3.4,10.7 -0.9,3.1 -3.9,5.8 -6,8.1 -2.9,3.2 -6.1,6.1 -9.3,8.9 -2,1.7 -5.1,2.1 -7.1,0 -2.9,-3.2 -6.7,-6.4 -9,-10.1 -2,-3.2 -0.8,-7 0.1,-10.4 z m 19.4,-111.8 c 9.9,0.5 19.7,2.2 29.1,5.2 3.9,1.2 4.2,5.5 2.4,8.1 -0.1,0.7 -0.3,1.4 -0.9,2.2 -0.3,0.3 -0.5,0.7 -0.8,1 l -0.2,0.2 c -4.1,5.2 -8.9,9.5 -14.8,12.8 -0.8,0.5 -1.7,0.7 -2.5,0.7 -1.3,1.1 -2.6,2.1 -4,3 -3.3,2 -7.4,-0.6 -7.5,-4.3 -0.3,-7.4 -3.7,-15.3 -5.7,-22.4 -0.8,-3.2 1.6,-6.7 4.9,-6.5 z M 750.4,350 c -0.1,3.8 3.6,6.6 5.5,9.5 2.6,3.8 4.4,7.8 5.7,12.2 0.9,3 4.6,4.8 7.3,3 3.6,-2.3 7.3,-4.2 11.1,-6.2 1.7,-0.9 0.4,-0.8 2.3,0.5 1.5,1 3.2,1.8 4.8,2.7 4.4,2.6 11.1,8.5 16,3.8 1,-1 1.9,-2.2 2.7,-3.6 10.5,-13.4 20.8,-27.3 24.8,-44.1 0.8,-3.4 -2.4,-7.5 -6.2,-6.2 -18.6,6.9 -37.5,13 -56.6,18.3 -5,1.5 -17.1,2.7 -17.4,10.1 z m 14.7,1.1 c -0.2,0.5 -0.4,1.1 -0.5,1.8 -0.1,0.5 -0.1,0.9 -0.1,1.3 -0.3,-0.4 -0.5,-0.8 -0.8,-1.2 -0.2,-0.3 -0.6,-0.8 -1.1,-1.2 0.8,-0.2 1.6,-0.4 2.5,-0.7 z M 689,392.9 c 1,-5.2 1.7,-10.4 1.8,-15.7 0.1,-4.1 -1.2,-9.7 0.6,-13.6 1.6,-3.4 5.9,-4.8 9.1,-6.2 4.5,-2 9,-3.6 13.8,-4.8 0.9,-0.2 1.8,-0.2 2.5,0 1.8,-0.4 3.7,0.2 4.8,2.4 7.2,14.8 8.8,32.4 12,48.5 0.9,4.5 -3.3,7.5 -7.3,5.6 -10.8,-4.9 -22.1,-8.2 -33.8,-10.1 -2.8,-0.4 -3.9,-3.7 -3.5,-6.1 z m 62.7,13.9 c 1.2,-6.2 2.9,-12.2 5,-18.1 0.6,-1.6 1.7,-2.6 3,-3.1 1,-2.6 4,-4.5 7.1,-2.7 6.6,3.8 12.9,8 19,12.6 4.4,3.3 10.7,6.7 8.6,13.2 -1.1,3.3 -3.5,6.5 -5.1,9.6 -1.6,3.1 -3.1,6.3 -4.5,9.6 -3.1,7.2 -5.5,14.6 -7.6,22.1 -1.2,4.4 -6.8,4.6 -9.1,1.2 -3.5,-5.2 -7.1,-10.4 -10.6,-15.7 -2.7,-4 -6.8,-8.4 -7.4,-13.3 -0.7,-4.9 0.7,-10.6 1.6,-15.4 z m 52.3,10 c 0.6,-2.2 2.1,-3.5 3.9,-4.6 0,-1.9 1.1,-3.8 3.6,-4.4 7.4,-1.8 23.8,-3.7 25.9,6.4 1.1,5.2 1.3,10.7 1.6,16 0.2,4.6 0.3,9.1 -2.3,13 -1.4,2.1 -4.5,3.4 -6.8,1.8 -7.8,-5.3 -15,-11.4 -21.2,-18.5 -2.6,-2.6 -5.8,-5.7 -4.7,-9.7 z m -26.6,81.7 c 0,6 5,6.5 9.7,6.5 3.5,0 6.8,0.5 10.1,1.3 2.2,0.6 4.2,1.3 6.4,0.9 6.3,-1.2 4.9,-7.8 5.9,-12.5 1.1,-5.1 3,-13.4 7.4,-16.7 3.1,-2.3 2.5,-6.3 0.4,-8.4 0,-1.5 -0.7,-2.9 -2.4,-3.9 -3.4,-2 -6.7,-4.1 -10.1,-6.1 -1.9,-1.1 -3.8,-2.4 -6,-2.4 -5,-0.2 -9.5,4.6 -12.1,8.3 -3.3,4.7 -5,10.4 -6.2,16 -1,5.4 -3,11.5 -3.1,17 z m 21.7,-31 c 0.4,0.2 0.9,0.5 1.4,0.8 -1.1,-0.1 -2.3,0.1 -3.4,0.7 -0.1,0 -0.1,0.1 -0.2,0.1 l 0.8,-0.8 c 0.8,-0.4 1.2,-0.6 1.4,-0.8 z m -93,-20.3 c 0.9,1.2 1.6,2.4 2.5,3.7 2.4,3.5 5,7.1 7.6,10.4 3.9,4.9 8.9,9.6 12.4,15 5.2,2.5 10.3,5.4 15.2,8.5 2.3,1.5 5,0.6 6.5,-1.4 -1.1,-3.5 -2.8,-7.1 -3.9,-10.4 -1.7,-5.4 -3.5,-10.7 -5.5,-16 -3.3,-8.8 -7,-18.2 -12,-26.3 -0.8,-0.3 -1.4,-0.9 -1.9,-1.6 -0.9,0.1 -1.8,0.5 -2.6,1.1 -3.8,3.1 -7.5,6.3 -11.1,9.8 -2.1,2.1 -5.1,4.5 -7.2,7.2 z m 33.7,23.6 c 0.4,-0.1 0.8,-0.3 1.2,-0.6 0,0.4 0.1,0.8 0.1,1.2 -0.4,-0.2 -0.9,-0.4 -1.3,-0.6 z M 495.9,662.1 c 13,-5.2 26.2,-0.5 38.8,3.8 4.4,1.5 8.8,2.6 11.5,-2.3 3,-5.6 4,-12.5 4.6,-18.7 0.4,-3.9 -3.2,-5.4 -6.2,-4.5 -12.2,-8.8 -25.2,-16.5 -38.7,-23.1 -2.6,-1.3 -6.8,-0.4 -7.3,3 -1.9,12.1 -4.8,24 -8.7,35.7 -1.3,3.3 2.4,7.5 6,6.1 z m 35.9,-7.6 c -0.6,-0.2 -1.1,-0.5 -1.6,-0.6 0.2,-0.1 0.4,-0.2 0.6,-0.4 0.2,0.1 0.3,0.3 0.5,0.4 0.1,0.1 0.3,0.2 0.4,0.3 0,0.1 0,0.2 0.1,0.3 z m 7.2,-60.9 c 0.7,-4.5 7.2,-7 10.6,-9.1 5.3,-3.4 10.5,-6.7 15.8,-10.1 2.6,-1.7 5.1,-0.6 6.4,1.4 2.3,0.9 3.3,3.7 2.8,6 -2.5,12.6 -5.5,25.2 -8.9,37.6 -1.2,4.5 -6.7,4.5 -9.1,1.2 -3.5,-4.8 -7.1,-9.6 -10.6,-14.4 -2.6,-3.4 -7.7,-7.9 -7,-12.6 z m 11,-142.2 c 0.2,0.2 0.3,0.5 0.4,0.7 0.4,0.5 0.7,1.2 0.9,2.1 0.8,4.4 2.5,9.4 2.3,14 -0.1,2.5 -0.1,3.8 0.7,6.4 0.7,2.5 1.4,4.9 2.1,7.4 1,3.5 -2.5,7.5 -6.2,6.2 0,0 -0.1,0 -0.1,-0.1 -7.5,0.1 -15,0.2 -22.5,0.4 -1.1,0 -2,-0.3 -2.8,-0.8 8.2,-12.4 15,-25.8 25.2,-36.3 z m -59.7,349 c -0.8,-2.2 -1.6,-4.3 -2.4,-6.5 -0.1,-0.5 -0.2,-0.9 -0.4,-1.4 -0.5,-1.9 -1.1,-3.8 -1.8,-5.6 2.6,-1.6 5.9,-2.6 8.2,-3.6 l 8.5,-3.8 c 2.3,-1 4.9,-2.7 7.5,-2.3 4.4,0.6 7.6,7 9.7,10.4 2.5,4.2 6,9.9 6.3,14.9 0.3,5.1 -4.9,8.5 -8.1,11.7 -4.9,4.8 -9.8,9.7 -14.7,14.5 -0.3,0.3 -0.7,0.6 -1,0.8 -1,-2.3 -2.5,-4.5 -3.5,-6.8 -2,-4.4 -3.6,-8.9 -5.1,-13.5 -1.1,-3 -2.1,-5.9 -3.2,-8.8 z m 568.3,35.4 c 0.3,-1.6 1.3,-2.8 2.7,-3.5 4.3,-3.9 9,-7.2 14.2,-9.8 4.2,-2.1 8,1.9 7.6,5.3 0.8,3 1.6,6 2.2,9 0.6,2.9 1.5,6.3 -0.2,9.1 -1.4,2.4 -4.1,3.3 -6.6,4.3 -3.5,1.4 -7.1,2.8 -10.7,4.2 -3.9,1.5 -6.4,-2 -6,-5.3 -1.1,-3.5 -2.1,-7 -3,-10.6 -0.3,-0.8 -0.4,-1.8 -0.2,-2.7 z m -47.1,41 c -0.3,-1.4 -0.1,-3 1.2,-4.4 3.9,-4.3 7.1,-9 9.9,-14.1 0.7,-1.4 1.8,-2.1 3,-2.4 2.6,-1.6 6.5,-1.1 7.4,2.7 1,4.7 2,9.4 2.7,14.2 0.6,3.7 2.4,9.2 1,12.8 -3.4,8.9 -14.7,-1.1 -20.2,-0.1 -5.4,0.9 -8.2,-5.9 -5,-8.7 z m -44.9,-4.2 c 0.4,-0.5 0.9,-0.8 1.4,-1 v -0.1 c 0.3,-0.4 0.5,-0.8 0.8,-1.3 1.9,-3.1 6.8,-3.4 8.6,0 1.5,2.7 3,5.5 4.4,8.2 1.1,2.1 2.2,4.3 1.6,6.7 -0.7,2.6 -3.2,4.1 -5.2,5.7 -1.9,1.5 -3.8,3.5 -6.1,4.3 -5.5,2.1 -8.9,-4.9 -11.1,-8.8 -3.2,-5.7 2,-9.6 5.6,-13.7 z m -91.9,50.3 c 3.5,-0.7 7,-1.5 10.4,-2.5 3.1,-0.9 5.2,1 5.9,3.4 2.4,0.8 3.9,3.6 3.2,6 L 887,955 c -1.3,4.5 -8.6,5 -9.6,0 -1.8,-8.7 -3.8,-17.4 -6.1,-26 -0.8,-2.5 0.7,-5.6 3.4,-6.1 z m -96.5,-39.2 c -0.3,-0.8 -0.3,-1.8 -0.1,-2.8 0.7,-2.4 3.6,-4.5 6.2,-3.5 5.5,2.2 11.1,4.3 16.6,6.5 2.5,1 4.3,3.4 3.5,6.2 -0.4,1.4 -1.5,2.6 -2.9,3.3 -0.2,0.4 -0.5,0.8 -0.9,1.2 -4.5,4.8 -9,9.6 -13.5,14.3 -3.1,3.3 -8.4,0.7 -8.5,-3.5 -0.2,-6.6 -0.5,-13.2 -0.7,-19.7 -0.1,-0.7 0.1,-1.4 0.3,-2 z m -35,-39.6 c 1.9,-9.3 6.8,-18.6 10.2,-27.4 1.1,-2.7 3.6,-4.1 6.1,-3.4 2.1,-0.9 4.7,-0.6 6.4,1.8 1.5,2.2 3.4,4 5.6,5.5 2.1,1.4 4.2,2.4 5.2,4.8 1.9,4.8 -2.7,11.4 -4.6,15.7 -1.8,4.2 -3.2,10.4 -8,12.3 -2.4,0.9 -4.4,0.3 -6.7,-0.5 -3.1,-1.1 -6,-2.1 -9.3,-2.3 -3.4,-0.4 -5.5,-3.1 -4.9,-6.5 z M 631.4,720.8 c 0.6,-3.2 3.8,-5.8 7.1,-3.3 4,3 8,6 11.9,9 2.7,2.1 6.4,4.1 6,8.1 -0.3,3.4 -3.8,5.9 -5.9,8.3 l -10.8,11.6 c -3.2,3.4 -8.2,0.5 -8.5,-3.5 -0.8,-8.6 -1.6,-17.2 -2.3,-25.8 -0.3,-2.1 0.9,-3.6 2.5,-4.4 z m 11,166.1 c 0.1,3.6 -0.3,8 3.5,9.9 3.8,1.9 10.1,0 14.2,0.2 3.7,0.2 8.6,2 11.7,-0.7 3.5,-3 1.9,-9.5 1.7,-13.5 -0.2,-5.2 -0.4,-10.4 -0.7,-15.5 0.2,-0.9 0.5,-1.8 0.7,-2.7 0.9,-3.5 -2.5,-7.4 -6.2,-6.2 -5.2,1.7 -10.3,3.6 -15.3,5.7 -4,1.7 -9,2.9 -9.8,7.8 -0.8,4.8 0,10.2 0.2,15 z m 21.4,0.4 c -0.2,0 -0.5,0 -0.7,-0.1 0.4,-0.2 0.7,-0.4 1,-0.6 v 0.7 z m 45.1,-108.7 c 8.4,-8.6 16.7,-17.9 27.7,-23.3 4.7,-2.3 9,3.1 7.2,6.6 v 0.7 l -0.3,15.4 c -0.1,3.6 0.7,8.4 -0.5,11.8 -1.6,4.8 -5.6,4.7 -9.7,3.3 -2.4,-0.4 -4.4,-1.7 -7.1,-2.9 -4.3,-1.8 -8.9,-2.9 -13.6,-3.3 -4.4,-0.1 -6.9,-5 -3.7,-8.3 z m 10.9,121.7 c 3,-8.8 6.4,-17.5 10,-26 0.5,-1.1 1.2,-1.9 2,-2.4 1,-3.9 6.8,-6 9.1,-1.5 3.2,6.4 6.4,12.9 9.7,19.3 1.6,3.2 3.2,6.4 4.8,9.7 1.2,2.4 3,5.1 3.3,7.8 0.5,5.7 -4.9,7 -9.1,8.6 -5.9,2.2 -11.4,5.4 -16.2,9.5 -2.2,1.8 -6.5,2.2 -7.9,-1 -2,-4.7 -4.3,-9.3 -6.1,-14 -1.2,-3.7 -0.8,-6.4 0.4,-10 z M 565,748.9 c 2.9,-9.4 5,-19.7 8.9,-28.8 3.2,-7.5 8.9,-4.3 13.2,0.2 1.3,1.3 3.3,3.3 5.2,5.5 0.5,0.5 0.9,1 1.3,1.6 1.7,2.3 3.1,4.7 3,7 l 0.6,1.2 c 1.5,3 3.8,7.1 3.2,10.5 -0.7,3.9 -5.1,6.4 -7.9,8.8 -4.3,3.6 -8.5,7.3 -12.8,10.9 -1.8,1.5 -3.8,1.4 -5.7,0 -3,-2.3 -8.3,-5 -10.1,-8.4 -1.2,-2.8 0.2,-5.8 1.1,-8.5 z M 737.1,545 c -1.4,-6.2 -6,-12.2 -10,-16.9 -3,-3.6 -7.8,-9.1 -12.7,-6.4 -1.7,-0.3 -3.4,0.4 -4.3,2.6 -3.2,7.3 -6.3,14.5 -9.5,21.8 -2.6,5.9 -4,10.7 1.3,15.5 3,2.7 6.5,5.1 9.7,7.6 2.1,1.6 4.2,3.9 6.9,4.4 6.4,1.2 9.5,-7.2 12.2,-11.5 3.2,-5.2 7.8,-10.6 6.4,-17.1 z m 30.6,39.1 c -13.5,3 -27.2,5.2 -41,6.5 -4.6,0.4 -5.9,5.8 -3.9,8.5 1.8,9.8 4.6,19.4 8.2,28.7 1.2,3.1 5.7,5.4 8.4,2.2 10.5,-13 21.5,-25.5 33.1,-37.5 3.6,-3.7 0,-9.5 -4.8,-8.4 z M 739,599.2 c -1.8,1.1 -3.5,2.4 -5,3.8 -0.2,-1 -0.5,-2.1 -0.7,-3.1 1.8,-0.2 3.8,-0.4 5.7,-0.7 z m 13.6,0.1 c -0.2,-0.7 -0.5,-1.4 -0.9,-1.9 1,-0.2 2.1,-0.3 3.1,-0.5 -0.7,0.7 -1.5,1.6 -2.2,2.4 z m 313.9,183.9 c -0.3,-4.9 -1.6,-10 -3.4,-14.5 -0.4,-0.9 -0.9,-1.6 -1.6,-2.2 -1.3,-2 -3.8,-3.1 -6.5,-1.6 a 73.5,73.5 0 0 0 -16.5,12.9 c -1.8,1.9 -2,5.2 0,7.1 3.7,3.4 7.5,7.1 11.7,9.9 4,2.8 6.6,1.2 9.9,-1.8 3.1,-2.9 6.7,-5.2 6.4,-9.8 z m -19.6,29.8 c -7,-6.3 -12.5,-12.6 -17.6,-20.5 -1,-1.6 -2.5,-2.3 -4,-2.3 -2.6,-1.3 -6.1,-0.7 -6.8,3 -1.1,6.2 -2.1,12.4 -2.9,18.7 -0.7,5.4 -2.6,12.4 -1.5,17.8 0.9,4.6 5.8,6 9.6,7.5 5.9,2.4 12,4.2 18.3,5.4 2.5,0.5 5.5,-0.7 6.2,-3.5 1.1,-5.1 2.6,-10.3 3.4,-15.5 0.6,-4.7 -1.3,-7.5 -4.7,-10.6 z m -10.7,3.9 -0.9,-0.3 c -0.4,-0.7 -1,-1.3 -1.8,-1.9 0,-0.1 -0.1,-0.3 -0.1,-0.4 l 1.2,1.2 c 0.5,0.5 1,0.9 1.6,1.4 z m -48.5,27.5 c -3.9,-7.2 -3.6,-19.2 -10.4,-24.6 -1.7,-1.4 -4.1,-2.1 -6.1,-0.8 -4,2.6 -6.5,8 -8.7,12.1 -2.7,4.8 -5,9.8 -7,15 -0.6,1.5 -0.2,3 0.7,4.2 0.4,2.6 2.8,5.2 6.2,4.5 6.9,-1.4 13.9,-2.3 20.9,-2.8 3.9,-0.3 6.3,-4.1 4.4,-7.6 z"
         style="fill:#000000;fill-opacity:1"
         id="path78" /></g><path
       d="m 836.1,323 c 48,0 94.6,9.4 138.4,27.9 42.3,17.9 80.4,43.6 113,76.2 32.7,32.7 58.3,70.7 76.2,113 18.5,43.8 27.9,90.4 27.9,138.4 0,48 -9.4,94.6 -27.9,138.4 -17.9,42.3 -43.6,80.4 -76.2,113 -32.7,32.7 -70.7,58.3 -113,76.2 -43.8,18.5 -90.4,27.9 -138.4,27.9 -48,0 -94.6,-9.4 -138.4,-27.9 -42.3,-17.9 -80.4,-43.6 -113,-76.2 -32.7,-32.7 -58.3,-70.7 -76.2,-113 -18.5,-43.8 -27.9,-90.4 -27.9,-138.4 0,-48 9.4,-94.6 27.9,-138.4 17.9,-42.3 43.6,-80.4 76.2,-113 32.7,-32.7 70.7,-58.3 113,-76.2 43.8,-18.5 90.4,-27.9 138.4,-27.9 m 0,-12.8 c -203.4,0 -368.4,164.9 -368.4,368.4 0,203.5 164.9,368.4 368.4,368.4 203.5,0 368.4,-164.9 368.4,-368.4 0,-203.5 -165,-368.4 -368.4,-368.4 z"
       style="fill:#e66100"
       id="path82" /><linearGradient
       id="e"
       gradientUnits="userSpaceOnUse"
       x1="987.211"
       y1="913.35797"
       x2="825.76898"
       y2="662.52197"><stop
         offset="0"
         style="stop-color:#f1f1f1"
         id="stop84" /><stop
         offset="1"
         style="stop-color:#000"
         id="stop86" /></linearGradient><path
       opacity=".05"
       fill="url(#e)"
       d="m 836.1,323 c 48,0 94.6,9.4 138.4,27.9 42.3,17.9 80.4,43.6 113,76.2 32.7,32.7 58.3,70.7 76.2,113 18.5,43.8 27.9,90.4 27.9,138.4 0,48 -9.4,94.6 -27.9,138.4 -17.9,42.3 -43.6,80.4 -76.2,113 -32.7,32.7 -70.7,58.3 -113,76.2 -43.8,18.5 -90.4,27.9 -138.4,27.9 -48,0 -94.6,-9.4 -138.4,-27.9 -42.3,-17.9 -80.4,-43.6 -113,-76.2 -32.7,-32.7 -58.3,-70.7 -76.2,-113 -18.5,-43.8 -27.9,-90.4 -27.9,-138.4 0,-48 9.4,-94.6 27.9,-138.4 17.9,-42.3 43.6,-80.4 76.2,-113 32.7,-32.7 70.7,-58.3 113,-76.2 43.8,-18.5 90.4,-27.9 138.4,-27.9 m 0,-12.8 c -203.4,0 -368.4,164.9 -368.4,368.4 0,203.5 164.9,368.4 368.4,368.4 203.5,0 368.4,-164.9 368.4,-368.4 0,-203.5 -165,-368.4 -368.4,-368.4 z"
       style="display:inline;opacity:0.18314;mix-blend-mode:multiply;fill:url(#e)"
       id="path89" /></g><g
     transform="matrix(0.09843,0,0,0.0984284,-37.373639,-9.0257928)"
     id="g107"><radialGradient
       id="f"
       cx="978.34802"
       cy="469.04001"
       r="160.685"
       gradientTransform="matrix(-1,0,0,1,1633.956,0)"
       gradientUnits="userSpaceOnUse"><stop
         offset=".108"
         style="stop-color:#000"
         id="stop93" /><stop
         offset="1"
         style="stop-color:#000;stop-opacity:0"
         id="stop95" /></radialGradient><path
       opacity="0.3"
       fill="url(#f)"
       d="m 683.4,410.9 c 20.4,17.1 42.3,37.7 64.3,62.1 34.7,38.4 60.4,76.1 79.5,108.6 -59.8,-8.8 -126.9,-25.2 -197,-54.6 -13.7,-5.7 -26.9,-11.7 -39.6,-17.9 -21.2,-26.4 -19.7,-64.8 3.4,-89.4 23.2,-24.9 61.7,-28.7 89.4,-8.8 z"
       style="fill:url(#f)"
       id="path98" /><radialGradient
       id="g"
       cx="1090.801"
       cy="554.53699"
       r="186.589"
       gradientTransform="matrix(-1,0,0,1,1633.956,0)"
       gradientUnits="userSpaceOnUse"><stop
         offset=".108"
         style="stop-color:#000"
         id="stop100" /><stop
         offset="1"
         style="stop-color:#000;stop-opacity:0"
         id="stop102" /></radialGradient><path
       opacity="0.3"
       fill="url(#g)"
       d="m 551.7,504.9 c 34,21 39.5,54 61.9,83.8 12.9,17.2 34.8,37.8 74,51.5 -15.2,7 -45.4,18.1 -83.2,13.6 -4.1,-0.5 -65,-8.7 -104.2,-60.7 -12.9,-17.1 -31.4,-41.6 -22.3,-65.7 6.6,-17.6 26.7,-31.4 46.5,-31.4 9.2,0 17.7,3 27.3,8.9 z"
       style="fill:url(#g)"
       id="path105" /></g><path
     fill="#244e93"
     d="m 34.729361,98.531455 c 0,0 -1.26,-8.779857 -1.083,-13.159786 0.03,-0.797987 0.088,-1.673972 0.66,-2.224963 0.245,-0.245996 0.57,-0.403994 0.895,-0.531992 1.585,-0.659989 3.396,-0.865986 5.01,-0.274995 1.29,0.471992 2.648,1.652973 3.003,3.03195 0.364,1.436977 -0.68,2.607958 -1.447,3.71994 a 111.925,111.92318 0 0 1 -3.15,4.30193 c -0.561,0.718988 -1.132,1.426976 -1.703,2.135965 -0.286,0.334994 -2.185,3.001951 -2.185,3.001951 z"
     style="stroke-width:0.0984341"
     id="path109" /><path
     opacity="0.75"
     fill="#ffffff"
     d="m 34.729361,98.531455 c 0,0 -1.26,-8.779857 -1.083,-13.159786 0.03,-0.797987 0.088,-1.673972 0.66,-2.224963 0.245,-0.245996 0.57,-0.403994 0.895,-0.531992 1.585,-0.659989 3.396,-0.865986 5.01,-0.274995 1.29,0.471992 2.648,1.652973 3.003,3.03195 0.364,1.436977 -0.68,2.607958 -1.447,3.71994 a 111.925,111.92318 0 0 1 -3.15,4.30193 c -0.561,0.718988 -1.132,1.426976 -1.703,2.135965 -0.286,0.334994 -2.185,3.001951 -2.185,3.001951 z"
     style="stroke-width:0.0984341"
     id="path111" /><path
     opacity="0.28"
     d="m 35.192361,82.605714 c 3.09,-1.279979 5.01,-0.275995 5.01,-0.275995 0.275,0.117998 2.697,1.111982 3.012,3.03195 0.128,0.806987 -1.349,2.184965 -3.308,5.107917 0,0 -4.183,6.1229 -4.616,6.821889 -0.404,0.64999 -0.502,1.102982 -0.561,1.22998 1.614,-4.329929 3.484,-11.05382 3.484,-11.05382 0.07,-0.402993 0.138,-0.806987 0.108,-1.21998 -0.059,-1.043983 -0.698,-2.381961 -2.126,-2.785955 -1.427,-0.403993 -2.303,0.304995 -2.303,0.304995 0,0 0.226,-0.452992 0.413,-0.629989 0.246,-0.245996 0.561,-0.402994 0.886,-0.530992 z"
     style="stroke-width:0.0984341"
     id="path113" /><path
     opacity="0.24"
     fill="#ffffff"
     d="m 51.384361,69.188933 c 0.719,0.412993 2.422,1.269979 4.627,1.062983 a 7.766,7.7658735 0 0 0 2.323,-0.599991 7.803,7.8028729 0 0 0 1.939,-1.289979 7.648,7.6478754 0 0 0 1.801,-2.45096 11.381,11.380815 0 0 1 -4.587,2.952952 c -2.736,0.924985 -5.079,0.550991 -6.103,0.324995 z"
     id="path115"
     style="stroke-width:0.999992" /><g
     style="fill:url(#h);fill-opacity:1"
     transform="matrix(0.09843,0,0,0.0984284,-37.373639,-9.0257928)"
     id="g138"><radialGradient
       id="i"
       cx="773.92499"
       cy="785.88"
       r="118.569"
       gradientUnits="userSpaceOnUse"
       style="fill:url(#h);fill-opacity:1"><stop
         offset=".467"
         style="stop-color:#fff;fill-opacity:1;fill:url(#h)"
         id="stop117" /><stop
         offset=".523"
         style="stop-color:#fafafa;fill-opacity:1;fill:url(#h)"
         id="stop119" /><stop
         offset=".589"
         style="stop-color:#ececec;fill-opacity:1;fill:url(#h)"
         id="stop121" /><stop
         offset=".66"
         style="stop-color:#d4d4d4;fill-opacity:1;fill:url(#h)"
         id="stop123" /><stop
         offset=".735"
         style="stop-color:#b3b3b3;fill-opacity:1;fill:url(#h)"
         id="stop125" /><stop
         offset=".812"
         style="stop-color:#888;fill-opacity:1;fill:url(#h)"
         id="stop127" /><stop
         offset=".891"
         style="stop-color:#545454;fill-opacity:1;fill:url(#h)"
         id="stop129" /><stop
         offset=".972"
         style="stop-color:#171717;fill-opacity:1;fill:url(#h)"
         id="stop131" /><stop
         offset="1"
         style="stop-color:#000;fill-opacity:1;fill:url(#h)"
         id="stop133" /></radialGradient><path
       opacity="0.24"
       fill="url(#i)"
       d="M 749,669.9 866.3,774.7 826.4,722.3 819.3,702 797.2,688.6 786,669.9 c 0,0 -14.8,-15.8 -25.9,-10.2 -11.1,5.7 -11.1,10.2 -11.1,10.2 z"
       style="fill:url(#j);fill-opacity:1"
       id="path136" /></g><path
     fill="#244e93"
     d="m 43.968913,60.395755 c 0,0 4.340763,10.216868 12.707313,8.130186 8.36655,-2.086682 6.919629,-12.244493 6.919629,-12.244493 -0.452778,0.255914 -0.974457,0.521671 -1.555194,0.767742 -0.738225,0.314971 -1.427235,0.541356 -2.047344,0.708684 -0.413406,0.118114 -1.259904,0.314971 -2.283576,0.07874 -1.053201,-0.246071 -1.712682,-0.816956 -2.096559,-1.151612 -0.797283,-0.708685 -1.220532,-1.496112 -1.437078,-1.998097 0,0 0.206703,2.411496 -1.259904,3.907607 -1.791426,1.820926 -4.606524,1.968568 -5.935329,2.057154 -1.250061,0.05906 -2.303262,-0.09843 -3.011958,-0.255914 z"
     style="fill:#813d9c;stroke-width:0.0984292"
     id="path140" /><g
     transform="matrix(0.09843,0,0,0.0984284,-37.373639,-9.0257928)"
     id="g149"><linearGradient
       id="k"
       gradientUnits="userSpaceOnUse"
       x1="924.09698"
       y1="672.30701"
       x2="938.164"
       y2="758.79303"><stop
         offset="0"
         style="stop-color:#000;stop-opacity:.61732364"
         id="stop142" /><stop
         offset="1"
         style="stop-color:#cbcbcb;stop-opacity:.60400689"
         id="stop144" /></linearGradient><path
       fill="url(#k)"
       d="m 826.4,705.3 c 0,0 44.1,103.8 129.1,82.6 85,-21.2 70.3,-124.4 70.3,-124.4 -4.6,2.6 -9.9,5.3 -15.8,7.8 -7.5,3.2 -14.5,5.5 -20.8,7.2 -4.2,1.2 -12.8,3.2 -23.2,0.8 -10.7,-2.5 -17.4,-8.3 -21.3,-11.7 -8.1,-7.2 -12.4,-15.2 -14.6,-20.3 0,0 2.1,24.5 -12.8,39.7 -18.2,18.5 -46.8,20 -60.3,20.9 -12.7,0.6 -23.4,-1 -30.6,-2.6 z"
       style="fill:url(#k)"
       id="path147" /></g><path
     fill="none"
     stroke="#000000"
     stroke-width="0.9843"
     stroke-linejoin="round"
     stroke-miterlimit="10"
     d="m 43.273361,60.074081 c 0,0 0.3,0.724989 0.895,1.765972 1.728,3.02495 5.943,8.717858 12.512,7.033885 8.83,-2.253963 7.209,-13.266784 7.209,-13.266784"
     id="path151" /><g
     transform="matrix(0.09843,0,0,0.0984284,-37.373639,-9.0257928)"
     id="g189"><defs
       id="defs154"><path
         id="l"
         d="m 809.3,667.4 c 0,0 6.9,18.4 17.3,38.1 21.6,41.1 63.8,98.4 129.6,81.6 97.4,-24.9 64.1,-157 64.1,-157 z" /></defs><clipPath
       id="m"><use
         xlink:href="#l"
         overflow="visible"
         id="use156" /></clipPath><g
       clip-path="url(#m)"
       style="fill:#813d9c"
       id="g163"><path
         fill="#244e93"
         d="m 935.1,794.7 c -30.1,0 -53.3,-16.8 -54.2,-17.6 l -2.9,-2.2 2.3,-2.8 c 7.5,-9.4 16.4,-17 26.5,-22.7 8.4,-4.7 18.7,-9.6 30.4,-9.6 2.1,0 4.3,0.2 6.4,0.5 4.1,0.6 8.4,2.5 12.5,4.8 -0.2,-1.2 -0.1,-2.1 0.1,-2.9 1,-3.9 4.3,-6 5.5,-6.8 2.8,-1.8 6.3,-2.7 10.5,-2.7 14.1,0 33.4,10 38.9,13.1 l 3.2,1.7 -1.9,3.1 c -3.3,5.5 -7.1,10.6 -11.5,15.2 -10.7,11.3 -25.5,19.9 -43.9,25.5 -6.9,2.3 -14.3,3.4 -21.9,3.4 z"
         style="fill:#813d9c"
         id="path159" /><path
         d="m 972.3,736.3 c 13.9,0 33.8,10.8 37.2,12.7 -2.3,3.9 -5.9,9.1 -11,14.6 -8.1,8.5 -20.8,18 -42.4,24.5 -7.2,2.2 -14.3,3.1 -21,3.1 -29.3,0 -52.1,-16.9 -52.1,-16.9 5.8,-7.3 14.1,-15.4 25.5,-21.8 7.2,-4 17.2,-9.1 28.7,-9.1 1.9,0 3.9,0.1 5.9,0.5 12.3,1.9 28.1,16.8 28.1,16.8 0,0 -13.1,-12.8 -11.5,-17.4 0.7,-2.6 3,-4.1 4.1,-4.8 2.2,-1.6 5.2,-2.2 8.5,-2.2 m 0,-7 c -4.9,0 -9.1,1.1 -12.4,3.2 -1.3,0.8 -4.8,3.1 -6.5,7.3 -3.1,-1.4 -6.2,-2.5 -9.2,-2.9 -2.3,-0.4 -4.6,-0.5 -6.9,-0.5 -12.6,0 -23.3,5.1 -32.1,10 -10.5,5.9 -19.8,13.8 -27.6,23.6 l -4.5,5.7 5.8,4.3 c 1,0.7 25,18.2 56.3,18.2 7.9,0 15.7,-1.1 23.1,-3.4 19,-5.8 34.3,-14.7 45.4,-26.4 a 92.1,92.1 0 0 0 11.9,-15.8 l 3.7,-6.2 -6.3,-3.5 c -7.5,-4.1 -26.2,-13.6 -40.7,-13.6 z"
         style="fill:#813d9c"
         id="path161" /></g><g
       opacity="0.29"
       clip-path="url(#m)"
       transform="translate(0,20)"
       id="g172"><linearGradient
         id="n"
         gradientUnits="userSpaceOnUse"
         x1="962.38202"
         y1="788.216"
         x2="941.33301"
         y2="753.48499"
         gradientTransform="translate(0,-20)"><stop
           offset="0"
           style="stop-color:#f1f1f1"
           id="stop165" /><stop
           offset="1"
           style="stop-color:#000"
           id="stop167" /></linearGradient><path
         fill="url(#n)"
         d="m 883,754.3 c 5.8,-7.3 14.1,-15.4 25.5,-21.8 8.4,-4.7 20.7,-10.9 34.6,-8.7 12.3,1.9 28.1,16.8 28.1,16.8 0,0 -13.1,-12.8 -11.5,-17.4 0.7,-2.6 3,-4.1 4.1,-4.8 12.1,-7.8 41.6,8.2 45.9,10.6 -2.3,3.9 -5.9,9.1 -11,14.6 -8.1,8.5 -20.8,18 -42.4,24.5 C 917.5,779.8 883,754.3 883,754.3 Z"
         style="fill:url(#n)"
         id="path170" /></g><radialGradient
       id="o"
       cx="981.58398"
       cy="720.34998"
       r="67.18"
       gradientTransform="rotate(-33.726,963.93,761.148)"
       gradientUnits="userSpaceOnUse"><stop
         offset="0"
         style="stop-color:#fff"
         id="stop174" /><stop
         offset="1"
         style="stop-color:#fff;stop-opacity:0"
         id="stop176" /></radialGradient><path
       opacity="0.43"
       clip-path="url(#m)"
       fill="url(#o)"
       d="m 983.8,775.3 c -2.8,-5.2 -5.6,-8.4 -7.8,-10.4 -0.9,-0.9 -2,-1.8 -4.2,-3.9 -1.8,-1.7 -3.5,-3.3 -5.5,-5.7 -1,-1.1 -2.4,-2.8 -3.9,-5 -2.6,-3.7 -3.3,-5.2 -2.9,-6.5 0.1,-0.3 0.3,-1.1 0.9,-1.4 3.3,-1.7 15.9,11.8 21.8,28 0.9,2.2 1.4,4 1.6,4.9 z"
       style="fill:url(#o)"
       id="path179" /><g
       opacity="0.85"
       clip-path="url(#m)"
       id="g187"><path
         fill="#e6d6b8"
         d="m 937.1,799.4 c -13.7,0 -27.2,-9.4 -27.8,-9.8 l -1.3,-0.9 10.7,-25 c 1.2,-2.7 3.8,-4.5 6.8,-4.5 2.6,0 4.9,1.3 6.2,3.5 l 20,31.9 -1.6,1.1 c -3.7,2.4 -8.1,3.7 -13,3.7 z"
         id="path181" /><path
         d="m 925.4,761.2 c 1.7,0 3.5,0.8 4.5,2.5 l 19,30.3 c -3.7,2.4 -7.8,3.3 -11.9,3.3 -13.2,0 -26.7,-9.4 -26.7,-9.4 l 10.1,-23.5 c 1,-2.1 3,-3.2 5,-3.2 m 0,-4 c -3.8,0 -7.2,2.2 -8.6,5.7 l -10.1,23.5 -1.3,3 2.7,1.9 c 0.6,0.4 14.7,10.1 29,10.1 5.3,0 10.1,-1.3 14.1,-4 l 3.3,-2.1 -2.1,-3.3 -19,-30.3 c -1.7,-2.8 -4.7,-4.5 -8,-4.5 z"
         id="path183" /><path
         opacity="0.28"
         fill="#244e93"
         d="m 916.5,791.5 c 7.1,0.3 11.1,-3.3 13.9,-7.6 2.9,-4.3 -2.1,-12.3 -5.1,-18.9 -3,-6.6 3.8,-2.3 3.8,-2.3 0,0 17.7,28.6 19.7,31.1 v 0.3 c -0.2,0.1 -0.3,0.2 -0.5,0.3 -2.7,1.4 -8.3,3.8 -15.2,2.7 -8.9,-1.4 -17.2,-5.6 -16.6,-5.6 z"
         id="path185" /></g></g><path
     fill="#e6d6b8"
     d="m 61.425361,61.059065 a 0.854,0.85398609 0 0 1 -0.64,-0.295995 l -2.225,-2.637957 a 0.198,0.19799677 0 0 1 0.148,-0.324995 c 0.03,0 3.307,-0.05 4.114,-1.604973 a 0.196,0.19599681 0 0 1 0.178,-0.107999 c 0.02,0 0.049,0 0.068,0.01 0.09,0.04 0.148,0.127998 0.128,0.225996 l -0.945,4.075934 a 0.85,0.84998615 0 0 1 -0.826,0.659989 z"
     id="path191"
     style="stroke-width:0.999992" /><path
     d="m 63.000361,56.294143 -0.955,4.074934 a 0.638,0.63798961 0 0 1 -0.63,0.501991 0.642,0.64198954 0 0 1 -0.492,-0.225996 l -2.225,-2.637957 c 0.01,-0.01 3.425,-0.04 4.302,-1.712972 m 0,-0.393994 a 0.386,0.38599371 0 0 0 -0.345,0.206997 c -0.63,1.19998 -3.061,1.485976 -3.947,1.495976 a 0.401,0.40099347 0 0 0 -0.355,0.225996 0.374,0.37399391 0 0 0 0.06,0.413993 l 2.224,2.637957 c 0.197,0.235996 0.482,0.363994 0.788,0.363994 0.482,0 0.905,-0.333994 1.013,-0.806987 l 0.945,-4.074933 a 0.391,0.39099363 0 0 0 -0.246,-0.462993 c -0.049,0.01 -0.098,0 -0.137,0 z"
     id="path193"
     style="stroke-width:0.999992" /><path
     opacity="0.28"
     fill="#244e93"
     d="m 61.484361,58.095114 c -0.168,-0.117998 -0.581,-0.137998 -1.418,-0.127998 -0.492,0.01 -0.67,0.01 -0.679,-0.01 0,-0.01 0.807,-0.078 1.417,-0.245996 0.6,-0.166997 1.379,-0.530991 2.196,-1.416977 -0.08,0.343994 -0.148,0.61999 -0.187,0.796987 -0.384,1.643973 -0.375,1.555975 -0.404,1.732972 -0.079,0.422993 -0.295,1.446976 -0.384,1.633973 -0.089,0.186997 -0.187,0.255996 -0.207,0.274996 a 0.552,0.55199101 0 0 1 -0.265,0.117998 c 0.118,-0.294995 0.255,-0.766988 0.275,-1.357978 0,-0.560991 0.01,-1.131982 -0.344,-1.397977 z"
     id="path195"
     style="stroke-width:0.999992" /><path
     fill="#e6d6b8"
     d="m 49.839361,64.523009 a 0.723,0.72298822 0 0 1 -0.581,-0.294995 l -2.886,-3.738939 0.474,0.002 c 0.236,0.02 0.414,0.143997 0.66,0.143997 0.394,0 0.797,-0.226996 1.191,-0.275995 a 8.909,8.9088549 0 0 0 2.894,-0.894986 l 0.413,-0.206996 -1.447,4.743922 a 0.76,0.75998762 0 0 1 -0.718,0.521992 z"
     id="path197"
     style="stroke-width:0.999992" /><path
     d="m 51.670361,59.641088 -1.32,4.30093 a 0.54,0.5399912 0 0 1 -0.511,0.383994 0.518,0.51799156 0 0 1 -0.423,-0.215996 l -2.745,-3.444944 c 0.226,0.02 0.57,-0.03 0.835,-0.03 a 9.183,9.1828504 0 0 0 4.164,-0.993984 m 0.65,-0.757987 -0.827,0.412993 c -0.896,0.452993 -1.602,0.903985 -2.577,1.031983 -0.384,0.05 -1.016,0.109998 -1.4,0.109998 -0.236,0 -0.168,0.312995 -0.404,0.293996 l -0.895,-0.293996 0.245,0.412994 2.648,3.504943 a 0.928,0.92798488 0 0 0 1.634,-0.285996 l 1.32,-4.30093 z"
     id="path199"
     style="stroke-width:0.999992" /><path
     opacity="0.28"
     fill="#244e93"
     d="m 48.540361,60.576073 a 9.013,9.0128532 0 0 0 1.643,-0.334994 c 0.581,-0.176997 1.083,-0.393994 1.487,-0.589991 l -1.339,4.33993 c -0.108,0.255995 -0.325,0.295995 -0.325,0.295995 0.138,-0.413994 0.305,-1.131982 0.108,-1.939969 -0.059,-0.254996 -0.147,-0.58999 -0.423,-0.924985 -0.384,-0.461992 -0.935,-0.796987 -1.152,-0.845986 z"
     id="path201"
     style="stroke-width:0.999992" /><g
     transform="matrix(0.09843,0,0,0.0984284,-37.373639,-9.0257928)"
     id="g218"><linearGradient
       id="p"
       gradientUnits="userSpaceOnUse"
       x1="910.66302"
       y1="666.62299"
       x2="902.64001"
       y2="625.05402"><stop
         offset="0"
         style="stop-color:#363636;stop-opacity:.22186612"
         id="stop203" /><stop
         offset=".608"
         style="stop-color:#4c4c4c;stop-opacity:.03137255"
         id="stop205" /><stop
         offset="1"
         style="stop-color:#fff;stop-opacity:0"
         id="stop207" /></linearGradient><path
       fill="url(#p)"
       d="m 749,665.4 c 6.7,-3.7 16.4,-7.6 25.7,-4.5 9.6,3.2 12.9,12.1 19,20.1 15.5,20.4 41.6,25.2 51.7,27.1 27,5 70.6,-10.9 81.4,-31.9 6,-11.5 4.3,-24.1 2.4,-32.1 3,8.8 9.2,21.9 22.4,29.7 25.3,15.1 60.2,1 78.6,-18.7 13.3,-14.3 17.3,-30.8 18.6,-38.9 0,0 3.1,-12.4 11.7,-10.8"
       style="fill:url(#p)"
       id="path210" /><path
       opacity="0.4"
       fill="#4a232b"
       d="m 793.6,681 c 11.6,4.5 43.3,15 81.7,5.1 27,-7 45.4,-20.9 54.7,-29.2 0.1,4 -0.1,14.2 -6.7,24.5 -8.7,13.6 -22.2,17.6 -25.5,18.4 -6.5,3 -16.3,6.7 -28.8,8.2 -14,1.7 -25.5,-0.1 -33,-1.8 -5.6,-1.1 -13.5,-3.3 -22,-8.1 -9.8,-5.7 -16.5,-12.4 -20.4,-17.1 z"
       style="fill:#2b2b2b;fill-opacity:0.698039"
       id="path212" /><path
       opacity="0.4"
       fill="#4a232b"
       d="m 935.5,654.4 c 7,3.1 30.4,12.3 59.2,4.8 33.2,-8.8 49.7,-33.8 53.3,-39.5 -2.8,16.6 -15.5,32.1 -26.7,41.4 a 93.477,93.477 0 0 1 -32.1,17.5 c -3.5,1.1 -17.6,4.9 -32.9,-2.2 -12.6,-6 -18.8,-18.4 -20.8,-22 z"
       style="fill:#2b2b2b;fill-opacity:0.699723"
       id="path214" /><path
       fill="none"
       stroke="#000000"
       stroke-width="6"
       stroke-linecap="round"
       stroke-linejoin="round"
       stroke-miterlimit="10"
       d="m 749,665.4 c 6.7,-3.7 16.4,-7.6 25.7,-4.5 9.6,3.2 12.9,12.1 19,20.1 15.5,20.4 41.6,25.2 51.7,27.1 27,5 70.6,-10.9 81.4,-31.9 6,-11.5 4.3,-24.1 2.4,-32.1 3,8.8 9.2,21.9 22.4,29.7 25.3,15.1 60.2,1 78.6,-18.7 13.3,-14.3 17.3,-30.8 18.6,-38.9 0,0 3.1,-12.4 11.7,-10.8"
       id="path216" /></g><g
     transform="matrix(0.09843,0,0,0.0984284,-37.373639,-9.0257928)"
     id="g244"><g
       style="fill:#2ec27e"
       id="g224"><ellipse
         cx="885.59998"
         cy="511.5"
         rx="107.6"
         ry="107.5"
         style="display:inline;fill:#2ec27e;fill-opacity:1"
         id="ellipse220" /><path
         d="m 885.6,407 c 57.8,0 104.6,46.8 104.6,104.5 C 990.2,569.2 943.4,616 885.6,616 827.8,616 781,569.2 781,511.5 781,453.8 827.8,407 885.6,407 m 0,-6 c -29.5,0 -57.3,11.5 -78.2,32.4 -20.9,20.9 -32.4,48.6 -32.4,78.1 0,29.5 11.5,57.3 32.4,78.1 20.9,20.9 48.7,32.4 78.2,32.4 29.5,0 57.3,-11.5 78.2,-32.4 20.9,-20.9 32.4,-48.6 32.4,-78.1 0,-29.5 -11.5,-57.3 -32.4,-78.1 C 942.9,412.5 915.1,401 885.6,401 Z"
         style="display:inline;fill:#2ec27e"
         id="path222" /></g><g
       transform="translate(-20)"
       id="g233"><radialGradient
         id="q"
         cx="898.09302"
         cy="641.599"
         r="164.254"
         gradientTransform="matrix(-0.37024,-1.15236,1.58399,-0.50893,255.093,1976.56)"
         gradientUnits="userSpaceOnUse"
         fx="898.09302"
         fy="641.599"><stop
           offset="0"
           style="stop-color:#dedede;stop-opacity:.7372396"
           id="stop226" /><stop
           offset="1"
           style="stop-color:#101010;stop-opacity:.56355929"
           id="stop228" /></radialGradient><ellipse
         fill="url(#q)"
         cx="905.59998"
         cy="511.5"
         rx="104.6"
         ry="104.5"
         style="display:inline;mix-blend-mode:hard-light;fill:url(#q)"
         id="ellipse231" /></g><circle
       fill="#244E93"
       cx="880.90002"
       cy="507.79999"
       r="66.400002"
       style="display:inline;fill:url(#r);fill-opacity:1"
       id="circle235" /><linearGradient
       id="s"
       gradientUnits="userSpaceOnUse"
       x1="769.125"
       y1="437.754"
       x2="754.55701"
       y2="562.62799"
       gradientTransform="matrix(-1,0,0,1,1633.956,0)"><stop
         offset="0"
         style="stop-color:#fff"
         id="stop237" /><stop
         offset="1"
         style="stop-color:#fff;stop-opacity:0"
         id="stop239" /></linearGradient><circle
       fill="url(#s)"
       cx="872.20001"
       cy="500.89999"
       r="42.200001"
       style="display:inline;fill:url(#s)"
       id="circle242" /></g><path
     fill="#244e93"
     d="m 29.896361,31.419548 c 0,0 -4.833,-4.015934 -8.072,-8.749857 -3.238,-4.734923 -5.424,-11.566812 -3.464,-17.6597124 -4.882,4.7649224 -6.408,13.9187734 -3.583,23.1126234 1.624,5.255914 4.351,11.279816 5.365,12.195801 1.467,1.338978 4.646,2.105966 8.83,-1.909969 4.183,-4.015934 0.925,-6.988886 0.925,-6.988886 z"
     id="path246"
     style="stroke-width:0.999992" /><path
     opacity="0.75"
     fill="#fff"
     d="m 29.893423,31.418435 c 0,0 -4.832913,-4.015878 -8.07126,-8.750284 C 18.583816,17.933745 16.39867,11.102814 18.357427,5.0100966 13.475299,9.774031 11.949634,18.927872 14.774575,28.121084 c 1.624095,5.256076 4.350606,11.279894 5.364435,12.195278 1.466607,1.338626 4.645896,2.106368 8.829171,-1.909511 4.183275,-4.015878 0.925242,-6.988416 0.925242,-6.988416 z"
     style="fill:#fffff1;stroke-width:0.0984292"
     id="path248" /><path
     opacity="0.28"
     d="m 20.092361,40.289404 c -0.04,-0.04 -0.05,-0.03 0,0 z m 7.166,-10.089836 c -1.467,-1.358978 -3.888,-3.71094 -6.753,-8.110868 -2.402,-3.69194 -3.593,-7.933871 -3.268,-12.1668014 0,-1.6529731 0.236,-3.3069462 0.768,-4.91192 -0.158,0.4139932 -1.162,1.6439732 -1.792,4.1839318 -0.324,1.3089786 -0.58,3.6809396 -0.521,4.9699186 0.187,3.809938 0.994,7.569877 3.258,11.576812 2.264,4.005934 5.571,8.809856 5.571,8.809856 0,0 1.585,2.007967 0.64,3.907936 -0.945,1.89997 -2.697,2.174965 -3.406,2.135966 -1.082,-0.06 -1.535,-0.246996 -1.663,-0.305995 0.01,0.01 0.03,0.02 0.049,0.04 1.506,1.337978 4.4,2.233964 8.702,-1.781971 1.92,-1.790971 2.333,-3.405944 2.195,-4.645924 -0.876,-1.319979 -2.59,-2.598958 -3.78,-3.70094 z"
     id="path250"
     style="stroke-width:0.999992" /><path
     fill="#244e93"
     d="m 17.769361,44.885329 c -0.237,1.869969 -1.93,3.149948 -3.239,3.64194 -3.553,1.348978 -8.0319998,-2.302962 -10.0899998,-4.812921 -4.00500003,-4.91192 -3.306,-11.04482 -3.07,-12.658794 1.417,4.409928 3.514,6.269898 5.118,7.155884 4.1049998,2.263963 8.5049998,0.137997 10.5619998,2.982951 1.152,1.564974 0.738,3.533942 0.719,3.69094 z"
     id="path252"
     style="stroke-width:0.999992" /><path
     opacity="0.75"
     fill="#ffffff"
     d="m 17.769361,44.885329 c -0.237,1.869969 -1.93,3.149948 -3.239,3.64194 -3.553,1.348978 -8.0319998,-2.302962 -10.0899998,-4.812921 -4.00500003,-4.91192 -3.306,-11.04482 -3.07,-12.658794 1.417,4.409928 3.514,6.269898 5.118,7.155884 4.1049998,2.263963 8.5049998,0.137997 10.5619998,2.982951 1.152,1.564974 0.738,3.533942 0.719,3.69094 z"
     id="path254"
     style="stroke-width:0.999992" /><path
     opacity="0.28"
     d="m 17.838361,43.113358 c 0,-0.539992 -0.197,-1.396978 -0.748,-2.095966 a 2.75,2.7499552 0 0 0 -0.64,-0.589991 c -0.177,-0.01 -3.642,-0.472992 -4.981,-0.472992 -0.463,0 -1.9499998,-0.04 -3.3959998,-0.551991 -1.969,-0.697989 -3.15,-2.007967 -3.869,-2.814954 -1.722,-1.909969 -2.785,-5.659908 -2.795,-5.699907 -0.02,0.128998 -0.04,0.275995 -0.06,0.453992 a 17.54,17.539714 0 0 0 1.33,4.30093 c 0.63,1.368978 1.752,3.809938 4.144,5.649908 2.913,2.224964 5.5019998,1.771971 6.1909998,3.829938 0.089,0.274995 0.374,1.279979 -0.128,1.967968 -0.482,0.649989 -1.466,0.738988 -2.136,0.806987 -0.541,0.05 -1.0039998,0.01 -1.3189998,-0.039 0.296,0.157998 2.1859998,1.170981 3.9079998,0.983984 0.64,-0.069 1.24,-0.304995 1.24,-0.304995 a 5.262,5.2619143 0 0 0 1.408,-0.786987 c 0.345,-0.265996 0.58,-0.511992 0.69,-0.62999 0.216,-0.235996 0.57,-0.629989 0.826,-1.22998 0.05,-0.108998 0.148,-0.354994 0.226,-0.689988 0,0 0.07,-0.264996 0.118,-0.559991 0.09,-0.768988 -0.01,-1.526975 -0.01,-1.526975 z"
     id="path256"
     style="stroke-width:0.999992" /></svg>
