<svg height="$height" viewBox="0 0 102 100" xmlns="http://www.w3.org/2000/svg"><path style="fill:#111112;fill-opacity:1;stroke-width:.905141" d="M53.205 22.595c-.757.013-1.37.42-1.841 1.215-.127.906.226 1.34 1.058 1.295.832-.67 1.275-1.495 1.329-2.455a2.512 2.517 0 0 0-.546-.055zm-4.445.417c-1.112 3 .769 6.116 3.97 6.55l-.055-1.186c1.374-.263 2.667-.789 3.408-2.048.905.163 1.79.335 2.686.525l.108-1.893c1.01-1.65-2.486-2.718-2.812-.961-1.392.716-2.44 1.876-3.074 3.317-.551-.417-1.663-1.242-2.215-1.659l-.045 1.903c-.678-1.513-1.32-3.035-1.97-4.549zm11.98 2.673c-.75 1.06-1.501 2.12-2.306 3.136-1.058.543-2.152 1.033-3.228 1.54.217 1.486-.253 2.818-1.157 3.978a59.065 59.065 0 0 0-.081-1.26c.018-.416.045-1.233.063-1.64-2.613-1.033-5.479-1.73-7.332-4.032-3.77.915-7.676.67-11.519.49-3.02-.263-5.768 1.15-8.11 2.916-5.542 4.024-8.968 10.43-9.601 17.236l-.1.235c-1.555 4.377-4.818 7.848-6.337 12.243 2.938-.363 5.958-.861 8.453-2.565.398-.253 1.175-.76 1.564-1.014-.696 8.573.326 17.77 5.362 24.992 1.265 1.758 2.766 3.325 4.366 4.775 2.134 1.015 4.503 1.278 6.817 1.532.95.127 1.908.272 2.857.416 2.966.553 5.986.627 8.96.064-.28.924-.832 2.782-1.112 3.706 1.004.97 2.098 1.858 3.39 2.429.47.435 1.393 1.323 1.863 1.767l-.01.081c1.077.616 2.135 1.269 3.238 1.84.732.1 2.206.28 2.947.38 0-2.9.579-5.763 2.025-8.291 1.185-1.586 2.523-3.045 3.915-4.458v-1.197l-.136-2.927c-.027-.516-.063-1.558-.081-2.075a90.83 90.83 0 0 1 3.047-.625c1.546-.28 3.092-.544 4.638-.78-1.184-.724-2.477-1.204-3.761-1.711 1.302.063 2.604.036 3.906-.092l.289-.054c-.045-1.722-.127-3.434-.19-5.156a18.258 18.3 0 0 0-4.308-.449c-3.152.035-6.275.789-9.308 1.736-1.681.054-3.327-.372-4.602-1.55-2.712-3.162-5.46-6.425-6.943-10.385 2.576 3.734 5.307 7.359 8.453 10.63 4.114.245 7.866-1.957 11.952-1.785 2.668-.073 5.615.951 7.902-.96-.56-.517-1.681-1.541-2.242-2.058l-2.956-2.718c2.188-1.713 4.385-3.417 6.7-4.966l-.344-.363c.343-1.63.397-3.307.687-4.947l-3.698-.11c-1.42-.108-2.83-.343-4.24-.588-.443-1.423-.904-2.836-1.447-4.214-.226-.462-.669-1.377-.895-1.83-1.094-1.713-2.468-3.217-3.788-4.758-.624-1.26-1.112-2.582-1.51-3.923.334-2.375.94-4.685 1.654-6.96-.198 1.813-.533 3.616-.877 5.42.525.416 1.05.824 1.583 1.232a7.29 7.29 0 0 1 4.99-.327c.109.59.308 1.767.407 2.356-.506-.58-1.519-1.721-2.025-2.292-.687 1.314-1.42 2.619-2.333 3.797-.669-2.356-1.59-3.226-2.278-1.16.416.426 1.248 1.268 1.664 1.694 2.585 2.655 4.068 6.08 5.623 9.388.353.236 1.049.707 1.402.943-.208-.662-.633-1.994-.841-2.665-.742-2.02-1.736-3.941-2.667-5.88 2.432 2.174 4.89 4.367 7.739 5.99 3.345 1.286 7.06 1.866 10.524.624-2.062-2.51-3.5-5.418-4.774-8.39-1.004-1.477-2.224-2.792-3.48-4.06-2.28-2.12-5.317-3.053-7.894-4.72-1.853-1.414-3.1-3.454-4.773-5.067-1.845-.979-3.77-1.766-5.696-2.564zM43.562 37.43c2.486.127 4.972.19 7.458.135l.046.263c-.489 1.532-.75 3.353-2.306 4.223-1.03-.77-1.636-1.912-2.296-2.981-.75.09-2.252.28-3.002.38a79.768 79.768 0 0 0 1.971 3.272c1.772.262 3.535.561 5.316.77l-.28.081c-2.785.227-5.407-.842-7.93-1.857.29-1.441.625-2.873 1.023-4.286zm-5.75 1.106-.046 1.376c-.298 3.924.19 7.839.714 11.717-.949-1.984-1.681-4.06-2.269-6.18-1.13 1.622-2.278 3.244-3.59 4.74-1.889 1.612-3.968 3.026-6.238 4.06-.57.207-1.708.633-2.269.85a120.011 120.011 0 0 0 4.24-3.17c4.602-3.262 7.622-8.128 9.457-13.393zm18.814 12.434c.877.015 1.772.18 2.649.442l.57.108c2.197 1.151 4.403 2.311 6.392 3.797.37.345 1.12 1.033 1.491 1.387-1.12-.68-2.233-1.369-3.363-2.021a41.273 41.367 0 0 0-4.204-1.83c-1.645-.463-3.354-1.115-5.1-.789-2.142.59-1.934 3.19-2.45 4.92.037-1.53.073-3.071-.072-4.603 1.21-1.047 2.624-1.437 4.087-1.411zm-.362 4.42c2.035.933 3.879 2.229 5.552 3.724-.516-.263-1.547-.78-2.062-1.042-.642.082-1.917.236-2.558.317-.317-.997-.633-2.002-.932-3zm-26.129 1.984c.742 2.094 1.203 4.287 1.962 6.38.353.797.724 1.586 1.103 2.365 1.366.48 2.722.979 4.05 1.568.796.879 1.547 1.803 2.306 2.718a15.543 15.543 0 0 0-1.718 2.728c.154 2.691 3.563 3.444 4.973 5.51-2.016-.96-3.96-2.04-5.93-3.073a66.47 66.47 0 0 1 1.147-5.328 250.656 251.227 0 0 0-2.848-3.335c-.524.018-1.573.055-2.097.064-.271-.462-.823-1.387-1.103-1.84-1.23-2.401-2.26-5.002-1.845-7.757z"/><path d="M2.687 10.587C6.69 2.631 16.367-.83 24.82.167c4.548 1.267 9.095 2.554 13.779 3.226 1.21.244 2.423.508 3.625.78-1.962 4.677-7.486 3.798-11.51 3.143-6.146-.96-13.943-.082-17.212 5.998-2.07 4.558-2.144 10.46.605 14.755 2.14 2.2 5.486 1.349 7.82-.057 3.95-1.738 4.935-6.395 7.975-9.142 5.08-5.272 13.895-8.617 20.56-4.306 1.13.463 2.24 1.659 3.55 1.217 4.186-1.217 8.725-2.294 13.021-.97 6.282 3.206 10.295 9.306 14.99 14.372 3.139-.754 6.374-2.52 7.16-5.92.94-4.285 1.22-9.73-2.123-13.084-4.379-3.16-10.12-1.502-15.092-2.644-1.663-.545-2.514-2.175-3.164-3.68 3.32.153 6.971.698 9.836-1.423 7.325-4.875 18.742-1.539 21.364 7.14 1.847 8.519 2.325 18.332-3.165 25.663-3.054 4.232-8.433 5.473-13.335 5.873-.234.244-.687.743-.921.986-1.004-1.474-2.223-2.789-3.48-4.059-2.279-2.12-5.316-3.053-7.893-4.72-1.855-1.417-3.102-3.452-4.774-5.065-1.844-.98-3.77-1.769-5.695-2.565-.753 1.06-1.5 2.12-2.305 3.135-1.058.544-2.153 1.032-3.23 1.539.218 1.488-.255 2.82-1.157 3.98a47.237 47.237 0 0 0-.082-1.262c.017-.416.045-1.23.065-1.638-2.613-1.035-5.478-1.73-7.333-4.034-3.77.916-7.676.672-11.517.49-3.02-.263-5.77 1.152-8.11 2.92-5.544 4.023-8.15 9.677-9.476 16.123l-1.419.006c-7.17-.663-13.137-6.264-14.82-13.186-1.852-7.549-2.16-16.03 1.33-23.17m48.678 13.22c-.127.907.226 1.34 1.058 1.296.831-.67 1.273-1.494 1.33-2.455-1.013-.21-1.81.181-2.388 1.162m1.363 5.754-.053-1.19c1.374-.261 2.667-.788 3.408-2.047.898.16 1.793.336 2.686.525l.108-1.894c1.012-1.65-2.486-2.718-2.811-.96a6.69 6.69 0 0 0-3.075 3.316c-.551-.417-1.663-1.242-2.214-1.659l-.045 1.905c-.68-1.513-1.321-3.036-1.972-4.55-1.111 3 .77 6.118 3.968 6.551z" style="fill:#000001;fill-opacity:1;stroke-width:.905133"/><path d="M64.445 31.365c-.198 1.814-.531 3.617-.876 5.42.526.417 1.049.822 1.583 1.233a7.305 7.322 0 0 1 4.99-.326c.11.587.31 1.766.407 2.353a553.38 553.38 0 0 0-2.025-2.29c-.688 1.315-1.42 2.619-2.334 3.798-.667-2.358-1.589-3.229-2.276-1.162l1.663 1.695c2.585 2.656 4.07 6.08 5.622 9.388.354.235 1.05.709 1.403.941 1.799 1.06 4.23-.524 5.77 1.332l-3.7-.107c-1.42-.11-2.828-.346-4.242-.59-.441-1.423-.902-2.834-1.443-4.212-.226-.462-.67-1.378-.896-1.831-1.095-1.712-2.47-3.218-3.79-4.757a24.484 24.54 0 0 1-1.51-3.926c.336-2.372.942-4.683 1.654-6.959zM43.562 37.43c2.486.127 4.972.19 7.458.136l.045.263c-.486 1.53-.75 3.35-2.305 4.224-1.03-.771-1.637-1.914-2.296-2.982-.75.09-2.251.28-3 .38a82.148 82.148 0 0 0 1.97 3.27c1.77.264 3.536.562 5.317.772l-.282.08c-2.783.226-5.405-.843-7.928-1.858.289-1.44.622-2.871 1.021-4.285zM28.355 51.928c4.602-3.263 7.622-8.13 9.458-13.394l-.046 1.378c-.3 3.923.19 7.837.713 11.715-.947-1.984-1.68-4.059-2.268-6.18-1.132 1.622-2.28 3.243-3.592 4.74-1.886 1.613-3.968 3.028-6.236 4.06-.569.21-1.708.634-2.268.85a120.05 120.324 0 0 0 4.24-3.17z" style="fill:#000001;fill-opacity:1;stroke-width:.905133"/><path d="M69.095 43.872c2.432 2.174 4.893 4.365 7.738 5.99 3.346 1.286 7.062 1.864 10.523.623l.21-1.094 1.564 2.046c-.58.3-1.737.899-2.317 1.205-5.268.663-10.096-1.576-15.051-2.891-.744-2.019-1.737-3.94-2.667-5.88zm-16.556 8.51c1.934-1.679 4.395-1.67 6.737-.97l.568.107c2.197 1.151 4.403 2.31 6.392 3.799.37.34 1.122 1.032 1.493 1.383-1.123-.68-2.234-1.366-3.366-2.018a41.28 41.374 0 0 0-4.202-1.831c-1.646-.462-3.354-1.114-5.1-.788-2.14.59-1.934 3.189-2.449 4.92.037-1.53.071-3.072-.073-4.603z" style="fill:#000001;fill-opacity:1;stroke-width:.905133"/><path d="M56.264 55.389a22.427 22.479 0 0 1 5.551 3.724c-.515-.263-1.544-.78-2.062-1.043l-2.556.318a189.657 190.09 0 0 1-.933-3zm-26.127 1.984c.74 2.092 1.202 4.286 1.96 6.378.353.8.724 1.587 1.103 2.367 1.366.482 2.723.978 4.053 1.567.791.879 1.544 1.803 2.304 2.719-.67.85-1.238 1.757-1.719 2.727.156 2.692 3.563 3.444 4.975 5.51-2.017-.96-3.96-2.04-5.931-3.073a65.4 65.4 0 0 1 1.148-5.329 250.732 251.304 0 0 0-2.848-3.333c-.526.017-1.575.056-2.098.062-.272-.462-.823-1.386-1.103-1.84-1.23-2.4-2.263-5-1.844-7.755zm35.53 27.61 1.194-2.345c-.046 1.893.415 4.121-1.194 5.544-2.902 3.008-4.844 6.724-5.939 10.747 0-2.9.577-5.763 2.025-8.292 1.185-1.587 2.523-3.044 3.914-4.456v-1.196Z" style="fill:#000001;fill-opacity:1;stroke-width:.905133"/><path d="M15.272 2.07c4.992-1.197 10.1-.227 15.018.816.017.397.062 1.188.082 1.587-3.48.133-6.935.632-10.388 1.032l.46-3.3c-1.719-.062-3.444-.144-5.172-.136Zm53.551 40.362c.054-1.18.668-1.758 1.844-1.732.136 1.304-.48 1.885-1.844 1.729z" style="fill:#cfcfcf;fill-opacity:.38;stroke-width:.905133"/><path d="M3.727 10.896C5.834 6.228 10.31 3.03 15.272 2.07c1.725-.008 3.453.074 5.173.137l-.461 3.299c-4.124.734-8.519 2.083-11.022 5.709-1.745-.09-3.49-.198-5.235-.318Z" style="fill:silver;fill-opacity:.34999999;stroke-width:.905133"/><path d="M82.105 3.022c2.621-.998 5.416-.553 8.108-.21-.362 1.279-.713 2.557-1.066 3.827-1.799-.057-3.598-.193-5.306-.771.642-.68 1.273-1.36 1.915-2.05-1.21-.272-2.433-.552-3.651-.796Z" style="fill:#404040;fill-opacity:.30000001;stroke-width:.905133"/><path d="M38.599 3.393c2.206-.371 5.232.046 4.267 3.008-2.28 2.04-5.353 3.39-8.428 2.59-6.128-1.113-13.812-1.955-18.487 3.09-3.968 4.351-2.786 10.72-1.844 15.988-2.75-4.298-2.676-10.197-.605-14.755 3.272-6.08 11.066-6.959 17.212-5.998 4.024.652 9.548 1.531 11.51-3.146a161.277 161.644 0 0 0-3.625-.777z" opacity=".45" style="fill:#eeeeef;fill-opacity:1;stroke-width:.905133"/><path d="M71.824 5.233c3.564-.065 6.989-.907 10.28-2.211 1.22.244 2.441.524 3.652.796-.642.69-1.273 1.37-1.915 2.05-4.007-.21-8.14.706-12.017-.635Z" style="fill:#c3c3c3;fill-opacity:.40000001;stroke-width:.905133"/><path d="M71.968 7.535c4.972 1.142 10.713-.516 15.092 2.644-3.646-.725-7.362-.915-11.067-1.014-1.519.028-2.868-.71-4.025-1.63Z" opacity=".39" style="fill:#eeeeef;fill-opacity:1;stroke-width:.905133"/><path d="M100.004 9.573c1.855 1.992 1.79 4.855 1.918 7.395.17 6.115.407 12.793-3.366 18.006-3.071 4.819-8.71 7.265-14.31 7.112.596 2.656 2.115 4.912 3.32 7.305l-.21 1.094c-2.061-2.509-3.498-5.417-4.773-8.39.234-.244.687-.743.921-.987 4.902-.397 10.28-1.641 13.338-5.873 5.487-7.33 5.006-17.144 3.162-25.662z" opacity=".52" style="fill:#eeeeef;fill-opacity:1;stroke-width:.905133"/><path d="m3.518 10.877.21.017c1.744.119 3.49.226 5.231.317-.268 1.304-.537 2.608-.882 3.89-1.34 1.547-3.365 2.029-5.218 2.635l-.506-2.735c.3-1.406.74-2.767 1.165-4.124zm32.142 5.765c3.182-1.749 6.762-2.973 10.388-1.896-1.555.074-3.1.21-4.655.346 1.284 2.066 2.687 4.575 5.569 4.005-2.441.388-4.902.734-7.368.734a95.046 95.263 0 0 1-1.654-.057c-.79-1.02-1.527-2.083-2.28-3.135z" style="fill:#7e7e7e;fill-opacity:.34999999;stroke-width:.905133"/><path d="M2.01 21.209c-.616-2.041-.09-4.187.343-6.208l.509 2.735c1.85-.606 3.875-1.085 5.215-2.636.017 2.781-.056 5.556-.192 8.328-2.277.709-4.573-.263-5.874-2.22z" style="fill:#404040;fill-opacity:.30000001;stroke-width:.905133"/><path d="M41.393 15.092c1.555-.136 3.1-.272 4.655-.346 1.725.354 3.236 1.304 4.766 2.14-1.267.76-2.532 1.54-3.852 2.211-2.885.57-4.285-1.939-5.572-4.005zm15.66 2.103c2.104-.7 4.247-1.922 6.533-1.298 3.402.672 5.995 3.262 7.695 6.162-.452-.442-1.346-1.34-1.799-1.786-3.996-1.584-7.938-4.084-12.43-3.078z" style="fill:silver;fill-opacity:.40000001;stroke-width:.905133"/><path d="M33.66 23.029c-1.979-2.22-.522-5.4 2-6.387.75 1.049 1.49 2.11 2.28 3.135.416.017 1.236.046 1.654.054-1.892 1.177-3.555 3.172-5.933 3.198z" style="fill:#404040;fill-opacity:.502449;stroke-width:.905133"/><g style="fill:#fff;fill-opacity:.2"><path d="M64.88 35.61c.64-1.08 1.52-1.51 2.64-1.28-.06 1.06-.55 1.97-1.47 2.71-.92.05-1.31-.43-1.17-1.43z" style="fill:#fff;fill-opacity:.2" transform="matrix(.90411 0 0 .90617 -7.297 -8.458)"/><path d="M66.39 41.96c-3.54-.48-5.62-3.92-4.39-7.23.72 1.67 1.43 3.35 2.18 5.02l.05-2.1c.61.46 1.84 1.37 2.45 1.83.7-1.59 1.86-2.87 3.4-3.66.85.93 1.88 1.28 3.11 1.06l-.12 2.09c-.99-.21-1.97-.4-2.97-.58-.82 1.39-2.25 1.97-3.77 2.26zM56.14 52.87c.83-.11 2.49-.32 3.32-.42.73 1.18 1.4 2.44 2.54 3.29 1.72-.96 2.01-2.97 2.55-4.66.48 1.86 1.03 3.71 1.58 5.56-.48.17-1.44.51-1.93.69-1.97-.23-3.92-.56-5.88-.85-.76-1.19-1.48-2.39-2.18-3.61zm22.62 1.04c.76-2.28 1.78-1.32 2.52 1.28 1.01-1.3 1.82-2.74 2.58-4.19.56.63 1.68 1.89 2.24 2.53l.13.72c-1.3-.03-1.98.61-2.04 1.91-.89-.1-2.69-.29-3.59-.38-.46-.47-1.38-1.4-1.84-1.87zm9.84 22.8c1.75-.96 3.52-1.89 5.39-2.6l.38.4c-2.56 1.71-4.99 3.59-7.41 5.48-.98.7-1.99 1.36-3.01 2.01.9-2.26 2.58-4.05 4.65-5.29zm-11.97 7.86c4.18-2.72 9.07-.5 13.6-1.58.62.57 1.86 1.7 2.48 2.27-2.53 2.11-5.79.98-8.74 1.06-4.52-.19-8.67 2.24-13.22 1.97.69-.51 1.38-1 2.08-1.48 1.25-.77 2.51-1.54 3.8-2.24z" style="fill:#fff;fill-opacity:.2" transform="matrix(.90411 0 0 .90617 -7.297 -8.458)"/></g><path d="M56.066 23.998c.325-1.757 3.823-.689 2.81.964a2.893 2.9 0 0 1-2.81-.964z" style="fill:#8a8a8a;fill-opacity:.340472;stroke-width:.905133"/><path d="M60.74 25.685c1.924.796 3.852 1.587 5.696 2.565-.67 1.04-1.329 2.075-1.99 3.118a120.842 121.118 0 0 1-6.01-2.548c.803-1.015 1.555-2.075 2.305-3.135z" style="fill:#838383;fill-opacity:.2;stroke-width:.905133"/><path d="M35.182 27.896c3.841.181 7.75.425 11.517-.49 1.855 2.301 4.72 2.998 7.333 4.033-.017.408-.045 1.222-.065 1.638-.803-.178-2.432-.524-3.235-.697l.118 1.196c-3.04-1.513-5.18 1.035-6.827 3.271l-.46.582a57.638 57.77 0 0 0-1.022 4.285c2.523 1.015 5.145 2.084 7.928 1.857.695 2.937 1.402 5.873 2.07 8.81.144 1.53.11 3.07.073 4.604.515-1.732.309-4.335 2.45-4.921 1.745-.326 3.453.326 5.099.788a183.378 183.378 0 0 1-3.897 2.537c.3.997.616 2 .933 2.999 1.77 3.778-1.79 8.637 1.357 11.817-.636.434-1.258.879-1.883 1.341-3.145-3.271-5.877-6.897-8.454-10.63 1.485 3.96 4.231 7.223 6.944 10.383-1.808 3.671-1.21 7.796-1.202 11.727.028 4.541.056 9.08-.408 13.6-.47-.441-1.391-1.331-1.86-1.765-.778-2.149-1.403-4.34-2.36-6.415.216-.337.66-1.006.886-1.34-3.103-1.171-5.77-3.175-8.281-5.284.396 1.043.803 2.083 1.21 3.126-.523-.246-1.572-.726-2.098-.97.136-1.178.283-2.355.424-3.526l1.34-1.814c-1.413-2.063-4.818-2.815-4.974-5.507.48-.97 1.05-1.877 1.72-2.727-.761-.916-1.51-1.84-2.305-2.722.868-1.383 1.725-2.88 1.555-4.6-.02-3.816.088-7.656-.328-11.452-.523-3.88-1.013-7.795-.713-11.718 1.066-4.096.713-9.017-2.585-12.02z" style="fill:#cdcdcd;fill-opacity:.2;stroke-width:.905133"/><path d="M27.071 30.813c2.342-1.766 5.09-3.18 8.111-2.92 3.298 3.002 3.651 7.923 2.585 12.019l.046-1.378c-1.839 5.264-4.856 10.131-9.458 13.394.226-2.43.161-4.967 1.095-7.257 2.53-3.257 7.305-4.649 8.145-9.173-3.96.454-6.301 3.952-9.43 5.99-.073-3.58-.3-7.178-1.094-10.675z" style="fill:#838383;fill-opacity:.2;stroke-width:.905133"/><path d="M55.206 30.359c1.074-.507 2.172-.995 3.23-1.54 1.98.908 3.987 1.75 6.01 2.546-.713 2.276-1.319 4.587-1.655 6.96-2.008-.29-4.013-.562-6.03-.814.345 1.84.572 3.724 1.338 5.442 2.053 1.126 4.242.065 6.202-.703 1.32 1.54 2.695 3.045 3.79 4.757-3.066.218-6.157.297-9.206.78.09 1.212.246 2.417.39 3.625-2.341-.7-4.802-.709-6.736.97-.668-2.938-1.375-5.874-2.07-8.81l.282-.08c.442-.165 1.31-.474 1.743-.627-.495-1.675-.993-3.353-1.429-5.037l-.045-.263c-2.486.053-4.972-.009-7.458-.136.119-.145.342-.437.461-.582 2.376-.082 4.766-.053 7.153-.053l-.326-3.218-.118-1.196c.803.17 2.432.516 3.235.697.028.318.065.944.085 1.262.902-1.162 1.372-2.495 1.154-3.98z" style="fill:#666;fill-opacity:.2;stroke-width:.905133"/><path d="M66.436 28.25c1.672 1.613 2.92 3.651 4.774 5.065 2.574 1.667 5.614 2.6 7.891 4.72.085 3.147.518 6.299.102 9.434-.716.861-1.564 1.604-2.37 2.392-2.848-1.621-5.306-3.815-7.738-5.99.93 1.94 1.923 3.861 2.667 5.882.206.67.63 2.002.84 2.665l-1.4-.944c-1.556-3.308-3.04-6.732-5.625-9.388.814.082 2.44.255 3.246.346.82.09 1.372-.085 1.652-.522.181-.29.246-.692.192-1.21l-.118-.652a163.66 163.66 0 0 0-.408-2.356 7.305 7.322 0 0 0-4.989.326 105.536 105.777 0 0 1-1.583-1.233c.345-1.803.678-3.606.876-5.42.662-1.04 1.321-2.075 1.991-3.118z" style="fill:#181818;fill-opacity:.2;stroke-width:.905133"/><path d="M17.47 48.05c.633-6.806 4.058-13.212 9.601-17.235.795 3.495 1.021 7.093 1.095 10.673 3.128-2.041 5.47-5.536 9.429-5.99-.84 4.521-5.614 5.916-8.145 9.17-.934 2.293-.869 4.83-1.095 7.257a120.028 120.301 0 0 1-4.242 3.175 72.567 72.567 0 0 0-3.063 1.848c-.388.255-1.165.76-1.564 1.015-.3-3.289.19-6.988-2.116-9.678 4.475.028 8.824-2.095 11.8-5.403-3.193.437-6.138 3.419-9.404 1.849a77.504 77.504 0 0 0-2.297 3.316zm26.553-11.203c1.646-2.239 3.79-4.784 6.827-3.27l.326 3.217c-2.387 0-4.774-.029-7.153.056z" style="fill:#838383;fill-opacity:.2;stroke-width:.905133"/><path d="M56.761 37.51c2.017.256 4.025.525 6.03.814a24.821 24.821 0 0 0 1.51 3.926c-1.96.768-4.149 1.829-6.202.706-.766-1.72-.993-3.606-1.338-5.445z" style="fill:#383838;fill-opacity:.2;stroke-width:.905133"/><path d="M79.101 38.035c1.259 1.27 2.478 2.582 3.482 4.06 1.272 2.973 2.715 5.881 4.773 8.39-3.461 1.241-7.177.663-10.523-.624.806-.788 1.654-1.53 2.37-2.392.416-3.135-.017-6.29-.102-9.434zm-59.335 6.696c3.264 1.57 6.21-1.412 9.404-1.849-2.976 3.308-7.325 5.429-11.8 5.403l.1-.235a75.758 75.758 0 0 1 2.296-3.317z" style="fill:#838383;fill-opacity:.2;stroke-width:.905133"/><path d="M32.623 50.187c1.31-1.497 2.46-3.118 3.589-4.74.588 2.121 1.32 4.196 2.268 6.18.416 3.799.308 7.64.325 11.455.173 1.72-.687 3.217-1.555 4.603-1.33-.59-2.684-1.088-4.05-1.567a70.224 70.384 0 0 1-1.103-2.364c1.81-4.334 1.547-9.082.526-13.567z" style="fill:#ababab;fill-opacity:.2;stroke-width:.905133"/><path d="M58.888 47.786c3.046-.482 6.137-.561 9.203-.78.226.454.667 1.37.894 1.832-2.54 2.191-6.047 1.964-9.141 2.681l-.568-.11c-.145-1.205-.3-2.41-.39-3.623ZM11.033 60.525c1.518-4.394 4.782-7.863 6.335-12.24 2.307 2.693 1.818 6.387 2.118 9.678-2.495 1.7-5.515 2.202-8.453 2.562z" style="fill:#838383;fill-opacity:.2;stroke-width:.905133"/><path d="M59.844 51.517c3.094-.715 6.6-.488 9.14-2.68.544 1.379 1.005 2.79 1.449 4.213L69.3 54.728c-.769.142-2.296.442-3.065.587-1.989-1.485-4.195-2.645-6.392-3.798Z" style="fill:#fff;fill-opacity:.2;stroke-width:.905133"/><path d="M26.384 54.246c2.268-1.031 4.35-2.446 6.239-4.059 1.02 4.485 1.284 9.233-.526 13.567-.758-2.095-1.22-4.29-1.96-6.381-.416 2.755.614 5.357 1.844 7.755-2.506 6.925-.416 14.409-1.202 21.586a30.734 30.804 0 0 1-4.367-4.776c-.218-9.224-.39-18.456-.028-27.692Z" style="fill:#717171;fill-opacity:.2;stroke-width:.905133"/><path d="M60.16 52.849a42.306 42.306 0 0 1 4.206 1.834c-2.008 1.54-1.555 3.742-.876 5.808a70.888 71.05 0 0 0-1.502 7.682c-1.165.635-2.305 1.332-3.436 2.032-3.145-3.18.415-8.039-1.358-11.817l2.56-.318 2.064 1.043a22.427 22.479 0 0 0-5.554-3.724 183.378 183.378 0 0 0 3.897-2.537z" style="fill:#838383;fill-opacity:.2;stroke-width:.905133"/><path d="M70.433 53.05c1.408.244 2.82.482 4.24.59-2.009 1.992-2.179 4.756-1.865 7.412-1.87 1.123-3.388 2.747-4.202 4.794a61.49 61.49 0 0 0 2.72-1.823l2.959 2.721c-4.098.978-8.519-1.034-12.297 1.432a71.736 71.736 0 0 1 1.499-7.685c-.68-2.07-1.129-4.269.876-5.811 1.132.652 2.243 1.344 3.366 2.021-.37-.351-1.12-1.04-1.493-1.386.769-.142 2.296-.442 3.065-.587z" style="fill:#838383;fill-opacity:.2;stroke-width:.905133"/><path d="m74.672 53.64 3.7.107c-.292 1.642-.346 3.317-.688 4.95-1.691.643-3.292 1.485-4.876 2.352-.314-2.653-.141-5.414 1.864-7.41z" style="fill:#000;fill-opacity:.22;stroke-width:.905133"/><path d="M24.116 55.1c.56-.219 1.697-.644 2.268-.85-.362 9.232-.19 18.464.028 27.688-5.034-7.22-6.058-16.418-5.362-24.99a73.882 73.882 0 0 1 3.066-1.848z" style="fill:#b8b8b8;fill-opacity:.2;stroke-width:.905133"/><path d="M78.496 54.745c2.025 1.242 1.193 3.807 1.349 5.755-1.855 1.513-3.852 2.999-4.873 5.244 1.688 1.235 2.622 2.948 2.277 5.06-.95.651-1.89 1.303-2.829 1.955.162 1.786.326 3.56.478 5.346l-1.617-1.332.288-.054c-.045-1.72-.127-3.432-.19-5.156-4.6-1.06-9.202-.09-13.614 1.287-1.683.057-3.329-.371-4.604-1.55-2.713-3.161-5.459-6.424-6.944-10.384 2.577 3.733 5.309 7.359 8.457 10.63 4.112.244 7.862-1.956 11.949-1.786 2.667-.073 5.616.953 7.902-.96-.56-.517-1.68-1.54-2.24-2.059l-2.959-2.718c2.19-1.712 4.384-3.416 6.7-4.963l.416-.256c.017-1.36-.009-2.71.057-4.059z" opacity=".89" style="fill:#000001;fill-opacity:1;stroke-width:.905133"/><path d="M9.423 61.741c2.28-.264 4.565-.49 6.825-.87-.326 1.148-1.137 1.735-2.121 1.944-1.539.326-3.499-.263-4.704-1.077z" opacity=".34" style="opacity:.5;fill:#eeeeef;fill-opacity:1;stroke-width:.905133"/><path d="M31.98 65.128c.28.454.832 1.378 1.104 1.843.523-.011 1.572-.048 2.098-.065a293.968 293.968 0 0 1 2.848 3.333 65.4 65.4 0 0 0-1.148 5.33c1.968 1.034 3.914 2.111 5.93 3.072l-1.34 1.814-1.338-1.743c-.766 2.863-.407 5.811.283 8.646-.707.218-2.118.66-2.822.887-2.314-.255-4.684-.516-6.816-1.53.786-7.178-1.301-14.662 1.202-21.587z" style="fill:#838383;fill-opacity:.2;stroke-width:.905133"/><path d="M59.765 72.85c4.412-1.378 9.013-2.347 13.615-1.287.062 1.724.144 3.436.19 5.16l-.29.05a26.438 26.438 0 0 1-3.905.09c-2.226-.226-4.457-.124-6.675.03l-3.128.246c-.56-.312-1.688-.936-2.26-1.242.824-1.015 1.638-2.03 2.453-3.044z" style="fill:#cdcdcd;fill-opacity:.2;stroke-width:.905133"/><path d="M53.959 83.026c-.01-3.931-.606-8.056 1.202-11.727 1.275 1.18 2.921 1.605 4.604 1.551a770.239 770.239 0 0 1-2.452 3.044c.571.31 1.7.936 2.262 1.242l-1.394 1.389a425.93 425.93 0 0 0 1.918 2.2 250.68 250.68 0 0 0-.736 6.814c1.06-.978 2.11-1.947 3.168-2.908-.181 2.012-.362 4.025-.778 6.01-1.448 2.525-2.025 5.388-2.025 8.288-.741-.1-2.214-.281-2.947-.38-1.103-.57-2.16-1.222-3.238-1.84l.009-.082c.46-4.521.435-9.06.407-13.6z" style="fill:#585858;fill-opacity:.2;stroke-width:.905133"/><path d="m59.572 77.136 3.128-.244c.914 1.032 1.827 2.067 2.75 3.09.016.516.056 1.559.084 2.075-1.81-.454-3.628-.896-5.435-1.332a415.487 416.434 0 0 1-1.918-2.203c.345-.343 1.05-1.04 1.391-1.386z" style="fill:#000;fill-opacity:.25;stroke-width:.905133"/><path d="M65.45 79.982a83.033 83.033 0 0 1 3.048-.624c1.256.08 2.512.253 3.762.397-1.754.255-3.49.598-5.19 1.097.136 2.52 2.178 5.644-.074 7.73-3.09 3.144-5.379 7.022-6.128 11.418-1.44-.272-3.646.516-4.087-1.451.733.099 2.206.283 2.947.38 1.095-4.023 3.037-7.739 5.94-10.747 1.608-1.423 1.147-3.65 1.193-5.544-.3.578-.894 1.757-1.194 2.347l-.136-2.928c-.028-.516-.062-1.56-.082-2.075z" opacity=".49" style="opacity:.5;fill:#eeeeef;fill-opacity:1;stroke-width:.905133"/><path d="M62.7 76.892c2.218-.153 4.45-.255 6.675-.028 1.284.507 2.574.986 3.761 1.712-1.547.235-3.094.499-4.638.78a89.42 89.42 0 0 0-3.049.623 361.704 361.704 0 0 1-2.749-3.09z" opacity=".96" style="fill:#000;fill-opacity:.3;stroke-width:.905133"/><path d="M40.414 87.358c-.684-2.835-1.046-5.783-.28-8.646l1.338 1.74c-.141 1.171-.288 2.348-.424 3.527.526.243 1.572.723 2.098.97 1.881.915 3.564 2.165 5.17 3.486-2.593.465-5.252.6-7.862.227a156.341 156.698 0 0 0-2.856-.417c.701-.227 2.112-.67 2.816-.887z" style="fill:#838383;fill-opacity:.2;stroke-width:.905133"/><path d="M59.366 87.539c.218-2.273.453-4.55.733-6.814 1.81.436 3.625.878 5.432 1.332l.136 2.928v1.196a43.466 43.565 0 0 0-3.914 4.456c.416-1.984.594-3.997.778-6.01-1.058.965-2.107 1.934-3.168 2.912z" style="fill:#000;fill-opacity:.2;stroke-width:.905133"/><path d="M41.936 81.819c2.511 2.114 5.178 4.116 8.28 5.286-.225.335-.67 1.004-.887 1.341.961 2.075 1.584 4.266 2.361 6.415-1.292-.57-2.387-1.46-3.39-2.43.282-.924.83-2.78 1.11-3.704-2.972.561-5.995.487-8.959-.065 2.613.37 5.272.238 7.865-.227-1.609-1.321-3.289-2.571-5.17-3.487a442.949 443.959 0 0 1-1.21-3.126z" opacity=".92" style="fill:#838383;fill-opacity:.2;stroke-width:.905133"/><path style="opacity:.5;fill:#eeeeef;fill-opacity:1;stroke-width:2.93291;stroke-linecap:round;stroke-linejoin:round" d="m16.12 46.94.056.008c-.65 5.66-5.362 9.457-6.754 14.794 2.277-.263 4.564-.49 6.826-.873 1.03-.311 2.051-.676 3.055-1.076-.18 7.696.795 15.768 4.98 22.393 2.424 3.815 6.023 7.62 10.907 7.549 4.449.107 9.754 2.871 13.47-.78l-.363 3.479 1.112-3.705c-2.976.561-5.993.488-8.96-.065-.947-.144-1.905-.29-2.855-.418-2.313-.255-4.684-.514-6.816-1.529-1.601-1.448-3.103-3.02-4.367-4.777-5.037-7.22-6.058-16.419-5.362-24.99l-1.564 1.015c-2.495 1.704-5.515 2.203-8.453 2.563 1.518-4.394 4.782-7.864 6.338-12.24l.097-.235c.035-.374.11-.742.162-1.113z"/></svg>
