<?xml version="1.0" encoding="UTF-8" standalone="no"?>
<svg
   height="$height"
   viewBox="0 0 135 100"
   version="1.1"
   id="svg16"
   sodipodi:docname="Mx-butterfly-template.svg"
   inkscape:version="1.2.1 (9c6d41e410, 2022-07-14)"
   xmlns:inkscape="http://www.inkscape.org/namespaces/inkscape"
   xmlns:sodipodi="http://sodipodi.sourceforge.net/DTD/sodipodi-0.dtd"
   xmlns:xlink="http://www.w3.org/1999/xlink"
   xmlns="http://www.w3.org/2000/svg"
   xmlns:svg="http://www.w3.org/2000/svg">
  <sodipodi:namedview
     id="namedview18"
     pagecolor="#ffffff"
     bordercolor="#999999"
     borderopacity="1"
     inkscape:showpageshadow="0"
     inkscape:pageopacity="0"
     inkscape:pagecheckerboard="0"
     inkscape:deskcolor="#d1d1d1"
     showgrid="false"
     inkscape:zoom="6.052834"
     inkscape:cx="45.268051"
     inkscape:cy="55.593793"
     inkscape:window-width="2560"
     inkscape:window-height="1374"
     inkscape:window-x="0"
     inkscape:window-y="0"
     inkscape:window-maximized="1"
     inkscape:current-layer="svg16" />
  <defs
     id="defs8">
    <linearGradient
       xlink:href="#a"
       id="b"
       gradientUnits="userSpaceOnUse"
       x1="144.662"
       y1="-2304.526"
       x2="4975.23"
       y2="-2304.526"
       gradientTransform="matrix(.02793 0 0 .02793 -3.998 114.37)" />
    <linearGradient
       id="a">
      <stop
         style="stop-color:#1c71d8;stop-opacity:1;"
         offset="0"
         id="stop3" />
      <stop
         style="stop-color:#813d9c;stop-opacity:1;"
         offset="1"
         id="stop5" />
    </linearGradient>
  </defs>
  <path
     style="fill:url(#b);fill-opacity:1;stroke:none;stroke-width:.614076;stroke-linecap:round;stroke-linejoin:round;stroke-miterlimit:4;stroke-dasharray:none;stroke-opacity:1"
     d="M127.1.077c-8.746 1.345-16.766 5.796-24.112 10.578-11.174 8.562-20.796 18.913-30.01 29.508-1.072 2.241-4.052 5.434-2.333 1.453-.793-2.82-.176-5.194 1.244-7.986 2.234-1.951 1.387-6.652-.006-2.16-1.942 2.29-1.416 7.932-5.443 6.886a41.42 41.423 0 0 0-1.314-2.758c-.001-.004-.005-.053-.007-.016-.986-1.913-2.042-3.805-2.757-5.788-2.42.937 2.47 5.31 2.693 8.064-.054 2.491-.135 6.014-.29 6.32-4.606-7.347-11.449-12.96-17.085-19.452-3.844-3.556-7.693-7.225-11.618-10.694-4.279-3.988-9.593-6.415-14.762-9.005C15.718 2.714 9.623-.64 3.46 1.228-.43 2.505-.09 6.767.212 9.933c.222 3.516 1.484 7.384 3.436 10.285.742 3.995 3.843 7.098 3.896 11.3 2.368 3.058 1.45 7.176 3.157 10.431.528 2.885 2.472 5.483 3.983 7.983 4.313 2.645 9.756 1.86 14.619 2.412-3.116 1.548-6.2 3.248-8.833 5.557-5.478 3.413-6.287 10.47-6.317 16.36-.453 3.876.956 7.606 3.25 10.66.536 3.624 4.036 4.972 6.366 7.264 2.032 2.173 4.381 3.991 7.195 5.038 3.934.981 7.912 2.767 11.986 2.736 4.497.047 7.533-3.48 9.66-6.985 4.23-6.75 8.427-13.543 12.361-20.454-.382-1.83-.197 6.781.42 9.847-.662 5.574 5.919 4.604 4.657-.445.17 2.784-.324-11.38 1.04-7.839 4.602 6.55 8.117 13.793 12.764 20.303 2.534 4.649 8.795 6.524 13.52 4.277 4.824-.883 10.216-1.942 13.381-6.087 2.138-1.339 3.75-3.269 5.747-4.811 1.116-2.616 2.64-4.949 3.824-7.544 1.367-5.62.76-11.673-.804-17.204-2.08-4.998-7.315-7.767-11.849-10.242-3.285-1.506 4.18-.794 5.723-1.297 3.624.206 7.74-1.092 8.886-4.909 2.216-3.677 3.187-7.792 3.654-12.016 1.757-2.945 1.936-6.244 3.14-9.348 1.562-2.81 2.58-5.645 4.006-8.433 1.31-3.574 1.894-7.064 1.83-10.758.585-4.339-4.234-6.26-7.81-5.936z"
     id="path10" />
  <path
     d="M30.746 75.754s2.455.178 5.615-.107c1.278-.116 6.136-.604 9.768-1.42 0 0 4.428-.969 6.797-1.861 2.478-.935 3.827-1.729 4.434-2.852-.026-.23.186-1.047-.956-1.538-2.922-1.253-6.312-1.027-13.017-1.173-7.439-.26-9.912-1.535-11.23-2.56-1.263-1.041-.628-3.92 4.787-6.456 2.728-1.35 13.42-3.842 13.42-3.842-3.6-1.822-10.316-5.023-11.696-5.714-1.21-.607-3.148-1.52-3.569-2.625-.475-1.06 1.126-1.974 2.02-2.236 2.879-.85 6.944-1.377 10.643-1.437 1.86-.03 2.162-.152 2.162-.152 2.566-.435 4.255-2.231 3.551-5.076-.631-2.904-3.964-4.61-7.13-4.02-2.982.557-10.17 2.693-10.17 2.693 8.885-.08 10.371.073 11.035 1.023.393.561-.178 1.33-2.548 1.726-2.579.431-7.94.95-7.94.95-5.144.313-8.767.333-9.854 2.688-.71 1.538.757 2.898 1.4 3.748 2.717 3.092 6.642 4.76 9.168 5.988.951.462 3.74 1.334 3.74 1.334-8.196-.46-14.108 2.115-17.576 5.079-3.922 3.711-2.188 8.137 5.848 10.861 4.748 1.61 7.101 2.367 14.18 1.714 4.171-.23 4.829-.093 4.87.257.06.493-4.632 1.717-5.912 2.095-3.258.962-11.798 2.903-11.84 2.913zm73.318 0s-2.457.178-5.615-.107c-1.28-.116-6.137-.604-9.768-1.42 0 0-4.429-.969-6.798-1.861-2.478-.935-3.827-1.729-4.433-2.852.026-.23-.188-1.047.955-1.538 2.923-1.253 6.312-1.027 13.018-1.173 7.437-.26 9.91-1.535 11.228-2.56 1.265-1.041.63-3.92-4.786-6.456-2.727-1.35-13.42-3.842-13.42-3.842 3.6-1.822 10.316-5.023 11.696-5.714 1.21-.607 3.148-1.52 3.568-2.625.476-1.06-1.124-1.974-2.019-2.236-2.88-.85-6.944-1.377-10.643-1.437-1.86-.03-2.161-.152-2.161-.152-2.567-.435-4.256-2.231-3.552-5.076.632-2.905 3.964-4.61 7.13-4.02 2.982.557 10.17 2.693 10.17 2.693-8.884-.08-10.371.073-11.035 1.023-.393.561.178 1.33 2.547 1.726 2.58.431 7.942.95 7.942.95 5.143.313 8.767.333 9.853 2.688.71 1.538-.757 2.898-1.4 3.748-2.717 3.092-6.642 4.76-9.169 5.988-.95.462-3.74 1.334-3.74 1.334 8.197-.46 14.11 2.115 17.577 5.079 3.923 3.711 2.187 8.137-5.848 10.861-4.747 1.61-7.1 2.367-14.18 1.714-4.17-.23-4.83-.093-4.87.257-.059.493 4.631 1.717 5.912 2.095 3.258.962 11.798 2.903 11.84 2.913z"
     style="fill:#eeeeef;fill-opacity:1;fill-rule:evenodd;stroke:none"
     id="path12" />
  <path
     d="M127.1.077c3.576-.323 8.394 1.598 7.81 5.937.063 3.693-.52 7.183-1.83 10.758-1.426 2.787-2.444 5.623-4.006 8.433-1.204 3.103-1.383 6.402-3.14 9.347-.467 4.225-1.438 8.341-3.654 12.017-1.145 3.817-5.263 5.115-8.887 4.909-1.543.503-9.007-.21-5.722 1.297 4.535 2.475 9.769 5.244 11.849 10.242 1.564 5.531 2.171 11.584.804 17.204-1.183 2.595-2.71 4.928-3.824 7.544-1.997 1.541-3.608 3.472-5.747 4.81-3.166 4.145-8.557 5.205-13.381 6.088-4.725 2.248-10.986.372-13.52-4.277-4.647-6.51-8.162-13.754-12.765-20.303-1.363-3.541-.868 10.623-1.04 7.84 1.262 5.048-5.319 6.018-4.657.444-.616-3.066-.8-11.677-.419-9.848-3.934 6.911-8.132 13.705-12.361 20.455-2.127 3.505-5.164 7.032-9.66 6.984-4.074.032-8.052-1.754-11.986-2.735-2.815-1.047-5.163-2.865-7.195-5.038-2.33-2.292-5.83-3.64-6.366-7.264-2.294-3.054-3.704-6.785-3.25-10.66.03-5.89.84-12.947 6.317-16.36 2.632-2.31 5.717-4.01 8.832-5.557-4.862-.551-10.305.233-14.62-2.412-1.509-2.5-3.453-5.098-3.981-7.983-1.708-3.255-.789-7.374-3.157-10.43-.053-4.203-3.154-7.306-3.897-11.301C1.696 17.318.434 13.449.211 9.933c-.302-3.167-.642-7.43 3.25-8.705C9.621-.64 15.717 2.714 21.298 5.027c5.17 2.59 10.483 5.017 14.763 9.005 3.925 3.469 7.774 7.138 11.618 10.693 5.635 6.493 12.479 12.106 17.083 19.453.32-.626.344-14.66.403-5.958.192-2.716-5.322-7.451-2.804-8.426 1.056 2.934 2.843 5.658 4.078 8.562 4.027 1.046 3.5-4.596 5.442-6.888 1.394-4.49 2.24.21.006 2.16-1.419 2.794-2.036 5.168-1.244 7.988-1.72 3.98 1.262.788 2.335-1.453 9.212-10.595 18.834-20.946 30.008-29.508C110.334 5.873 118.354 1.42 127.1.077Zm3.586 1.212c-.043 2.081 2.193-.328 0 0zm-7.304.46c-3.648 1 .825-1.834.786.002l-.306-.029zm3.11.03c-2.303 1.01.43 3.28 1.252 1.107.094-.76-.574-1.192-1.25-1.108zm-122.69.11C2.27 2.996 5.44 3.42 4.12 1.98Zm6.457.131c-.91 1.496 4.304 2.12 1.193.282-.386-.179-.81-.324-1.193-.282Zm-2.487.337c-2.075 1.377 2.106 3.015 1.596.86-.167-.65-1.071-1.243-1.596-.86Zm124.402.618c-2.173.376.941 1.821.477.182-.277.083-.219-.554-.477-.182zm-129.55.573c-1.49 2.619 2.686.23 0 0zm126.409 1.335c-1.662 2.519 3.436 1.54.664.076.159-.38-.744-.053-.664-.076zm-123.65.584c-2.39.51.57 3.592.95 1.059.338-.5-.37-1.35-.95-1.06Zm116.366.402c-3.082.13-3.894 2.755-.344 1.972 4.117-.325 3.596 1.097 6.003-.304-.312-2.04-3.993-1.608-5.66-1.668zm11.153.258c-1.367 2.187 2.236-.043 0 0zM11.833 6.3c-1.345-.377-5.755 1.009-3.516 2.267 2.53-.421 5.376.123 7.947-.29.255-1.857-3.048-1.988-4.432-1.976ZM1.5 6.673c-.307 2.409 2.12-.159 0 0zm113.239.76c-2.572.168-1.069 4.035.891 1.977 1.23-.631.606-2.472-.891-1.978zm-95.409.353c-1.914 1.586 2.263 3.894 2.437 1.361-.12-1.032-1.487-1.67-2.438-1.36Zm110.119.088c-1.499 1.386 2.578.466 0 0zm3.202.212c-1.208 2.217 2.758.055 0 0zm-127.96.481c-.17 1.604 2.5-.126 0 0zm-2.936.23.018.035zm-.25.084c-.604 2.03 2.35.12 0 0zm105.88.024c-2.571.797-.232 1.29 0 0zm-79.977.366c1.67 2.244 2.876.725.308.012l-.124-.049zm81.822.067c-2.897.484-.84 2.368.668.071zm11.468.256c-3.021.283-2.326 3.643.138 3.283 1.88-.36 4.583.804 5.957-.623-.359-2.516-4.101-2.736-6.095-2.66zm-95.42.063c.29 2.51 4.58.462.27-.028zm105.121.116c-2.47 1.056 1.164 2.952.896.534-.27-.214-.521-.537-.896-.534zm-117.391.413c-1.86.065-4.152.419-4.916 2.323 1.462 1.845 5.377.79 7.614.183 2.043-1.633-1.27-3.01-2.698-2.506zm-8.803.423c-2.072 2.337 3.312 1.953.787-.113-.41.255-.37-.652-.787.113Zm110.712-.093c-3.27.645-.162 5.32 1.44 2.14.483-.987-.342-2.26-1.44-2.14zm17.977.398c-1.627 1.823 1.97.549 0 0zm-113.34.111c-2.279.853.188 4.524 2.022 2.538.871-1.392-.75-2.975-2.023-2.538zm-.287-.021.017.035zm-17.618.636c-.892 2.46 2.253.43 0 0zm130.487 1.637c-1.515 1.33 1.075.808 0 0zm-30.074.838c-2.658.829-3.192 4.311-.296.93.117-.02.954-1.325.296-.93zm18.527.008c-2.7-.425-4.106 2.838-1.566 3.719 2.222 2.095 6.614.72 7.21-2.203-1.082-1.673-3.86-1.412-5.644-1.516zm-117.905.031c-.958 1.367 1.658.242 0 0zm102.62.212c-1.35.373-4.247 3.148-1.846 3.623 2.016.502 5.128-2.59 2.677-3.678l-.338-.041zm-72.435.043c.387.934 2.55 2.828 2.85 2.528-.407-1.116-1.958-2.47-2.85-2.528zm66.395.173c-3.122 2.22.755.873 0 0zm-86.166.024c-1.698.228-5.24.206-4.085 2.481 1.963 2.909 7.929 2.952 8.687-1.022-.82-1.466-3.035-1.377-4.602-1.46zm16.066-.024c-2.797.853.608 4.565 2.606 3.925 2.61-.993-1.218-3.814-2.606-3.925zm99.855.065c-3.01 3.031 3.525 1.422 0 0zm-93.252.227c.678 2.211 2.77 1.656 0 0zm-30.266.514c-1.36 3.112 3.537-.36 0 0zm125.824.726c-1.97 1.041 1.318 1.764 0 0zm-127.948.497c-.968 2.128 2.2 1.024 0 0zm104.7 1.032c-1.494-.12-3.31 2.086-1.935 3.03 1.017-.736 4.787-1.1 3.701-2.69-.504-.374-1.165-.416-1.766-.34zm-81.647.186c-4.572.35 4.374 5.222 2.328 3.112 4.376-.32-4.733-5.822-1.217-2.97-.392-.054-.735-.173-1.11-.143zm100.094.156c-1.429 1.698 2.657.63 0 0zm3.181.451c-1.875 1.517 1.576 1.178 0 0zm-121.972.388c-.077 2.046 1.918-.296 0 0zm-2.873.39c-.57 2.365 2.316-.047 0 0zm109.399 1.23c-4.03.046-7.986 1.56-10.16 4.52-1.815 1.63-1.388 4.044 1.345 2.921 3.713-.459 7.51-.487 11.138-1.4.2-2.01 5.793-2.458 3.105-3.578-1.818-1.258-2.737-3.072-5.428-2.464zm10.327.101c-2.984.994 1.78 3.815 1.262.477-.268-.447-.782-.56-1.262-.477zm-103.841.339c-3.504-.044-6.482 2.901-5.778 2.72-1.961.56 2.866 2.342 2.061 1.64 1.027 1.04 1.311 1.836 3.158 2.067 3.927.349 8.014 1.293 12.043.857-.862-4.49-5.919-7.158-10.36-7.207-.361-.044-.762-.12-1.124-.077Zm-11.04.245c-2.164 2.325 3.15 2.757 1.856.481-.136-.595-1.337-.531-1.856-.48zm87.622.844c-2.1.625-3.685 2.968-5.362 4.023-3.85 2.565-7.322 5.938-10.28 9.05-3.164 3.778-7.216 7.274-9.213 11.863.978.762 4.95-1.65 3.718-1.38a146.704 146.704 0 0 0 17.332-10.963c2.833-3.298 7.174-5.067 9.004-9.18 3.388-3.214-.226-3.413-3.19-3.438-.666.056-1.345-.083-2.009.025zm-61.648.163c-1.828.065-6.438.108-3.73 2.572 1.362 3.072 3.685 5.132 6.25 7.162 6.463 6.049 14.426 10.286 22.181 14.545 2.565 1.98 2.257-.73.598-2.446-5.854-7.888-13.112-14.671-20.995-20.481-1.01-1.504-2.738-1.341-4.304-1.352Zm92.608.223c-3.153 2.409 2.616.855 0 0zm-37.452.03c-1.564.32-1.256 2.299 0 0zm-46.718-.026c.496 1.136 1.821 1.796.345.192zm-37.885.252c-1.222 1.81 2.32 2.234.716.531.04-.258-.507-.459-.716-.531zm115.174 2.883c-2.272 2.25 2.968 1.045.249-.005zm4.633.32c-2.33 1.73 1.952 2.61 0 0zm-112.881.16c-2.067 1.336 2.445 2.432 1.015.194-.308-.222-.642-.257-1.015-.195zm-4.042.52c-2.149 1.046 1.167 2.357.346.27.178-.225-.29-.38-.346-.27Zm104.944 2.237c-4.113.34-8.31.332-12.345 1.091-2.48 1.692-4.66 3.36-6.484 5.723.95 2.005 9.11 1.592 7.014 1.005 4.752-.254 9.731.728 14.314-.792.187-1.63 4.607-2.58 3.006-3.543-2.582.095-1.015-4.098-3.913-3.46-.531-.003-1.061-.1-1.592-.024zm-95.368.518c-1.238.99-3.025 5.031-3.409 4.33 2.533.217 2.594 3.664 5.524 3.244 5.936.5 11.9-.05 17.846-.015 2.871-.32-2.018-4.344-1.206-3.519-1.81-1.723-4.108-3.855-6.995-3.487-3.901-.163-7.875-.962-11.759-.553zm103.863-.005c-2.425.944.943 2.962.796.385-.459.035-.229-.726-.796-.385zm-110.179.604c-1.986 2.294 2.981 1.929.627.087-.455.241-.09-.542-.627-.087zm113.412.576c-2.364 1.668 1.056 2.309 0 0zm-116.71.59c-1.001 2.153 2.684 1.505 0 0zm111.796 3.928c-1.907 2.968 2.78.36 0 0zm2.859-.012c-1.822 2.477 2.215 1.627 0 0zm-109.79.274c-1.428 2.583 2.543 1.34 0 0zm-3.113.633c-1.05 1.542 1.847 1.777.783.07-.166-.203-.588-.362-.783-.07zm83.23 1.748c-4.23.948-7.384 4.135-11.355 5.738-3.105 1.804-6.753 3.539-9.824 5.202.82 1.226 7.064.552 5.448.367 7.124-.464 14.342-.48 21.484-1.418 5.14-.434 10.33-.46 15.323-1.408 2.465-1.377 4.336-4.88 1.369-6.907-5.212-1.602-10.888-.67-16.28-1.32-2.044-.08-4.1-.25-6.165-.254m-54.217.269c-5.229.154-10.852.87-16.231.856-2.218.313-5.341-.028-6.153 2.796-1.035 2.148 1.767 5.709 4.493 5.43 7.958.594 15.943 1.034 23.874 1.599 5.422-.076 10.87.051 16.273.445.034-1.122-4.481-2.796-3.419-2.187-5.618-2.398-10.627-6.505-16.38-8.732-.807-.077-1.646-.31-2.457-.207m36.133.441c-1.753 1.203.736.938 0 0zm-17.005-.042c.418 1.423 1.964.923 0 0zm61.917.633c-1.793 2.113 1.379 1.59.91-.008-.248-.15-.625-.27-.91.008zm-107.031.346c-.898 2.179 2.311 1.664.364.053l-.052-.049zm108.803.285c-.736 2.247 1.661-.152 0 0zm-53.365.198c-.57 2.328 1.751.588 0 0zm-3.528.026c-1.66 1.997 1.556 1.398 0 0zm-53.701.451c-1.656 1.802 2.265.591 0 0zm108.87 4.51c-2.269.816 1.454 1.697 0 0zm-107.003.4c-.601 2.598 2.85.11 0 0zm53.493 1.583c-1.625 2.19-.897 5.903-.742 8.667-.139 2.549 1.847 2.624 1.803.3 0-2.955.77-6.34-.815-8.966zm40.871 1.302c1.357.937 2.187-.818 0 0zm-82.862.238c1.538 1.069 2.393-.447 0 0zm68.339.833c-3.017 1.11 4.178-.05 0 0zm-54.292.17c-2.497.682 4.274.507 0 0zm18.15.08c-3.546.278-7.234-.343-10.672.42 4.716.788 9.706 1.76 14.41.583 2.026-1.285-3.466-.801-3.737-1.002zm26.124.14c-3.608.264-7.113.02-10.534.339 4.045 1.533 8.558.883 12.706.084 4.349-.3 1.513-.592-2.172-.422zm-9.461 2.837c-.102 1.975 8.897 3.263 6.976 2.53 4.268.894 9.54 2.71 13.215-.632 1.011-1.823-9.01-.078-6.385-.578-4.5.508-8.822-.237-13.152-1.374zm-13.54.074c-4.34 1.267-8.559 1.94-13.025 1.532-2.358.218-5.154-.711-7.191.232 1.745 2.588 5.8 2.749 8.662 2.033 3.962-1.062 8.532-1.084 11.967-3.368.495-.29-.12-.522-.412-.429zm38.453.4c.352 3 6.416-.57 1.304-.122-.437-.034-.887-.066-1.304.121zm-65.32.26c-2.752-.265.066 2.427 1.32 1.153 2.1-1.402-.686-1.01-1.32-1.153zm71.88.659c.51 2.592 6.921 2.48 2.157.43-.718-.155-1.4-.842-2.158-.43zm-77.585.53c-1.596.424-4.953 2.822-1.327 1.862.81.05 3.9-2.497 1.327-1.863zm47.416.555c-3.06-.3 2.306 3.795.786 3.262 6.442 5.421 12.998 11.201 21.093 13.96 2.415 1.131 5.587-.044 2.803-2.75-1.978-2.486-4.122-4.771-6.262-7.086-.683-3.673-4.473-5.28-7.807-5.352-3.363-.81-7.092-1.655-10.614-2.034zm-15.91.04c-5.198 1.018-10.598 1.684-15.517 3.613-2.83 1.468-2.502 5.8-5.737 7.11-1.972 1.542-3.706 3.822-4.615 6.128 1.783 2.165 3.87.222 4.978.102 8.685-3.015 14.796-10.218 22.034-15.505.709-.873-.225-1.647-1.143-1.45zm38.644.348c-1.712.066-8.147.807-5.318 3.086 4.289 2.023 9.18 1.614 13.625 3.217 4.174 2.194 5.108-2.455 1.789-4.19-3.028-1.755-6.641-2.172-10.096-2.113zm-62.423.307c-4.286.102-10.495.89-11.397 5.925 4.168 1.626 5.3-.737 7.437-.72 3.85-1.055 8.4-.44 11.509-3.425-.541-1.075-6.388-1.867-4.784-1.723-.914-.12-1.845-.079-2.765-.057zm37.742 1.826c-.722 1.724 1.25 4.058 1.963 5.673 2.802 4.629 6.1 9.106 8.862 14.04 2.901 4.62 5.076 9.696 8.242 14.132 2.671 1.503 5.195-3.04 3.917-5.32-.326-3.093-2.72-4.893-4.599-6.903-.455-4.569-2.52-8.884-6.2-11.76-3.883-3.438-7.996-6.71-12.058-9.903Zm-12.202.16c-5.044 3.034-9.117 7.592-13.73 11.475-2.774 2.757-3.583 6.877-4.64 10.606-1.513 1.765-3.825 2.804-3.997 5.532-1.524 2.371-.584 4.811 1.274 6.435 2.736 1.54 3.76-2.575 4.866-4.318 4.413-8.288 9.145-16.396 14.38-24.193.46-1.526 3.36-4.397 1.846-5.537zm51.53.122c-1.912 1.16 2.825 2.92.628.308-.254-.067-.28-.513-.628-.308zm-90.605.352c-2.337.923-.137 3.215.427.32.043-.261-.235-.349-.427-.32zm72.761 2.168c-1.377 1.384 3.686 4.988 2.461 4.181 5.273 2.635 10.995 3.6 16.334 6.176 1.219-2.833-1.131-7.04-2.268-6.578-5.248-1.807-10.883-2.76-16.371-3.883zm-55.118.07c-5.678.752-11.273 2.216-16.624 4.21-1.57 1.171-3.202 4.454-2.33 6.591 5.721-2.461 12.373-3.951 17.796-7.407.519-.566 3.23-3.62 1.158-3.395zm76.666.19c-1.185 1.802 1.772.752 0 0zm-.279.096.04.074zm-44.499.294c-1.485 3.427-1.58 8.2-.023 11.79 2.994 6.205 7.238 11.592 10.365 17.554-2.109-7.984-7.269-14.71-9.357-22.693-.689-1.938-.011-5.334-.985-6.651m-9.064.237c-.48 4.748-1.017 9.483-3.323 13.716-2.1 5.131-5.11 10.154-6.515 15.643 3.64-6.772 8.708-12.868 11.28-20.154.287-2.63.785-8.015-1.442-9.205m-44.291-.225c-2.213 1.313 1.842 1.294 0 0zm54.647-.02c-.617 8.18 4.291 15.082 7.367 22.248 2.012 3.383 2.174 8.546 6.468 9.985 3.803.72 3.775-3.694 1.831-5.965-4.569-8.45-9.782-16.525-14.69-24.776-.254-.549-.417-1.235-.976-1.492zm-11.358.375c-5.287 7.856-10.051 16.476-14.718 25.068-.88 1.995-3.63 5.91-.28 6.968 4.79.244 5.647-5.592 7.325-8.863 2.665-7.06 7.292-13.64 7.496-21.356-.582.122.896-1.919.177-1.817zm51.525.481c-1.258 2.163 2.817 2.014.697.8-.32-.064.489-.982-.697-.8zm-91.826.562c-2.089.906.26 2.852.803.541-.074-.49-.277-.762-.803-.542zm96.075 1.926c-1 2.261 2.168 1.67.657.163-.173-.17-.43-.193-.657-.163zm-100.127.474c-2.68 1.16 1.117 2.543.516.361-.225-.04-.2-.595-.516-.36zm81.822 1.468c-.107 1.977 4.456 7.99 3.823 6.013 3.596 1.767 6.927 4.06 9.991 6.488 3.136-.164 3.866-5.068 1.053-6.47-4.57-2.852-9.95-3.963-14.867-6.03zm-63.998.356c-4.946 2.775-11.365 3.247-15.534 7.5-1.356 2.157.989 6.449 3.374 4.611 2.725-2.82 6.054-4.897 9.498-6.646 1.509-1.797 2.32-5.12 2.95-5.561zm81.656 1.21c-.635 2.13 1.777-.044 0 0zm-98.916.501c-1.008 1.433 1.351.75 0 0zm101.323 2.107c-1.139 1.654 1.559 1.032.226.018l-.226-.018m-28.994.087c.691 2.498 2.39 5.222 4.254 7.292 2.058 3.298 2.51 7.41 4.212 10.788 2.614-.538 4.595 2.479 5.062-.869 2.45-1.52-1.66-7.446-.587-5.647-1.791-2.548-2.524-5.866-4.82-8-2.56-1.293-5.554-2.088-8.121-3.564zm-74.707.39c-1.71 2.126 2.274.886 0 0zm28.71-.003c-2.614 1.697-5.873 2.436-8.462 4.111-1.884 3.822-4.325 7.602-5.727 11.54 1.792 1.448 1.611 4.157 4.376 2.443 4.158-.34 3.423-6.224 5.075-9.171.476-3.203 5.761-5.896 4.738-8.923m58.062 2.283c-3.504.32.998 6.66-.026 4.959 1.417 2.192 2.467 4.798 4.034 6.724 3.327 1.043 7.196-4.191 3.846-6.527-2.088-2.272-4.756-4.621-7.854-5.156zm-70.607.563c-3.167 1.405-6.153 3.416-7.93 6.264-.93 2.326 2.827 6.177 1.644 4.845 3.045 1.511 4.602-.606 5.571-3.276 1.007-2.416 3.368-4.727 3.53-7.275-.69-.315-1.863-.883-2.815-.558zm87.394-.058c-1.63 1.712 1.862 1.067 0 0zm-103.339.538c-.618 2.703 1.651-.11 0 0zm101.689 2.455c-.159 1.003 1.214-.485 0 0zm-99.95.326c-.757.902.98.726 0 0zm101.651 1.822c-2.418 1.988 1.45 1.263 0 0zm-103.492.518c.137 2.406 2.384.53 0 0zm98.724.522c-2.368.531.951 3.102.942.875.186-.413-.593-.928-.942-.875zm-93.498.596c-2.478.382 1.838-.085.934 1.3.553-.687-.229-1.424-.934-1.3zm96.173 2.12c-2.535 1.267 1.219 1.818 0 0zm-99.039.628c-.815 1.981 2.376.865 0 0zm94.86 1.252c-.995.984 1.324.5 0 0zm-90.843.391c-.938 1.248 1.751.519 0 0zm86.403 1.583c-2.73.54-.736 2.56.873.671-.114-.42-.506-.585-.872-.67zm-81.44.393c-2.774 1.159 2.995 2.23.79.13-.237-.19-.536-.012-.79-.13zm86.873.43c-2.332 1.794 1.644 1.07.385-.085zm-93.026.53c-.482 2.055 2.787.802.355.056l-.004-.09zm84.508 1.48c-2.944 3.143 3.068.56 0 0zm4.754.336c-2.576 1.701 1.584 1.06 0 0zm-80.888.134c-.873 2.208 3.199 1.274.476.087-.25-.064.04-.217-.476-.087zm-4.557.454c.595 2.219 2.275-.094 0 0zm72.513 1.433c-.963 2.421 2.263-.438 0 0zm3.962.045c-1.319 1.022 1.656.542 0 0zm-63.827.195c-1.188 2.165 2.39.327 0 0zm-3.737.315c.358 1.607 1.634-.592 0 0zm72.974.882c-3.202 1.966 2.727.913 0 0zm-78.36.348c-.689 2.28 3.366.47 0 0zm66.848.067c-2.259 1.153.742 2.583 1.037.294-.09-.468-.66-.496-1.037-.294zm-55.712.152c-1.38 1.32 1.037-.097 1.868 1.062-.348-.661-1.091-1.336-1.868-1.062zm51.201.475c-2.556 1.249 2.773 1.817.642.05-.065-.294-.47-.048-.64-.05zm-5.203-.043c-.057 1.578 4.159 2.56 3.155.776-.894-.598-2.076-.002-3.155-.776zm-40.923.146c-3.48.765 2.068 2.623 1.004.093-.336-.133-.869-.203-1.005-.093zm4.561.142c-3.584-.191-2.229 3.148.41.578.22-.345.303-.885-.41-.578zm53.536.315c-1.614 1.602 1.983.907.337-.089zm-70.45.395c-.64 1.879 2.587.277 0 0zm66.528.103c-1.808 2.857 3.263-.084 0 0zm-62.796.446c-.692 2.28 2.934.154 0 0zm61.026 1.088c-2.072 2.394 2.674.138 0 0zm-59.062.285c-.363 1.723 2.432 1.218.815.118-.255-.186-.54-.116-.815-.118zm51.305.388c-1.707 1.361 3.053.197 0 0zm-43.614.326c-.994 2.084 3.154-.62 0 0zm46.666-.115c-1.695.978 3.245 1.202.852.093-.251-.126-.579-.138-.852-.093zm-49.898.26c-2.767 1.146 1.049-1.33 1.362.21-.265-.403-.986-.18-1.361-.21z"
     style="fill:#111112;fill-opacity:1;stroke:none"
     id="path14" />
</svg>
