<?xml version="1.0" encoding="UTF-8" standalone="no"?>
<!-- Created with Inkscape (http://www.inkscape.org/) -->

<!-- Sourced from https://openclipart.org/detail/16185/simple-vector-tree CC0 -->

<svg
   id="svg2447"
   sodipodi:docname="tree-template.svg"
   viewBox="0 0 110.60854 100"
   sodipodi:version="0.32"
   version="1.0"
   inkscape:output_extension="org.inkscape.output.svg.inkscape"
   inkscape:version="1.2.1 (9c6d41e410, 2022-07-14)"
   width="110.60854"
   height="100"
   xmlns:inkscape="http://www.inkscape.org/namespaces/inkscape"
   xmlns:sodipodi="http://sodipodi.sourceforge.net/DTD/sodipodi-0.dtd"
   xmlns="http://www.w3.org/2000/svg"
   xmlns:svg="http://www.w3.org/2000/svg"
   xmlns:rdf="http://www.w3.org/1999/02/22-rdf-syntax-ns#"
   xmlns:cc="http://creativecommons.org/ns#"
   xmlns:dc="http://purl.org/dc/elements/1.1/">
  <defs
     id="defs57" />
  <sodipodi:namedview
     id="base"
     bordercolor="#666666"
     inkscape:pageshadow="2"
     guidetolerance="10.0"
     pagecolor="#ffffff"
     gridtolerance="10.0"
     inkscape:zoom="9.7853888"
     objecttolerance="10.0"
     borderopacity="1.0"
     inkscape:current-layer="g3341"
     inkscape:cx="84.258277"
     inkscape:cy="51.863039"
     inkscape:window-y="0"
     inkscape:window-x="2560"
     inkscape:window-height="1414"
     inkscape:pageopacity="0.0"
     inkscape:window-width="2560"
     inkscape:showpageshadow="0"
     inkscape:pagecheckerboard="0"
     inkscape:deskcolor="#d1d1d1"
     showgrid="false"
     inkscape:window-maximized="1" />
  <g
     id="layer1"
     transform="translate(-36.807169,-183.78587)">
    <g
       id="g3341">
      <g
         id="g3495"
         style="fill:#111112"
         transform="matrix(0.20354591,-0.0129373,0.0129373,0.20354591,8.5377218,179.50851)">
        <g
           id="g3473"
           style="fill:#111112;fill-opacity:1">
          <path
             id="path3471"
             style="color:#000000;fill:#111112;fill-opacity:1;fill-rule:evenodd;stroke:#000000;stroke-width:0.125"
             d="m 487.9,436.93 c 10.81,6.29 -4.6,4.3 3.14,9.56 -16.92,-11.83 -0.33,11.16 8.95,10.12 14.97,5.78 32.64,-0.72 47.01,7.59 4.24,-5.53 26.74,-22.32 8.43,-13.96 -5.02,4.77 -34.03,-1.62 -21.99,-2.99 19.81,-4.08 11.02,-3.47 -3.82,-1.87 -16.99,-1.03 -14.48,-7.46 1.91,-5.28 10.74,-1.71 34.19,-21.78 7.48,-8.92 -14.68,5.64 -33.04,7.3 -8.37,0.42 35.81,-8.23 -21.2,-4.85 -15.11,-5.68 16.14,-3.41 33.2,-3.23 47.63,-12.23 -10.85,1.61 -21.65,7.13 -32.58,3.29 5.78,-1.33 36,-4.88 19.14,-4.14 -5.91,-0.36 -34.99,1.8 -23.3,-0.48 6.08,-1.41 37.83,-7.11 29.59,-6.22 -27.49,-0.06 -56.93,4.27 -81.49,-11.13 15.62,11.33 7.97,6.51 1.23,4.15 10.14,8.82 -15.46,13.66 7.79,13.36 8.13,3.03 10.88,14.22 24.23,14.57 19.71,6.12 -22.3,-1.76 -13.16,3.4 5.57,2.17 28.65,18.02 16.86,14.7 -7.86,-2.75 -15.71,-5.51 -23.57,-8.26 z" />
          <g
             id="g3451"
             style="fill:#111112;fill-opacity:1">
            <path
               id="path3443"
               style="color:#000000;fill:#111112;fill-opacity:1;fill-rule:evenodd;stroke:#000000;stroke-width:0.125"
               d="m 422.24,499.81 c 7.38,-20.11 30.17,-22.84 47.48,-30.31 27.42,5.34 55.71,3.92 82.96,-0.33 10.07,-6.63 20.13,-11.5 30.12,-1.88 16.97,11.86 38.32,10.99 57.97,14.34 19.4,-0.22 -10.4,0.91 -17.05,1.4 -16.77,-1.88 -17.03,-2 -0.46,2.64 19.77,2.17 13.13,2.12 -2.78,1.28 -16.1,-3.24 -19.82,1.93 -1.97,3.77 11.19,0.22 21.67,4.77 32.03,8.58 -16.11,-5.32 -13.74,-0.08 -14.51,0.06 -16.59,-7.55 -1.37,3.66 -18.97,-4.27 4.53,6.57 1.28,2.51 -3.64,2.02 13.7,12.33 4.93,12.68 -4.3,0.68 -0.71,15.16 -14.04,-5.68 -10.1,7.57 -12.62,3.2 -3.93,3.83 -10.94,-8.58 -4.51,5.16 -28.3,19.3 -15.47,4.14 0.09,-10.41 29.58,-8.95 15.7,-13.61 -10.39,2.89 -25.84,-0.37 -26.6,14.25 -6.77,8.16 -24.17,12.03 -13.75,-4.09 -5.84,5.92 -19.38,24.58 -9.98,5.69 3.49,-11.5 -15.67,9.88 -23.78,5.33 -15.76,2.19 4.27,-20.07 -16.65,-9.26 -14.17,8.13 -12.22,12.21 -3.4,-3.94 11.38,-19.08 -20.69,-0.43 -7.51,-12.1 -5.15,-16.1 -10.77,14.18 -7.03,13.45 -7.99,-4.94 -1.48,12.9 -17.97,14.28 12.98,-14.8 7.06,-11.84 -5.76,-2.39 -16.22,11.76 19.02,-18.47 -1.79,-4.21 -18.3,11.17 -7.61,2.89 3.26,-5.51 17.54,-12.55 4.08,-5.37 -7.31,0.48 10.86,-10.3 14.84,-14.88 -0.07,-3.74 -11.45,8.4 17.59,-19.98 8.62,-13.86 -10.76,7.73 -22.13,3.34 -9.89,8.27 -15.57,0.66 -14.94,5.24 -10.95,7.11 -8.94,1.19 7.02,17.26 -7.99,0.71 -5.81,12.19 -1.58,7.29 -3.5,1.03 -6.92,4.65 -16.83,11.58 -5.15,1.99 z" />
            <g
               id="g3427"
               style="fill:#111112;fill-opacity:1">
              <g
                 id="g3410"
                 style="fill:#111112;fill-opacity:1">
                <path
                   id="path3408"
                   style="color:#000000;fill:#111112;fill-opacity:1;fill-rule:evenodd;stroke:#000000;stroke-width:0.125"
                   d="m 439.29,320.22 c 5.93,-7.01 25.4,-19.32 4.99,-16.02 14.79,-2.23 0.58,-4.65 0.43,-6.05 11.16,-5.17 8.37,-3.16 15.63,-1.77 -7.52,-8.16 0.23,-14.56 -15.32,-19.7 -10.02,-0.5 -22.66,-3.79 -30.65,3.91 -12.76,6.36 4.69,-15.98 13.33,-12.77 10.13,-5.14 22.64,2.04 30.9,6.95 2.96,11.52 10,19.41 20.37,24.88 7.64,7.22 19.47,16.02 11.6,27.2 -8.18,9.79 26.28,16.61 11.87,19.9 -7.92,-0.08 -31.45,12.13 -20.21,-3.06 -1.42,-8.09 -21.84,-9.33 -14.38,-23.1 -2.83,-14.1 25.52,8.52 11.44,-9.3 2.52,-16.04 -16.17,1.58 -24.16,2.22 -5.28,2.24 -10.56,4.47 -15.84,6.71 z" />
                <g
                   id="g3397"
                   style="fill:#111112;fill-opacity:1">
                  <g
                     id="g3386"
                     style="fill:#111112;fill-opacity:1">
                    <path
                       id="path3384"
                       style="color:#000000;fill:#111112;fill-opacity:1;fill-rule:evenodd;stroke:#000000;stroke-width:0.125"
                       d="m 386.38,215.45 c 13.4,-6.54 18.64,-5.1 18.48,9.39 12.95,16.65 8.29,2.39 4.77,-9.87 -0.26,-12.14 18.19,-4.54 25.64,-2.57 13.49,2.58 24.63,12.02 33.95,21.74 -4.64,7.93 6.04,31.59 10.45,15.93 3.05,-12.07 19.69,-6.81 28.61,-12.79 10.43,-0.19 16.18,13.34 23.7,16.41 12.89,6.92 18.96,-13.96 26.95,1.5 1.21,-2.29 16.15,-5.22 18.97,0.5 -18.1,-13.06 16.24,6.81 -5.5,-6.13 -10.49,-8.03 -23.53,-8.91 -35.37,-3.47 0.82,-9.55 28.95,-3.61 18.77,-9.35 -16.75,-10.05 -4.85,-5.78 1.17,-5.97 -5.24,-2.46 -30.94,-16.12 -15.85,-9.29 14.46,8.58 -8.78,-14.26 12.95,-5.52 11.47,7.38 9.31,7.68 18.82,7.39 8.08,-6.21 4.12,-9.22 -7.95,-16.8 -10.72,-7.11 -24.98,1.24 -35.19,-2.7 -2.38,-13.2 -22.53,-4.51 -21.64,-18.2 -13.48,-9.71 14.47,-18.58 -2.69,-24.92 -10.12,-8.21 -25.25,-2.74 -37.52,-5.28 -16.88,-1.2 -33.78,-2.78 -50.2,2.42 12.79,5.56 25.59,11.11 38.38,16.67 -15.32,-3.87 -30.64,-7.74 -45.96,-11.62 -1.64,12.34 -0.99,23.02 14.01,23.36 11.91,3.93 22.59,10.84 33.97,16.04 -19.34,-3.97 -38.62,-8.24 -58.08,-11.62 4.48,9.14 27.89,10.99 7.46,15.9 -7.03,2.95 -14.06,5.9 -21.1,8.85 z" />
                    <g
                       id="g3377"
                       style="fill:#111112;fill-opacity:1">
                      <g
                         id="g3301"
                         style="fill:#111112;fill-opacity:1">
                        <path
                           id="path3266"
                           style="color:#000000;fill:#111112;fill-opacity:1;fill-rule:evenodd;stroke:#000000;stroke-width:0.125"
                           d="m 186.44,193.78 c -21.65,0.96 1.19,0.93 7.58,9.5 -3.7,2.07 -32.4,-0.48 -12.07,2.38 4.42,3.22 29.32,1.39 12.82,4.56 -21.14,7.36 0.45,0.52 3.93,7.63 -0.86,9.09 -16.79,15.96 1.77,10.45 10.47,-5.01 20.23,11.48 2.28,4.42 -5.84,-3.5 -32.17,7.37 -19.74,5.48 12.28,-1.75 23.58,4.26 4.93,2.35 0.9,7.59 -6.86,3.5 -19.42,4.59 -8.04,0.28 20.39,3.43 6.53,6.06 9.17,0.1 30.8,5.83 9.64,5.76 5.05,7.2 27.7,-1.71 18.52,5.64 10.88,7.91 1.64,9.47 -12.63,10.23 -11.36,0.6 -22.23,2.39 -30.28,11.19 -12.16,11.31 -28.72,16.02 -41.02,26.92 10.61,0.15 6.42,-5.21 19.16,-2.45 5.99,7.97 5,-2.43 10.5,-10.05 3.84,9.02 4.4,-1.76 7.58,2.78 14.53,-14.77 -9.19,19.4 6.84,2.29 9.22,-12.81 3.09,13.08 8.61,-6.69 9.55,-0.56 8.52,-2.42 3.78,11.76 -15.45,12.2 0.78,-0.06 1.25,4.14 2.38,-9.48 15.03,4.35 8.42,-7.74 4.08,-4.7 10.22,5.05 8.97,-8.46 8.95,5.36 0.3,-10.25 12.77,-6.64 -7.94,-4.88 13.97,-5.64 0.31,-8.53 2.94,-0.51 20.48,-2.28 28.59,-6.47 -20.05,-0.03 -11.71,-2.56 2.9,-5.63 7.04,-2.82 30.54,-2.39 14.26,4.91 -4.71,3.82 -23.57,3.95 -8.54,7.15 -12.01,6.17 -19.98,-4.85 -22.84,4.8 23.95,4.47 -11.2,2.59 -11.44,5.03 8.47,-0.57 -12.56,9.04 -1.46,8.02 -15.41,14.17 7.57,0.04 14.98,-2.61 7.92,-2.71 -27.68,17.64 -8.49,11.03 15.94,-4.2 28.95,-21.25 46.35,-18.8 -10.05,4.43 -19.46,8.42 -28.97,14.5 -5.71,8.27 14.55,-5.37 19.35,-7.72 5.7,3.93 -21.93,16.01 0.68,11.1 8.13,-1.67 17.59,11.09 9.66,-5 -2.86,-4.71 15.06,-3.58 16.17,-16.05 14.41,-11.63 -1.08,16.17 11.33,-2.55 7.44,1.94 -8.68,17.19 -11.85,23.5 -13.07,13.45 9.87,-1.91 13.44,-7.85 5.54,-11.32 18.95,-13.76 10.06,-3.83 -13.13,9.25 -12.99,9.05 2.1,4 1.37,5.19 -10.06,16.02 7.39,7.16 5.58,-3.42 -0.5,-10.24 16.04,-5.09 17.52,1.62 -6.14,-10.17 -13.9,-8.69 -11.51,-11.62 1.79,-9.76 10.66,-5.6 8.01,-18.68 8.89,5.76 12.42,14.2 -0.71,9.7 -4.62,10.48 3.6,15.12 -8.84,6.96 13.27,14.32 16.67,22.78 6.12,13.44 18.83,5.42 29.62,3.66 -2.67,15.98 -7.2,5.59 1.19,16.09 1.26,6.57 12.01,-14.42 22.77,-11.98 11.49,-11.46 11.88,15.7 16.23,-3.81 10.76,12.09 11.46,-7.51 11.06,-15.72 -4.22,-5.08 -16.28,2.95 -20,-7.12 -6.64,-14.52 -13.67,-9.38 -9.26,-7.13 -4.49,0.11 -9.78,-3.36 -21.08,-6.09 6.6,-3.17 -10.49,-13.91 3.06,-7.63 -4.63,-15.71 -30.72,-50.39 -23.33,-56.95 14.42,-2.31 -12.84,-4.39 -17.85,-6.9 -8.88,-5.75 -22.73,-2.94 -26.42,-15.19 -13.74,0.39 -11.63,0.44 -5.71,4.62 -14.76,6.54 -3.31,18.52 -8.96,16.26 -12.56,6.04 -18.25,-2.75 -16.54,4.86 -13.22,6.58 -10.46,-6.36 -21.37,-10.39 -19.48,-3.96 8.4,2.26 9.18,-1.13 6.62,1.44 23.78,1.39 22.56,-10.03 -2.73,-9.08 -20.59,-16.19 -15.72,-3.24 -4.09,-6.13 -28.35,-7.08 -18.9,-12.5 -7.52,-6.06 -16.92,12.32 -25.72,1.44 -9.85,-8.19 -23.48,-6.83 -35.19,-6.08 -8.04,0.94 -13.18,-6.71 -19.81,-10.02 z m 37.12,48.94 c 6.92,0.63 35.97,1.39 15.78,1.86 -21.59,0.59 -6.74,0.94 6.3,1.29 6.11,2.55 35.63,-4.14 19.46,0.46 -14.98,3.87 9.67,3.09 -12.3,3.4 -18.13,0.85 15.56,-2.93 -10.38,-1.67 -11.83,0.35 -23.56,-2.2 -35.26,0.72 18.58,-3.02 8.1,-3.49 2.51,-3.85 4.63,-0.74 9.26,-1.47 13.89,-2.21 z m 122.16,21.44 c -2.62,9.17 14.22,26.48 9.78,24.72 -7.63,-0.18 15.53,17.54 -3.34,6.34 12.84,17.37 2.04,2.08 1.25,5.63 1.98,6.4 12.47,30.47 2.1,14.04 -2.69,-12.38 -10.71,-25.22 -8.38,-36.91 -0.47,-4.61 -0.94,-9.21 -1.41,-13.82 z m 39.09,48.03 c 14.47,7.11 28.64,16.87 45,18.37 -11.1,1.23 -20.95,-3.37 -30.87,-7.65 9.92,4.6 17.84,15.6 29.28,15.34 -10.88,5.3 -18.5,-8.98 -29.76,-9.4 -17.13,-8.9 -11.32,-6.84 -2.86,-3.27 -10.08,-8.12 13.22,8.11 -3.89,-5.37 -18.21,-7.57 15.84,6.11 -8,-5.57 6.21,2.34 19.78,11.7 1.1,-2.45 z" />
                        <path
                           id="path3277"
                           style="color:#000000;fill:#111112;fill-opacity:1;fill-rule:evenodd;stroke:#000000;stroke-width:0.125"
                           d="m 275.28,409.66 c -10.77,1.55 -21.04,4.35 -28.3,9.75 -21.35,10.36 11.33,9.13 -14.01,15.87 16.12,1.49 17.36,-7.12 10.69,2.52 9.86,3.16 17.05,-19.04 13.97,-3.32 -12.13,5.71 16.34,10.63 17.06,6.5 -4.69,-6.48 15,-0.78 4.25,-12.01 11.69,-6.23 28.19,-0.55 14.03,-15.69 -3.59,-5.09 -12.2,-2.12 -17.69,-3.62 z m 13,7.31 c -9.4,2.68 -3.5,10.66 -19.84,6.56 -21.26,-1.34 19.33,9.32 1.9,4.31 -6.15,-1.35 -32.03,-1.38 -20.42,-1.12 8.62,-0.14 10.36,-7.98 24.38,-4.07 4.4,-0.02 7.67,-5.83 13.98,-5.68 z" />
                        <path
                           id="path3264"
                           style="color:#000000;fill:#111112;fill-opacity:1;fill-rule:evenodd;stroke:#000000;stroke-width:0.125"
                           d="m 171.43,341.65 c 13.52,-7.49 28.66,-4.57 43.21,-2.86 18.96,-11.4 -13.54,-3.43 7.5,-10.36 14.56,-4.95 16.49,-9.93 0.06,-4.82 -14.8,4.12 13.26,-4.78 17.5,-9.23 -4.9,-0.93 -29.66,-2.64 -24.37,-3.3 10.21,-3.7 21.49,-7.17 30.47,0.79 7.94,11.37 22.39,-4.83 24.56,1.92 13.73,-1.74 8.66,-4.46 17.56,1.6 20.58,5.43 -11.43,-3.9 -9.62,9.15 0.5,9.47 -19.25,-5.01 -23.33,8.18 -0.95,12.31 -9.56,12.59 -20.54,15.7 -10.26,-0.15 -22.34,-6.2 -30.61,4.72 -18.13,12.46 4.08,0.08 -7.03,-4.35 -14.37,15.27 -0.41,-5.6 -16.23,7.34 11.69,-12.59 -14.31,-3.1 -9.05,-6.24 1.79,-5.59 30.8,-8.96 13.8,-9.47 -4.62,0.55 -9.23,1.06 -13.88,1.23 z" />
                      </g>
                      <path
                         id="path3375"
                         style="color:#000000;fill:#111112;fill-opacity:1;fill-rule:evenodd;stroke:#000000;stroke-width:0.125"
                         d="m 317.86,93.434 c 3.02,-13.368 -14.79,-14.685 -1.93,-16.693 -8.7,-10.076 14.57,-6.026 8.07,-8.751 10.02,-6.65 12.28,5.321 24.58,1.118 5.93,-5.691 31.78,-10.233 17.7,0.092 -2.62,14.101 2.25,-0.067 11.25,-5.328 -3.84,-2.15 -14.42,-11.317 0.32,-6.332 7.25,13.474 15.22,-25.855 12.3,-5.834 -5.41,12.071 13.97,2.231 -0.74,18.355 12.92,-3.225 27.36,-6.556 40.95,-9.485 -17.32,12.257 -5.47,6.22 3.94,12.328 8.54,18.453 -4.52,-9.816 -14.34,0.851 -15.07,12.048 9.43,4.394 12.47,7.592 5.37,8.182 20.41,6.3 29.77,5.569 10.53,-10.94 13.98,7.518 25.76,-2.656 -11.4,4.212 -7.31,20.19 3.37,23.07 -12.86,-2.7 -1.83,6.15 -17.7,1.53 -19.43,-8.68 -1.34,2.58 7.58,5.92 -5.08,-1.11 -29.55,-7.99 -22.91,0.3 5.06,5.35 30.58,4.43 24.44,6.01 -1.82,3.42 -12.77,4.73 -23.88,1.36 -15.55,-1.9 13.88,2.55 17.03,8.99 6.29,6.4 -17.11,7.51 -23.91,9.21 -13.46,-2.09 -21.81,8.81 -31.62,16 -16.43,2.08 -8.32,-18.92 -11.61,-21.86 -5.93,13.49 -18.26,4.23 -28.98,4.32 -0.06,-0.58 22.86,0.23 -0.01,-2.49 -17.52,-2.39 -12.84,-0.21 0.01,6.49 11.63,5.8 -17.42,9.07 -21.18,1.52 -11.91,-8.29 -20.2,-13.04 -7.74,2.65 3.7,14.49 19,5.48 28.96,8.86 20.52,7.1 -3.32,7.75 -7.69,14.47 7.46,14.96 -3.87,15.23 -15.41,17.82 -10.48,7.83 -20.8,15.5 -7.42,0 -8.56,-9.74 -22.95,9.37 -6.79,-6.07 2.69,-24.64 -17.32,22.9 -11.11,-1.92 0.66,-11.44 -10.33,12.72 -16.21,15.33 -22.17,12.11 12.04,-6.54 -0.8,-9.91 -9.51,12.67 -0.85,-20.27 -9.41,-1.05 -1.1,11.22 -3.35,-23.33 -5.33,-2.14 2.55,2.5 -15.39,-10.24 -12.91,9 -6.3,4.63 3.22,-6.28 -4.63,-1.74 9.61,-18.37 -8,-0.37 -7.93,-9.92 -17.84,6.61 -6.18,0.27 -7.59,-4.65 -17.62,-1.06 -4.22,19.48 -11.47,13.46 -1.06,14.96 1.41,-1.98 -9.56,-0.7 6.29,12.81 -12.6,9.28 -4.98,-0.65 14.82,-4.92 -0.04,-11.62 -3.37,-2.68 -3.79,-3.26 -19.89,-2.91 -8.63,8.64 -11.06,-6.17 -20.15,-3.45 -6.43,-14.74 7.88,-11.77 -14.81,1.93 -18.93,6.53 16.08,-14.64 4.99,-3.78 -6.11,2.01 -21.54,5.41 12.27,-9.74 -9.6,-1.3 13.07,-7.53 -4.5,-2.16 3.16,-6.9 -0.17,-0.62 2.67,-11.9 18.63,-4.52 13.2,5.75 20.67,-14.89 6.25,-14.83 -10.38,-0.08 15.39,-8.71 17.67,-16.42 11.23,-7.27 11.55,-18.56 -2.9,-19.94 -20.82,3.04 18.69,-3.81 2.14,-11.78 12.75,-7.97 -19.77,-21.786 -2.76,-14.239 4.94,-14.613 3.81,15.539 14,13.629 13.48,-0.63 25.92,-7.67 38.81,-11.425 15.82,-13.142 -22.28,-15.209 -0.43,-14.471 8.21,2.732 7.42,21.356 21.14,19.476 5.88,-2.8 12.22,-4.31 14.65,-11.076 z" />
                    </g>
                  </g>
                  <path
                     id="path3395"
                     style="color:#000000;fill:#111112;fill-opacity:1;fill-rule:evenodd;stroke:#000000;stroke-width:0.125"
                     d="m 274.29,406.29 c 17.39,4.25 18.8,-38.44 23.95,-13.45 9.13,7.7 22.64,-6.4 14.94,6.18 12.99,1.46 19.67,0.1 2.53,4.41 17.5,6.24 6.09,2.55 0.95,3.66 13.45,5.58 18.66,12.92 1.57,3.7 2.19,7.27 -4.67,16.44 -12.68,0.72 -4.51,-10.95 -20.77,-2.63 -30.38,-5.22 z" />
                </g>
              </g>
              <path
                 id="path3423"
                 style="color:#000000;fill:#111112;fill-opacity:1;fill-rule:evenodd;stroke:#000000;stroke-width:0.125"
                 d="m 285.37,440.21 c 10.54,3.6 19.61,9.17 25.76,18.69 7.12,-0.54 27.01,14.12 20.16,12.6 -6.12,-3.94 -10.26,5.01 -16.63,-8.06 3.87,12.67 4.56,8.9 -5.81,15.57 3.85,1.85 -6.41,-29.57 -5.36,-13.58 7.18,16.34 -2.35,15.13 -4.77,1.07 6.71,-22.03 -19.51,11.78 -8.76,-5.47 11.75,-16.25 -19.44,-4.87 -5.7,-18.81 l 0.89,-1.61 z" />
              <path
                 id="path3425"
                 style="color:#000000;fill:#111112;fill-opacity:1;fill-rule:evenodd;stroke:#000000;stroke-width:0.125"
                 d="m 372.49,424.3 c -3.56,-12.09 14.21,-14.71 22.97,-15.91 4.72,-1.65 -19.9,-10.17 1.43,-12.07 1.94,-4.16 13.06,14.07 20.74,17.65 15.27,7.13 17.52,9.34 -0.82,6.55 -10.92,1.91 -21.41,17.11 -4.91,13.94 16.53,-9.74 -3.76,17.04 16.23,11.54 28.08,-1.68 -9.42,2.37 -4.59,3.71 23.31,3.28 -15.46,1.86 2.24,10.7 -28.32,-14.11 15.74,21.53 -11.62,4.04 12.36,15.19 -10.71,3.57 -14.09,-3.97 -16.04,-15.66 5.48,9.74 3.81,11.82 -9.49,-0.7 0.32,1.84 -8.99,-12.97 -11.76,-12.63 24.19,-19.59 -6.9,-17.33 -14.58,2.89 8.58,-16.05 -12.34,-3.46 1.17,-6.29 13.91,-12.5 -3.16,-14.24 z" />
            </g>
          </g>
        </g>
        <path
           id="path3493"
           style="color:#000000;fill:#111112;fill-rule:evenodd;stroke:#000000;stroke-width:0.125"
           d="m 460.12,277.58 c 15.05,3.47 30.12,6.83 42.94,15.67 14.88,1.51 -11.39,11.03 10.99,12.46 12.61,0.52 21.04,12.3 31.43,18.33 -6.87,-9.7 -31.02,-31.21 -2.63,-16.85 14.92,7.62 37.95,20.18 10.05,3.28 -29.22,-11.02 -2.47,-10.42 11.74,-12.46 9.93,-4.18 21.01,15.34 24.92,13.8 -12.1,-17.13 11.35,4.85 16.82,6.74 6.41,-1.18 -14.91,-21.64 -25.66,-26.64 -11.74,-6.69 -27.22,-2.07 -40.48,-4.81 -13.39,-1.17 -23.64,-12.72 -37.53,-13.72 -12.18,-8.76 -19.66,3.22 -30.1,5.37 -4.16,-0.39 -8.32,-0.78 -12.49,-1.17 z" />
      </g>
      <g
         id="g3529"
         style="fill:#111112;fill-opacity:1"
         transform="matrix(0.20354591,-0.0129373,0.0129373,0.20354591,8.5377218,179.50851)">
        <g
           id="g3523"
           style="fill:#111112;fill-opacity:1">
          <path
             id="path3521"
             style="color:#000000;fill:#111112;fill-opacity:1;fill-rule:evenodd;stroke:#000000;stroke-width:0.125"
             d="m 373.93,509.86 c 19.76,1.71 52.83,3.23 17.94,3.22 20.13,-0.49 40.82,0.4 60.63,5.71 38.14,-3.59 -34.58,7.11 0,6.07 -18.98,1.16 -37.99,2.83 -56.79,-1.07 19.33,7.27 -7.06,4.41 -14.04,0.49 -15.41,-7.59 -46.28,5.47 -39.64,-3.9 -12.1,0.54 -24.21,1.08 -36.32,1.63 5.21,-1.88 33.95,-7.84 21.64,-6.67 -14.35,1.42 -25.1,2.32 -4.67,-1.2 17.51,-4.4 35.11,-7 53.03,-3.56 L 374,509.89 Z" />
          <path
             id="path3519"
             style="color:#000000;fill:#111112;fill-opacity:1;fill-rule:evenodd;stroke:#000000;stroke-width:0.125"
             d="m 253.21,503.43 c 31.8,-3.06 63.26,3.02 95,3.93 -15.29,2.07 -30.61,3.94 -46.07,3.93 17.57,-4.36 -26.12,-3.14 -38.12,-2.56 3.73,0.23 19.05,-3.42 -2.55,-3.47 1.65,-3.02 -19.41,2.77 -8.26,-1.83 z" />
        </g>
        <path
           id="path3527"
           style="color:#000000;fill:#111112;fill-opacity:1;fill-rule:evenodd;stroke:#000000;stroke-width:0.125"
           d="m 456.08,528.09 c 15.03,1.1 61.44,9.9 25.9,-0.13 5.83,-1.26 21.92,-1.15 31.68,-1.89 18.17,3.17 70.25,4.89 69.24,8.56 -6.24,0.94 -35.16,2.19 -23.82,2.88 12.12,1.16 24.27,0.31 36.4,0.18 -13.79,7.87 -60.05,-1.43 -38.19,6.79 -35.01,6.39 -69.83,-8 -105.06,-5.2 -8.45,-0.5 -37.15,-5.17 -14.39,-4.65 12.97,-0.86 25.97,-0.33 38.95,-0.48 -6.9,-2.02 -13.8,-4.04 -20.71,-6.06 z" />
      </g>
      <path
         id="path2238"
         style="color:#000000;fill:#f5c211;fill-opacity:1;fill-rule:evenodd;stroke:#000000;stroke-width:0.025495"
         d="m 91.354047,201.91798 c -0.647205,2.78945 -1.943233,7.00761 -5.525511,5.28119 -1.391491,0.49026 1.292791,6.14845 0.398031,6.62576 -1.632574,-3.29104 -4.299058,-5.54654 -7.48007,-7.28591 -0.313894,3.13733 8.826256,6.67107 7.596566,12.35514 0.08576,8.2551 0.632643,16.48593 0.956246,24.72484 -4.360543,-4.72136 -5.913834,-11.31314 -7.201772,-17.45026 1.949705,0.11812 7.863538,2.17785 3.614639,-0.79768 -4.807114,-2.06296 -7.810144,-9.48316 -5.999588,-13.76442 3.773204,0.26859 6.604724,-1.43194 1.100248,-1.6164 -6.988194,3.93501 0.580866,-4.1777 -1.381782,-4.16961 -2.84932,4.52396 -2.972288,-0.29772 -5.761741,-1.7604 -5.017455,-1.13746 -1.61963,1.12128 1.200565,2.42702 2.325083,4.47056 -1.139081,-1.86557 -3.431804,-1.12614 -4.44306,-0.002 -5.735852,0.95463 -0.572776,1.01126 4.8508,0.86078 1.012876,2.23447 -1.67626,0.28962 -4.616188,-0.72001 -9.352109,-0.74428 -14.013602,-0.50967 4.88316,1.32839 10.138463,0.0955 14.898654,1.53549 2.291105,2.16814 6.994666,2.38819 7.700119,5.74556 -2.72635,-2.56293 -11.945782,-7.03997 -12.905263,-5.38151 8.295547,1.48534 15.078253,7.13867 15.799887,15.93419 -3.726282,-2.16167 -7.947675,-3.51594 -12.317925,-2.98524 -3.799093,-2.36391 -8.526924,-0.73134 -12.740227,-1.86556 -2.716642,-0.0971 4.457623,1.58241 6.156536,1.25881 3.248968,0.18769 6.044893,2.31537 9.445954,1.86233 4.93979,-0.54527 3.25544,2.24095 -0.524236,2.09047 -6.080489,0.45305 -12.309835,-0.45628 -18.286771,0.76532 7.101454,-0.69089 14.426194,0.77503 21.386882,-0.76855 3.399443,-1.81865 4.719741,-0.16666 4.033704,2.8299 0.676329,-3.30236 2.914039,-0.76208 3.06775,2.7312 -4.34598,-1.63419 -8.958932,0.24918 -13.419791,-0.84622 -4.706797,0.13106 -9.1806,2.06459 -12.961894,4.79741 5.18411,-1.04685 10.009022,-3.53374 15.432598,-3.22794 3.514322,-0.30742 -5.502858,4.16315 0.839749,0.99832 3.428567,-2.31861 7.848976,-0.665 10.486335,1.95941 2.342881,2.86065 1.676261,7.14514 4.653403,9.73072 1.559763,3.28942 2.439962,6.71799 2.619561,10.36499 -2.907568,-0.74429 -3.860577,-4.52558 -6.004443,-6.31672 -1.127754,-3.2425 -3.168067,-7.52052 -7.274581,-6.73902 -3.404298,0.21358 -7.171029,-0.14562 -10.361749,0.72487 -2.168136,2.04031 4.753719,-0.70707 6.635467,-0.0291 0.343019,1.26366 1.242633,0.72325 5.014219,0.13267 3.590369,0.19578 2.951254,5.20353 5.321642,7.1775 1.802465,2.79916 -6.766526,-1.48209 -0.506438,1.78953 2.206968,2.5969 5.033635,4.77313 6.444542,7.95091 -3.092021,-4.06121 -8.431461,-5.67437 -12.335724,-8.90878 -3.305598,-3.06451 -5.074085,-0.50967 -1.08245,1.65685 4.34598,2.72635 9.355345,4.86536 12.690068,8.84243 -3.282946,-2.27816 -4.219775,1.42871 -7.281054,-0.4579 -4.761809,-1.15202 -4.697089,-0.0534 -0.03721,0.94492 2.711788,1.90602 4.587064,-1.38825 6.989812,0.87211 3.151887,3.77968 -1.03391,-0.0502 -3.268384,-0.27344 -4.210068,-0.94816 -12.127,4.19389 -10.829355,5.77954 4.51749,-8.79066 17.058701,-3.43181 15.087962,4.34759 -0.660149,3.20043 -0.779882,7.20016 -0.270208,8.79228 2.129304,-1.18924 13.023378,1.55653 6.567511,-1.55491 2.789452,-5.65819 3.34443,-15.32095 11.607612,-14.26763 4.69385,1.02097 4.67606,-1.43032 0.12459,-1.042 -5.884707,0.0469 0.33331,-0.94815 0.82357,-4.35083 1.06303,-2.50145 0.57763,-7.09822 4.46086,-6.08049 1.65522,1.85262 8.49941,1.52093 3.34604,0.46113 -5.0935,-0.7103 -2.53057,-3.49328 0.92065,-1.02096 -0.33331,-1.27985 -4.44468,-3.02892 -6.21963,-0.66986 -2.88977,-4.50778 -3.48358,3.71496 -3.98031,6.05946 -1.53388,3.44313 -10.42647,10.6724 -5.905744,3.59522 2.706934,-5.0935 3.778054,-10.80023 5.695394,-16.20277 2.69723,0.75723 -0.72487,-2.42055 3.98517,-3.89294 1.21512,-1.90278 8.11918,-0.40774 5.22456,-3.04024 -3.55154,0.3058 -6.97849,0.92388 -9.59967,3.54344 -3.873513,4.19551 -2.981989,10.63358 -6.09019,15.35979 -1.781431,3.06128 -2.549987,6.9623 -5.125862,9.378 -2.40113,-5.93002 1.944851,-11.77751 3.600077,-17.51175 1.812173,-4.46409 2.215058,-9.88443 5.350765,-13.57188 2.57911,-1.65037 3.7101,-3.4496 7.17264,-3.37841 2.8833,-0.38994 -6.52058,1.01935 -2.59529,-2.95611 -2.18431,0.81224 -6.133877,5.38636 -3.84439,0.35111 3.33472,-3.12923 -0.8802,-6.32319 -2.035459,-2.14225 -1.486953,6.99629 -4.051502,13.73369 -6.734166,20.34327 -2.003099,2.54351 -1.00964,6.17433 -2.97876,8.89744 1.532257,-2.40922 1.524167,-9.68703 1.06627,-13.98124 -0.914177,-10.59636 1.465919,-21.0293 1.707002,-31.59006 3.414006,-0.90609 2.035459,-4.9317 6.051365,-5.60156 0.823568,-5.1566 -4.357306,2.78783 -3.791002,0.0761 2.302431,-3.3056 0.320367,-4.04665 -2.922129,-3.25868 z m 3.936623,63.12512 c -4.112987,-0.26374 -2.404366,4.57088 -2.8655,7.01085 -0.158565,2.05972 -5.536837,6.54485 -1.990154,2.69237 1.795993,-1.42385 1.590505,-4.17124 1.886602,-6.32805 0.01294,-2.28787 0.313894,-3.5127 2.969052,-3.37517 z" />
      <g
         id="g3334"
         style="fill:#008000"
         transform="matrix(1.258,-0.079958,0.079958,1.258,-137.91,157.35)">
        <path
           id="path3248"
           style="color:#000000;fill:#1c71d8;fill-opacity:1;fill-rule:evenodd;stroke:#000000;stroke-width:0.0202252"
           d="m 186.04973,44.531009 c 1.20056,-1.435177 4.32818,1.817027 3.19557,1.389872 -1.04038,-0.771792 -2.04193,-1.075978 -3.19557,-1.389872 z" />
        <g
           id="g3313"
           style="fill:#008000"
           transform="matrix(0.1618012,0,0,0.1618012,114.8297,24.912613)">
          <path
             id="path3254"
             style="color:#000000;fill:#1c71d8;fill-opacity:1;fill-rule:evenodd;stroke:#000000;stroke-width:0.125"
             d="m 457.6,158.12 c 17.24,-7.42 7.18,8 1.44,15.14 2,1.8 13.11,-14.46 19.6,-16.65 -0.89,16.56 -0.15,6.91 10.78,2.02 7.19,5.78 17.16,26.01 8.69,6.59 -9.12,-15.97 -0.37,-1.91 9.95,2.49 12.67,3.36 35.16,10.89 36.7,14.01 9.78,-7.99 17.13,7.53 26.73,9.23 -15.46,-9.61 11.85,-4.07 18.95,-8.25 7.1,-2.09 28.89,-17.32 11.82,-8.85 -21.84,3 -46.38,9.1 -66.12,-4.11 20.74,-1.62 -5.85,-5.53 -15.22,-6 -13.02,-4.66 -18.32,-12.25 -1.94,-15.97 24.75,-8.36 -27.7,1.04 -20.89,-3.11 16.85,-8.95 -5.92,-4.56 -14.39,-4.63 2.89,-7.43 -13.86,-5.14 -22.07,-0.21 -9.49,4.78 -20.62,-1.49 -28.92,6.88 -18.44,4.26 11.97,10.46 12.8,12.61 -17.89,-5.74 12.48,-13.12 12.09,-1.19 z" />
          <g
             id="g3282"
             style="fill:#008000">
            <path
               id="path3219"
               style="color:#000000;fill:#1c71d8;fill-opacity:1;fill-rule:evenodd;stroke:#000000;stroke-width:0.125"
               d="m 188.39,427.84 c 4.14,-22.11 22.91,-5.17 33.68,-16.15 1.9,0.31 -13.53,2.43 -18.02,-2.04 -14.35,4.12 12.99,-13.15 -6.31,-5.81 9.79,-8.3 21.93,-4.24 30.55,3.54 20.12,3.89 3.99,-10.74 18.52,-5.65 9.22,7.9 18.61,-0.42 29,0.44 12.73,2.12 27.03,1.93 37.84,9.76 -14.43,8.33 -6.98,7.85 -19.31,4.45 -15.78,-8.5 -21.62,9.47 -36.95,3.26 -8.19,-5.21 -23.64,-0.64 -30.99,4.63 -6.18,4.37 -9.32,33.4 -13.95,16.99 -5.01,-7.73 -16.63,-8.59 -24.06,-13.42 z" />
            <path
               id="path3217"
               style="color:#000000;fill:#1c71d8;fill-opacity:1;fill-rule:evenodd;stroke:#000000;stroke-width:0.125"
               d="m 232.34,462.43 c 8.05,-7.68 11.4,-23.37 24.78,-21.96 11.09,2.61 20.41,-3.87 29.69,-1.9 21.75,2.98 -14.75,11.84 3.89,15.49 3.41,2.24 -18.26,2.64 -21.49,12.41 17.77,-4.6 8.15,12.57 -3,6.2 1.1,-6.2 -8.22,-10.15 -17.18,-5.9 3.08,-12.95 -2.15,-1.05 -13.82,-4.34 h -1.84 z" />
            <path
               id="path3221"
               style="color:#000000;fill:#1c71d8;fill-opacity:1;fill-rule:evenodd;stroke:#000000;stroke-width:0.125"
               d="m 308.1,388.69 c -9.05,17.35 -13.58,-8.69 -20.68,1.85 -13.07,12.86 -10.33,8.22 -1.8,-4.63 -4.99,1.95 -27.56,18.15 -20.1,8.07 3.4,-11.62 20.34,-10.31 21.87,-22.46 -7.5,-5.68 -19.09,14.05 -21.76,12 13.89,-11.88 7.57,-13.97 -5.52,-4.68 -11.61,-1.61 -21.76,3.35 -32.87,3.98 3.9,-7.16 3.55,-6.14 -10.31,-7.01 10.16,-5.53 21.15,-2.17 31.09,-6.27 7.4,-8.1 22.1,0.78 26.96,-11.92 5.47,-11.23 18.39,-0.36 27.44,0.31 9.96,2.57 23.13,-0.13 26.16,13 1.29,17.73 -2.01,9.66 -8.87,-0.42 -7.87,-7.41 -19.64,2.8 -14.76,11.88 z" />
            <path
               id="path3223"
               style="color:#000000;fill:#1c71d8;fill-opacity:1;fill-rule:evenodd;stroke:#000000;stroke-width:0.125"
               d="m 402.55,489.2 c 10.66,-14.67 29.18,-18.11 42.42,-29.29 -10.19,1.46 -31.28,-0.18 -10.63,-3.19 15.91,-1.38 31.57,-0.99 46.63,4.94 11.01,2.72 28.73,10.14 9.63,-0.51 -16.31,-6.46 -33.69,-8.46 -51.18,-7.3 8.71,-6.57 10.22,-22.86 23.93,-15.98 17.22,5.45 31.37,17.39 49.12,21.04 7.29,4.78 25.85,-2.26 26.17,4.48 -14.08,3.42 -24.13,5.96 -3.93,1.84 6.93,0.94 25.44,-14.63 18.22,-15.02 -13.69,0.24 -23.06,-2.55 -6.06,-10.49 4.87,-3.23 -24.69,15.69 -13.09,0.21 0.59,-8.22 26.65,-18.42 14.52,-15.71 -8.48,3.23 -30.4,7.32 -11.6,-1.45 10.76,-3.53 27.74,-3.93 10.2,-13.81 -7.69,-10.61 -18,-10.8 -28.15,-3.34 -0.79,7.65 25.87,16.97 8.17,15.89 -8.91,-2.36 -26.32,6.77 -16.42,-6.93 4.48,-2.73 -14.03,9.77 -20.87,4.33 -15.47,11.15 -9.02,-4.35 1.1,-10.44 10.43,-11.33 27.47,-5.77 39.34,-14.87 17.58,-4.32 11.84,-4.39 -3.34,-2.55 -12.78,3.36 -24.33,10.41 -37.82,11.28 15.34,-10.7 0.94,-13.36 -9.98,-7.65 -6.88,-5.52 25.04,-11.79 8.47,-14.07 21.99,-2.98 -9.37,-10.88 9.87,-11.62 17.83,2.09 35.46,13.41 54.27,9.1 -14.41,12.29 -8.07,10.4 5.17,3.17 12.26,-6.6 29.92,-8.53 41.3,0.87 -15.55,-4.6 -2.76,8.52 -13.34,3.32 17.05,13.99 -22.71,-10.61 -5.22,2.38 12.24,8.32 -7.55,4.57 -4.8,9.35 -12.69,3.07 13.32,8.87 18.52,10.07 20.89,-5.37 -16.98,0.33 -6.83,-11.38 5.29,-9.05 16.64,9.67 26.77,3.93 16.33,4.76 6.74,8.46 0.65,7.46 5.94,3.43 30.08,16.57 11.23,9.78 -20.05,-6.19 6.72,3.61 7.74,12.78 -0.7,2.35 -24.19,-16.76 -7.08,-0.12 15.61,15.41 -2.64,0.95 -10.38,-4.23 1.71,3.44 21.92,26.7 7.44,11.86 -6.67,-9.81 -17.32,-12.05 -27.73,-15.81 9.98,6.39 20.52,12.05 28.79,20.71 -21.15,-7.81 2.95,11.83 -15.07,-0.6 -10.5,-4.05 -17.14,-17.27 -29.38,-15.06 4.43,3.52 30.41,19.22 15.04,11.54 -10.02,-9.34 -25.99,-3.96 -8.19,3.92 19.99,11.46 -21.66,-8.92 -4.66,3.9 4.85,5.52 24.77,21.18 6.27,17.51 -7.17,-1.91 -13.32,-25.85 -14.52,-6.56 -19.22,2.5 5.07,10.64 11.52,14.98 20.04,7.22 -1.03,7.89 -4.51,11.41 10.22,3.81 -9.03,16.25 -16.1,13.51 -15.95,-12.79 2.74,8.89 12.36,3.48 8.7,-7.49 14.49,13.06 27.12,8.81 20.04,3.59 0.77,4.82 -9.06,6.1 -19.54,1.23 -39.13,3.87 -58.7,1.81 6.92,-12.53 11.66,-22.23 -2.51,-7.46 -5.97,7.94 -28.71,4.58 -16.18,-7.19 29.97,12.98 -11.45,-20.37 -9.6,8.59 -15.53,-2.26 -12.76,-7.35 -6.38,-10.77 -9.68,-3.58 -25.73,8.16 -10.79,-5.39 20.98,-4.07 2.53,-8.88 -1.96,-3.52 13.13,-11.78 -0.31,-14.39 -10.96,-8.74 -12.03,-2.35 -20.74,17.45 -22.65,-1.18 -14.01,0 -8.5,-7.3 4.77,-10.98 3.26,-1.95 -19.82,2.57 -25.77,7.25 -9.28,8.5 -22.28,8.08 -33.84,11.11 l 1.81,0.36 z" />
            <path
               id="path3225"
               style="color:#000000;fill:#1c71d8;fill-opacity:1;fill-rule:evenodd;stroke:#000000;stroke-width:0.125"
               d="m 395.98,262.42 c 7.63,6.7 8.6,22.1 21.52,13.59 9.47,-4.34 21.13,-0.01 31.19,-1.75 12.37,3.12 9.11,20.07 20.89,24.6 7.47,7.51 20.61,-2.94 29.07,6.9 9,10.04 25.43,4.74 9.75,-4.74 -5.01,-6.96 -31.33,-8.45 -18.48,-16.37 7.96,-0.46 29.7,7.57 16.52,-4.93 -9.12,-7.95 -20.79,3.65 -31.57,-1.17 -21.03,-0.97 5.25,-2.41 13.12,-3.31 11.37,-2.94 22.99,0.61 31.23,8.9 8.68,-6.07 29.14,-0.85 12.12,7.07 13.26,6.64 27.17,1.51 40.91,-0.5 11.15,9.86 24.79,16.35 37.88,23.23 -14.79,-13.82 -4.44,-8.55 7.58,-2.02 -9.56,-6.42 -19,-12.96 -24.75,-23.23 16.74,-11.17 7.77,-8.41 -5.83,-3.14 -10.53,0.69 -26.7,-8.82 -10.3,-16.59 -3.64,-6.89 -15.08,-15.13 -23.8,-19.32 -5.08,-3.94 -30.88,3.94 -21.09,-4.36 14.41,-3.14 18.81,-5.48 1.41,-6.59 -10.97,5.03 -22.07,2.31 -31.62,-2.81 -9.82,1.63 -14.81,15.39 -27.94,13.13 -20.9,0.12 6.76,-10.55 -1.36,-17.07 -14.59,-0.78 -21.08,-1.31 -10.45,-7.14 -2.49,-2.77 19.96,0.03 27.38,-0.38 16.43,10.2 9.43,-2.17 -2.38,-5.21 -12.18,-0.96 -21.86,0.49 -31.35,-5.8 -19.88,-0.05 1.88,-11.04 -16.47,-9.27 -12.8,-2.13 -15.49,11.91 -27.02,14.85 -19.53,-1.44 -31.3,15.72 -45.35,26.39 -12.41,4.48 -27.14,-4.74 -40.02,1.92 -12.6,3.22 -24.63,8.21 -36.86,12.6 7.01,0.3 31.52,-4.46 27.04,-0.83 -7.7,4.6 -31.18,13.81 -9.96,9.95 22.76,-2.71 -2.43,1.53 -4.92,11.7 4.42,-2.83 18.38,-8.11 28.25,-4.66 -8.36,19.5 5.81,5.25 14.65,-1.01 10.97,-3.2 28.43,-8.99 9.52,1.69 -5.99,10.93 14.95,6.39 18.26,-4.22 -10.91,10.25 -9.53,20.11 5.67,14.71 1.93,-15.16 23,-6.84 19.77,-8.31 -4.57,-5.47 -4.49,-9.95 -2.21,-16.5 z" />
            <path
               id="path3227"
               style="color:#000000;fill:#1c71d8;fill-opacity:1;fill-rule:evenodd;stroke:#000000;stroke-width:0.125"
               d="m 145.97,358.89 c 17.44,-8.34 24.74,9.14 41.66,7.51 10.43,0.97 19.04,-8.21 28.04,-12.56 -16.84,5.53 -17.31,-1.22 -1.91,-6.06 10.93,-4.15 22.02,1.05 32.33,1.16 15.04,-7.75 7.11,-13.12 -5.67,-9.75 6.09,-8.68 18.13,-12.27 27.43,-10.28 10.7,-7.19 15.27,-1.39 26.58,2.71 15.53,-3.59 -11.72,13.9 11.38,12.59 5.21,-10.28 18.34,-9.26 24.01,-19.02 6.9,-10.02 22.31,-7.29 27.73,2.99 15.37,7.73 -10,8.63 -16.95,8.42 -11.58,-3.24 -27.88,5.13 -7.93,7.06 15.92,0.53 31.42,-6.39 47.27,-2.7 14.33,-0.93 52.02,-10.05 41.35,12.73 -21.29,-11.74 -13.66,0.94 1.46,2.17 3.92,8.4 -28.28,-5.93 -9.67,8.02 12.19,15.4 -7.62,0.46 -12.42,-5.87 -7.39,-12.96 -22.71,-6.17 -32.96,-0.63 -17.12,-0.69 -36.02,2.12 -50.01,-10.1 -0.6,12.53 -10.83,-6.9 -1.51,10.1 -16.25,6.3 -4.7,-15.08 -22.47,-9.51 -15.98,-8.88 -13.85,-8.49 -8.64,3.29 -12.35,0.85 -14.55,9.23 -26.5,11.03 -9.53,7.05 -21.4,2.97 -32.3,3.27 16.14,-8.04 5.14,-15.24 -4.85,-4.81 -11.49,1.24 -20.56,9.96 -31.01,14.4 6.92,-5.55 27.88,-19.74 8.76,-9.27 -6.76,6 -26.64,7.77 -25.04,15.97 2.93,8.43 22.53,15.06 4.67,12.5 -7.37,-18.72 -12.88,1.78 -0.98,7.12 -3.34,2.81 -17.41,0.58 -24.78,6.01 -13.78,0.48 7.73,-13.97 -12.98,-4.51 -14.4,4.54 4.48,-10.91 10.45,-12.16 -7.37,-3.43 -29,12.08 -23.23,1.01 10.53,-5.68 22.18,-7.52 33.33,-11.11 -10.54,-0.9 -21.56,-2.71 -29.62,4.55 -10.02,0.9 13.11,-11.01 6.98,-10.8 10.47,-5.74 21.71,5.74 31.23,-1.33 -14.74,-5.4 -5.76,-6.05 -19.7,-8.08 -12.79,1.83 -17.41,0.96 -3.76,-5.91 z" />
            <path
               id="path3229"
               style="color:#000000;fill:#1c71d8;fill-opacity:1;fill-rule:evenodd;stroke:#000000;stroke-width:0.125"
               d="m 130.31,311.42 c 5.29,-10.6 19.58,-26.44 -3.03,-17.18 11.15,-3.83 21.13,-9.22 27.27,-19.7 11.31,-16.39 3.1,15.49 11.43,0.09 1.96,-12.14 18.16,1.56 26.17,-1.73 15.52,-5.53 32.62,-15 48.77,-5.93 -13.88,1.47 -26.03,7.9 -38.77,12.52 -6.66,9.73 -15.43,8.09 -17.75,3.49 -4.63,22.11 -16.16,-8.96 -19.95,2.94 -10.73,12.26 -20.34,17.09 -20.1,11.66 -4.68,4.61 -9.36,9.22 -14.04,13.84 z" />
            <path
               id="path3231"
               style="color:#000000;fill:#1c71d8;fill-opacity:1;fill-rule:evenodd;stroke:#000000;stroke-width:0.125"
               d="m 186.88,215.96 c 12.41,4.74 19.55,-9.68 30.33,-8.67 18.66,3.32 34.08,14.73 52.67,18.66 -12.33,2.13 -30.97,8.25 -42.09,-2.42 -0.84,12.58 -23.47,2.23 -18.73,1.36 15.59,-7.86 -8.12,-0.31 -14.06,1.49 -1.27,-2.11 11.7,-9.74 -6.74,-5.49 -20.57,0.09 -1.1,4.42 -1.38,-4.93 z" />
            <path
               id="path3242"
               style="color:#000000;fill:#1c71d8;fill-opacity:1;fill-rule:evenodd;stroke:#000000;stroke-width:0.125"
               d="m 246.98,160.9 c -13.59,-1.24 -24.19,6.36 -34.85,13.64 12.49,-11.44 3.51,-14.68 -7.74,-6.75 -9.3,5.68 -27.12,-6.9 -7.92,-5.37 12.27,-6.61 28.94,0.29 37.54,-13.3 -2.23,-4.1 -21.23,3.56 -26.42,-6.4 -8.93,0.15 -33.23,1.2 -29.61,2.64 -6.1,-6.1 6.25,-13.31 17.25,-8.14 19.13,-2.14 -15.86,-5.13 -3.66,-9.85 17.44,3.3 11.4,-1.04 -1.26,-7.49 1.16,-1.26 19.9,4.82 24.64,12.08 8.8,13.12 15.49,-7.25 26.15,-7.71 18.69,-2.25 -1.81,-13.48 -10.93,-8.69 -21.29,4.56 0.1,-6.56 -15.99,-10.51 2.36,-9.503 18.06,-1.68 26.2,-0.81 8.43,-7.694 17.87,8.53 27.82,9.19 -6.03,-6.97 -26.72,-16.141 -6.13,-12.73 20.45,0.9 -10.85,-8.175 -4.71,-13.104 11.61,5.399 25.85,3.022 9.39,-7.114 -0.42,-3.72 15.59,9.963 21.52,13.148 11.57,3.853 17.54,-4.869 27.4,-8.489 -18.61,-3.612 2.74,-4.445 11.05,-3.58 16.02,-0.857 29.01,8.944 43,15.197 -13.17,-7.33 -24.68,-20.099 -41.01,-17.066 -29.64,-9.463 21.4,-0.545 1.1,-12.734 13.53,4.46 17.97,-9.985 30.12,-8.296 20.81,0.051 -7.6,9.546 2.21,18.903 9.37,14.899 7.73,12.868 14.01,1.108 1.96,-1.321 -11.82,-9.459 4.17,-6.159 -6.24,-8.185 -3.95,-16.636 4.34,-16.162 5.1,-11.256 6.49,7.76 12.5,9.847 -14.07,14.214 7.06,0.321 10.58,-3.576 12.31,-3.615 19.04,8.67 14.2,13.72 -20.38,2.395 -7.99,2.598 5.35,2.737 6.43,9.641 -4.98,17.866 7.74,3.069 7.34,-1.699 14.88,-1.706 6.7,-7.908 4.12,-8.353 31.85,-5.603 27.66,-3.242 -13.25,-3.891 -24.57,9.01 -5.32,3.557 18.91,-8.623 1.36,-0.149 -2.63,9.364 -0.18,16.93 15.43,-6.864 17.72,-3.625 -2.63,16.073 8.96,-16.768 14.8,0.806 -13.44,-1.822 -10.38,15.791 -3.33,17.388 14.41,1.691 -10.78,2.731 1.41,6.131 -10.74,1.75 -19.3,3.37 -29.39,-2.81 -7.74,-1.61 -25.17,20.08 -19.49,9.58 9.83,-13.596 -10.47,-14.096 -19.59,-14.062 -2.69,-15.708 -8.9,3.042 -15.09,-14.042 1.61,8.095 -9.55,22.014 -17.55,10.441 9.94,-4.588 -13.4,-12.817 -14.05,-0.213 10.21,14.306 -1.6,5.51 -12.28,13.116 -19.4,-3.5 -8.82,-0.69 -2.79,3.33 -13.47,3.2 -27.53,-7.17 -39.51,2.04 -18.31,8.56 0.92,7.57 8.83,9.85 7.43,6.65 22.19,-9.02 29.01,0.2 11,9.84 22.43,-4.68 32.87,-9.07 12.37,-2.31 24.38,4.11 36.3,7.01 -4.7,14.72 7.4,17.85 18.95,21.36 14.17,3.27 29.23,-4.01 43.14,-2.01 11.36,1.79 17.29,12.48 24.79,20.05 -21.98,-11.77 -46.97,-3.92 -70.54,-7.07 -6.34,1.72 -32.43,-4.09 -15.07,-7.33 -11.56,-0.94 7.99,-5.97 -11.68,-8.13 -15.32,5.39 -31.44,-10.57 -45.14,0.7 -4.91,11.78 16.55,5.34 21.94,10.64 5.12,9.88 -11.46,19.55 -19.42,10.23 -8.23,-1.2 -20.76,8.31 -27.33,-3.85 -18.16,-19.13 10.6,11.82 -5.93,2.98 -5.72,5.19 -25.72,-1.89 -19.73,-3.84 7.25,-2.83 0.61,-5.2 11.78,1.98 10.88,-3.07 -8.85,-20.95 -16.53,-14.68 -9,10.18 -20.31,-7.98 -28.59,3.26 -0.48,8.46 -28.44,16.47 -13.63,8.44 14.81,-8.82 10.74,-13.87 -2.77,-3.19 -7.05,8.97 -18.12,4.97 -26.57,11.37 z" />
            <path
               id="path3244"
               style="color:#000000;fill:#1c71d8;fill-opacity:1;fill-rule:evenodd;stroke:#000000;stroke-width:0.125"
               d="m 356.08,227.07 c 7.29,-8.95 19.93,-7.73 27.72,-4.67 9.41,-7.92 22.45,-1.77 28.85,7.19 -13.31,-0.53 -26.32,4.31 -39.19,1.34 -9.2,2.98 -28.02,4.63 -9.69,-3.1 5.22,-4.34 -6.24,-0.64 -7.69,-0.76 z" />
            <path
               id="path3246"
               style="color:#000000;fill:#1c71d8;fill-opacity:1;fill-rule:evenodd;stroke:#000000;stroke-width:0.125"
               d="m 290.92,175.3 c 2.07,-11.4 39.5,-2.27 21.02,-0.52 -9.17,-3.33 -25.1,7.2 -18.17,1.23 -5.17,1.76 -12.34,6.47 -2.85,-0.71 z" />
            <path
               id="path3250"
               style="color:#000000;fill:#1c71d8;fill-opacity:1;fill-rule:evenodd;stroke:#000000;stroke-width:0.125"
               d="m 402.04,168.48 c 9.48,6.96 18.98,-5.94 29.04,-7.83 20.21,-2.17 -9.33,14.93 1.27,11.11 8.91,2.04 10.96,-2.98 23.32,-2.48 14.26,-4.66 24.6,12.2 38.55,12.84 -5.15,7.32 -30.05,-8.04 -19.22,-1 8.56,7.15 -17.37,-0.87 2.19,6.31 13.96,0.97 7.65,14.13 -3.26,7.81 0.91,6.04 12.31,11.74 -5.22,6.57 -17.97,1.71 15.11,-18.44 -2.75,-8.9 -2.82,1.39 -21.57,-11.35 -15.94,-1.7 -14.14,2.92 -12.49,10.28 -24.75,0.5 -10.27,-2.2 -11.38,6.11 -24.83,6.06 -11.51,1.6 25.78,7.2 14.89,7.95 -6.47,-0.93 -27.93,-6.15 -23.14,4.68 12.96,3.91 -4.64,16.56 -12.48,15.69 1.27,-0.88 8.5,-16.88 -9.99,-9.38 6.47,-2.73 23.76,-10.23 14.18,-13.4 -1.67,-7.9 -13.59,2.6 -18.84,7.87 -17.36,15.29 12.2,-14.16 -6.2,-10.63 -19.02,8.04 -6.17,-8.43 3.84,-11.64 9.96,-4.99 20.07,4.19 26.53,-1.39 16.46,-2.5 16.25,-1.94 1.1,-3.85 -12.46,-4.31 17.18,-4.17 -4.45,-6.86 -8.21,-3.45 -29.03,-3.84 -9.71,-5.59 8.85,0.02 17.93,1.76 25.87,-2.74 z" />
            <path
               id="path3252"
               style="color:#000000;fill:#1c71d8;fill-opacity:1;fill-rule:evenodd;stroke:#000000;stroke-width:0.125"
               d="m 477.8,173.78 c 4.9,2.33 25.64,-1.67 12.79,6.39 7.53,1.25 -4.04,9.08 12.6,11.1 3.97,2.22 -19.82,6.02 -14.81,10.11 3.86,5.39 19.8,1.08 21.56,13.45 3.31,-0.27 11.3,-3.8 10.46,-0.93 17.7,1.2 -13.77,8.79 6.22,6.89 4.79,-2.99 3.93,12.87 10.04,2.18 -2.04,-10 7.26,-4.77 19.26,-3.7 -4.13,-1.99 -21.96,-13.18 -2.68,-6.21 13.2,10.59 13.96,0.76 -1.01,-2.5 -12.92,-6.66 15.36,3.66 20.68,-0.13 16.05,-1.83 -10.79,-5.01 -12.74,-11.53 -10.33,-0.43 -16.45,3.48 -27.18,4.08 -8.49,-1.46 -15.33,11.26 -24.47,1.09 -17.55,-5.51 -3.71,-5.06 6.56,-9.39 12.09,-3.31 24.91,5.44 36.72,0.82 7.83,1.28 23.53,-2.16 25.76,1.72 -18,-11.29 19.47,1.47 6.29,-5.45 -6.47,-7.66 -19.05,-1.98 -28.16,-3.35 -10.29,2.09 -19.8,-8.64 -29.65,0.01 -24.54,0.17 11.86,-3.85 -1.33,-6.13 -9.57,-1 -25.4,-5.63 -6.88,-3.93 9.72,-3.02 -14.67,-6.7 -18.81,-10.65 -8.35,-4.55 -14.62,1.59 -21.22,6.06 z" />
            <path
               id="path3256"
               style="color:#000000;fill:#1c71d8;fill-opacity:1;fill-rule:evenodd;stroke:#000000;stroke-width:0.125"
               d="m 239.29,175.22 c 8.96,-5.72 17.6,-12.02 27.5,-16.07 -6.68,9.1 -17.99,11.09 -27.5,16.07 z" />
            <path
               id="path3260"
               style="color:#000000;fill:#1c71d8;fill-opacity:1;fill-rule:evenodd;stroke:#000000;stroke-width:0.125"
               d="m 359.64,378.08 c 3.69,-12.65 17.26,-2.42 20.72,5.35 7.24,21.15 -4.03,-12.81 1.54,-10.13 4.34,15.57 5.01,-14.14 -2.64,-13.08 -8.28,-0.84 -19.49,3.28 -24.62,10 -1.37,4.63 1.81,5.54 5,7.86 z" />
            <path
               id="path3258"
               style="color:#000000;fill:#1c71d8;fill-opacity:1;fill-rule:evenodd;stroke:#000000;stroke-width:0.125"
               d="m 311.79,380.22 c 9.77,-9.23 20.27,6.96 24.64,-8.57 12.41,11.94 6,-4.94 14.61,-1.33 15.74,-3.93 -1.8,-2.18 -11.89,-4.85 -9.25,2.9 -12.55,-0.19 -25.27,0.79 -2.7,2.38 -13.23,24.16 -2.23,14.04 z" />
            <path
               id="path3262"
               style="color:#000000;fill:#1c71d8;fill-opacity:1;fill-rule:evenodd;stroke:#000000;stroke-width:0.125"
               d="m 481.43,329.15 c 20.3,-11.43 -11.04,-12.91 3.93,-14.29 -12.27,-0.23 -1.09,-13.14 -19.89,-6.42 -7.18,-2.04 -32.37,11.99 -23.28,5.13 14.2,-12.51 34.29,-13.87 52.45,-14.42 9.79,6.03 18.86,13.3 29.29,18.21 -12.04,-9.25 16.38,5.14 -4.29,-7.85 -2.02,-9.62 19.2,0.51 22.15,7.5 10.19,9.22 21.83,0.87 17.44,-11.47 1.88,-12.88 21.45,-3.72 18.98,6.89 7.93,18.21 29.62,14.18 45.22,18.97 11.6,5.43 -24.35,-0.66 -11.66,7.37 -7.63,-2.83 -31.35,-5.28 -15.47,5.36 9.45,4.09 17.71,25.79 3.04,10.92 -5.53,-1.13 1.97,7.6 -9.2,-4.94 -11.25,-0.88 -1.63,4.59 -15.5,-0.96 7.8,13.35 12.36,10.95 1.43,12.86 -1.73,6.68 -20.95,-18.83 -14.76,-4.97 10.75,17.26 -0.57,7.7 -9.3,-0.41 -4.78,-5.78 -22.47,-16.81 -9.96,-5.31 16.8,9.93 -14.25,8.11 4.02,12.11 5.27,9.11 22.12,13.82 4.29,19.29 10.65,-13.16 -14.37,-3.67 -21.37,-8.07 -18.27,-1.99 -13.37,-3.6 2.08,-4.79 -13.71,-0.13 -27.19,-3.92 -40.02,-7.16 -10.03,-0.16 -22.46,18.01 -11.56,1.2 15.03,-17.07 -17.42,11.51 -6.72,-1.23 18.01,-17.64 -13.88,6.72 -3.25,-8.22 -7.53,-11.59 16.71,1 20.52,-8.15 4.63,-13.56 21.71,5.58 3.69,-9.69 -7.39,6.53 -16.73,13.2 -28.73,9.32 20.54,0.63 9.41,-6.28 -4.33,-1.83 9.35,0.9 2.77,-13.07 8.99,-10.89 4.13,-0.72 7.86,-2.64 11.77,-4.06 z" />
          </g>
        </g>
      </g>
    </g>
  </g>
  <metadata
     id="metadata54">
    <rdf:RDF>
      <cc:Work>
        <dc:format>image/svg+xml</dc:format>
        <dc:type
           rdf:resource="http://purl.org/dc/dcmitype/StillImage" />
        <cc:license
           rdf:resource="http://creativecommons.org/publicdomain/zero/1.0/" />
        <dc:publisher>
          <cc:Agent
             rdf:about="http://openclipart.org/">
            <dc:title>Openclipart</dc:title>
          </cc:Agent>
        </dc:publisher>
        <dc:title>simple vector tree</dc:title>
        <dc:date>2008-04-07T09:56:27</dc:date>
        <dc:description>A simple vector tree.</dc:description>
        <dc:source>https://openclipart.org/detail/16185/simple-vector-tree-by-bobocal</dc:source>
        <dc:creator>
          <cc:Agent>
            <dc:title>bobocal</dc:title>
          </cc:Agent>
        </dc:creator>
        <dc:subject>
          <rdf:Bag>
            <rdf:li>color</rdf:li>
            <rdf:li>green</rdf:li>
            <rdf:li>how i did it</rdf:li>
            <rdf:li>nature</rdf:li>
            <rdf:li>plant</rdf:li>
            <rdf:li>tree</rdf:li>
          </rdf:Bag>
        </dc:subject>
      </cc:Work>
      <cc:License
         rdf:about="http://creativecommons.org/publicdomain/zero/1.0/">
        <cc:permits
           rdf:resource="http://creativecommons.org/ns#Reproduction" />
        <cc:permits
           rdf:resource="http://creativecommons.org/ns#Distribution" />
        <cc:permits
           rdf:resource="http://creativecommons.org/ns#DerivativeWorks" />
      </cc:License>
    </rdf:RDF>
  </metadata>
</svg>
